<mxfile host="Electron" modified="2024-06-01T16:40:44.920Z" agent="Mozilla/5.0 (Windows NT 10.0; Win64; x64) AppleWebKit/537.36 (KHTML, like Gecko) draw.io/24.4.13 Chrome/124.0.6367.207 Electron/30.0.6 Safari/537.36" etag="TGTi_q2OhtAfd26yJv-1" version="24.4.13" type="device">
  <diagram name="Page-1" id="PrH5mhFS8wrjBoCyh01Q">
    <mxGraphModel dx="330" dy="192" grid="1" gridSize="5" guides="1" tooltips="1" connect="1" arrows="1" fold="1" page="1" pageScale="1" pageWidth="850" pageHeight="1100" math="0" shadow="0">
      <root>
        <mxCell id="0" />
        <mxCell id="1" parent="0" />
        <mxCell id="I7vyF0tozr1cAi5WqUJ5-2" value="" style="endArrow=none;html=1;rounded=0;" parent="1" edge="1">
          <mxGeometry width="50" height="50" relative="1" as="geometry">
            <mxPoint x="320" y="330" as="sourcePoint" />
            <mxPoint x="340" y="330" as="targetPoint" />
          </mxGeometry>
        </mxCell>
        <mxCell id="I7vyF0tozr1cAi5WqUJ5-3" value="" style="endArrow=none;html=1;rounded=0;" parent="1" edge="1">
          <mxGeometry width="50" height="50" relative="1" as="geometry">
            <mxPoint x="320" y="350" as="sourcePoint" />
            <mxPoint x="340" y="350" as="targetPoint" />
          </mxGeometry>
        </mxCell>
        <mxCell id="I7vyF0tozr1cAi5WqUJ5-4" value="" style="endArrow=none;html=1;rounded=0;" parent="1" edge="1">
          <mxGeometry width="50" height="50" relative="1" as="geometry">
            <mxPoint x="320" y="330" as="sourcePoint" />
            <mxPoint x="320" y="350" as="targetPoint" />
          </mxGeometry>
        </mxCell>
        <mxCell id="I7vyF0tozr1cAi5WqUJ5-5" value="" style="endArrow=none;html=1;rounded=0;" parent="1" edge="1">
          <mxGeometry width="50" height="50" relative="1" as="geometry">
            <mxPoint x="340" y="330" as="sourcePoint" />
            <mxPoint x="340" y="350" as="targetPoint" />
          </mxGeometry>
        </mxCell>
        <mxCell id="I7vyF0tozr1cAi5WqUJ5-15" value="" style="endArrow=none;html=1;rounded=0;edgeStyle=orthogonalEdgeStyle;strokeColor=#0000FF;endFill=0;curved=1;" parent="1" edge="1">
          <mxGeometry width="50" height="50" relative="1" as="geometry">
            <mxPoint x="340" y="459.99" as="sourcePoint" />
            <mxPoint x="330" y="449.99" as="targetPoint" />
          </mxGeometry>
        </mxCell>
        <mxCell id="I7vyF0tozr1cAi5WqUJ5-17" value="" style="endArrow=none;html=1;rounded=0;edgeStyle=orthogonalEdgeStyle;strokeColor=#0000FF;endFill=0;curved=1;" parent="1" edge="1">
          <mxGeometry width="50" height="50" relative="1" as="geometry">
            <mxPoint x="340" y="420" as="sourcePoint" />
            <mxPoint x="330" y="430" as="targetPoint" />
          </mxGeometry>
        </mxCell>
        <mxCell id="I7vyF0tozr1cAi5WqUJ5-18" value="" style="endArrow=none;html=1;rounded=0;edgeStyle=orthogonalEdgeStyle;strokeColor=#0000FF;endFill=0;curved=1;" parent="1" edge="1">
          <mxGeometry width="50" height="50" relative="1" as="geometry">
            <mxPoint x="360" y="459.99" as="sourcePoint" />
            <mxPoint x="370" y="449.99" as="targetPoint" />
          </mxGeometry>
        </mxCell>
        <mxCell id="I7vyF0tozr1cAi5WqUJ5-19" value="" style="endArrow=none;html=1;rounded=0;edgeStyle=orthogonalEdgeStyle;strokeColor=#0000FF;endFill=0;curved=1;" parent="1" edge="1">
          <mxGeometry width="50" height="50" relative="1" as="geometry">
            <mxPoint x="360" y="420" as="sourcePoint" />
            <mxPoint x="370" y="430" as="targetPoint" />
          </mxGeometry>
        </mxCell>
        <mxCell id="I7vyF0tozr1cAi5WqUJ5-279" value="" style="endArrow=none;html=1;rounded=0;" parent="1" edge="1">
          <mxGeometry width="50" height="50" relative="1" as="geometry">
            <mxPoint x="320" y="369.73" as="sourcePoint" />
            <mxPoint x="340" y="369.73" as="targetPoint" />
          </mxGeometry>
        </mxCell>
        <mxCell id="I7vyF0tozr1cAi5WqUJ5-280" value="" style="endArrow=none;html=1;rounded=0;" parent="1" edge="1">
          <mxGeometry width="50" height="50" relative="1" as="geometry">
            <mxPoint x="320" y="389.73" as="sourcePoint" />
            <mxPoint x="340" y="389.73" as="targetPoint" />
          </mxGeometry>
        </mxCell>
        <mxCell id="I7vyF0tozr1cAi5WqUJ5-281" value="" style="endArrow=none;html=1;rounded=0;" parent="1" edge="1">
          <mxGeometry width="50" height="50" relative="1" as="geometry">
            <mxPoint x="320" y="369.73" as="sourcePoint" />
            <mxPoint x="320" y="389.73" as="targetPoint" />
          </mxGeometry>
        </mxCell>
        <mxCell id="I7vyF0tozr1cAi5WqUJ5-282" value="" style="endArrow=none;html=1;rounded=0;" parent="1" edge="1">
          <mxGeometry width="50" height="50" relative="1" as="geometry">
            <mxPoint x="340" y="369.73" as="sourcePoint" />
            <mxPoint x="340" y="389.73" as="targetPoint" />
          </mxGeometry>
        </mxCell>
        <mxCell id="I7vyF0tozr1cAi5WqUJ5-283" value="" style="endArrow=none;html=1;rounded=0;" parent="1" edge="1">
          <mxGeometry width="50" height="50" relative="1" as="geometry">
            <mxPoint x="360" y="370" as="sourcePoint" />
            <mxPoint x="380" y="370" as="targetPoint" />
          </mxGeometry>
        </mxCell>
        <mxCell id="I7vyF0tozr1cAi5WqUJ5-284" value="" style="endArrow=none;html=1;rounded=0;" parent="1" edge="1">
          <mxGeometry width="50" height="50" relative="1" as="geometry">
            <mxPoint x="360" y="390" as="sourcePoint" />
            <mxPoint x="380" y="390" as="targetPoint" />
          </mxGeometry>
        </mxCell>
        <mxCell id="I7vyF0tozr1cAi5WqUJ5-285" value="" style="endArrow=none;html=1;rounded=0;" parent="1" edge="1">
          <mxGeometry width="50" height="50" relative="1" as="geometry">
            <mxPoint x="360" y="370" as="sourcePoint" />
            <mxPoint x="360" y="390" as="targetPoint" />
          </mxGeometry>
        </mxCell>
        <mxCell id="I7vyF0tozr1cAi5WqUJ5-286" value="" style="endArrow=none;html=1;rounded=0;" parent="1" edge="1">
          <mxGeometry width="50" height="50" relative="1" as="geometry">
            <mxPoint x="380" y="370" as="sourcePoint" />
            <mxPoint x="380" y="390" as="targetPoint" />
          </mxGeometry>
        </mxCell>
        <mxCell id="I7vyF0tozr1cAi5WqUJ5-287" value="" style="endArrow=none;html=1;rounded=0;" parent="1" edge="1">
          <mxGeometry width="50" height="50" relative="1" as="geometry">
            <mxPoint x="320" y="410" as="sourcePoint" />
            <mxPoint x="340" y="410" as="targetPoint" />
          </mxGeometry>
        </mxCell>
        <mxCell id="I7vyF0tozr1cAi5WqUJ5-288" value="" style="endArrow=none;html=1;rounded=0;" parent="1" edge="1">
          <mxGeometry width="50" height="50" relative="1" as="geometry">
            <mxPoint x="320" y="430" as="sourcePoint" />
            <mxPoint x="340" y="430" as="targetPoint" />
          </mxGeometry>
        </mxCell>
        <mxCell id="I7vyF0tozr1cAi5WqUJ5-289" value="" style="endArrow=none;html=1;rounded=0;" parent="1" edge="1">
          <mxGeometry width="50" height="50" relative="1" as="geometry">
            <mxPoint x="320" y="410" as="sourcePoint" />
            <mxPoint x="320" y="430" as="targetPoint" />
          </mxGeometry>
        </mxCell>
        <mxCell id="I7vyF0tozr1cAi5WqUJ5-290" value="" style="endArrow=none;html=1;rounded=0;" parent="1" edge="1">
          <mxGeometry width="50" height="50" relative="1" as="geometry">
            <mxPoint x="340" y="410" as="sourcePoint" />
            <mxPoint x="340" y="430" as="targetPoint" />
          </mxGeometry>
        </mxCell>
        <mxCell id="I7vyF0tozr1cAi5WqUJ5-291" value="" style="endArrow=none;html=1;rounded=0;" parent="1" edge="1">
          <mxGeometry width="50" height="50" relative="1" as="geometry">
            <mxPoint x="360" y="410" as="sourcePoint" />
            <mxPoint x="380" y="410" as="targetPoint" />
          </mxGeometry>
        </mxCell>
        <mxCell id="I7vyF0tozr1cAi5WqUJ5-292" value="" style="endArrow=none;html=1;rounded=0;" parent="1" edge="1">
          <mxGeometry width="50" height="50" relative="1" as="geometry">
            <mxPoint x="360" y="430" as="sourcePoint" />
            <mxPoint x="380" y="430" as="targetPoint" />
          </mxGeometry>
        </mxCell>
        <mxCell id="I7vyF0tozr1cAi5WqUJ5-293" value="" style="endArrow=none;html=1;rounded=0;" parent="1" edge="1">
          <mxGeometry width="50" height="50" relative="1" as="geometry">
            <mxPoint x="360" y="410" as="sourcePoint" />
            <mxPoint x="360" y="430" as="targetPoint" />
          </mxGeometry>
        </mxCell>
        <mxCell id="I7vyF0tozr1cAi5WqUJ5-294" value="" style="endArrow=none;html=1;rounded=0;" parent="1" edge="1">
          <mxGeometry width="50" height="50" relative="1" as="geometry">
            <mxPoint x="380" y="410" as="sourcePoint" />
            <mxPoint x="380" y="430" as="targetPoint" />
          </mxGeometry>
        </mxCell>
        <mxCell id="I7vyF0tozr1cAi5WqUJ5-295" value="" style="endArrow=none;html=1;rounded=0;" parent="1" edge="1">
          <mxGeometry width="50" height="50" relative="1" as="geometry">
            <mxPoint x="320" y="449.73" as="sourcePoint" />
            <mxPoint x="340" y="449.73" as="targetPoint" />
          </mxGeometry>
        </mxCell>
        <mxCell id="I7vyF0tozr1cAi5WqUJ5-296" value="" style="endArrow=none;html=1;rounded=0;" parent="1" edge="1">
          <mxGeometry width="50" height="50" relative="1" as="geometry">
            <mxPoint x="320" y="469.73" as="sourcePoint" />
            <mxPoint x="340" y="469.73" as="targetPoint" />
          </mxGeometry>
        </mxCell>
        <mxCell id="I7vyF0tozr1cAi5WqUJ5-297" value="" style="endArrow=none;html=1;rounded=0;" parent="1" edge="1">
          <mxGeometry width="50" height="50" relative="1" as="geometry">
            <mxPoint x="320" y="449.73" as="sourcePoint" />
            <mxPoint x="320" y="469.73" as="targetPoint" />
          </mxGeometry>
        </mxCell>
        <mxCell id="I7vyF0tozr1cAi5WqUJ5-298" value="" style="endArrow=none;html=1;rounded=0;" parent="1" edge="1">
          <mxGeometry width="50" height="50" relative="1" as="geometry">
            <mxPoint x="340" y="449.73" as="sourcePoint" />
            <mxPoint x="340" y="469.73" as="targetPoint" />
          </mxGeometry>
        </mxCell>
        <mxCell id="I7vyF0tozr1cAi5WqUJ5-299" value="" style="endArrow=none;html=1;rounded=0;" parent="1" edge="1">
          <mxGeometry width="50" height="50" relative="1" as="geometry">
            <mxPoint x="360" y="449.73" as="sourcePoint" />
            <mxPoint x="380" y="449.73" as="targetPoint" />
          </mxGeometry>
        </mxCell>
        <mxCell id="I7vyF0tozr1cAi5WqUJ5-300" value="" style="endArrow=none;html=1;rounded=0;" parent="1" edge="1">
          <mxGeometry width="50" height="50" relative="1" as="geometry">
            <mxPoint x="360" y="469.73" as="sourcePoint" />
            <mxPoint x="380" y="469.73" as="targetPoint" />
          </mxGeometry>
        </mxCell>
        <mxCell id="I7vyF0tozr1cAi5WqUJ5-301" value="" style="endArrow=none;html=1;rounded=0;" parent="1" edge="1">
          <mxGeometry width="50" height="50" relative="1" as="geometry">
            <mxPoint x="360" y="449.73" as="sourcePoint" />
            <mxPoint x="360" y="469.73" as="targetPoint" />
          </mxGeometry>
        </mxCell>
        <mxCell id="I7vyF0tozr1cAi5WqUJ5-302" value="" style="endArrow=none;html=1;rounded=0;" parent="1" edge="1">
          <mxGeometry width="50" height="50" relative="1" as="geometry">
            <mxPoint x="380" y="449.73" as="sourcePoint" />
            <mxPoint x="380" y="469.73" as="targetPoint" />
          </mxGeometry>
        </mxCell>
        <mxCell id="I7vyF0tozr1cAi5WqUJ5-303" value="" style="group" parent="1" vertex="1" connectable="0">
          <mxGeometry x="320" y="370" width="20" height="20" as="geometry" />
        </mxCell>
        <mxCell id="I7vyF0tozr1cAi5WqUJ5-304" value="" style="endArrow=none;html=1;rounded=0;strokeColor=#0000FF;" parent="I7vyF0tozr1cAi5WqUJ5-303" edge="1">
          <mxGeometry width="50" height="50" relative="1" as="geometry">
            <mxPoint y="10" as="sourcePoint" />
            <mxPoint x="20" y="10" as="targetPoint" />
          </mxGeometry>
        </mxCell>
        <mxCell id="I7vyF0tozr1cAi5WqUJ5-305" value="" style="endArrow=none;html=1;rounded=0;strokeColor=#0000FF;" parent="I7vyF0tozr1cAi5WqUJ5-303" edge="1">
          <mxGeometry width="50" height="50" relative="1" as="geometry">
            <mxPoint x="10" as="sourcePoint" />
            <mxPoint x="10" y="5" as="targetPoint" />
          </mxGeometry>
        </mxCell>
        <mxCell id="I7vyF0tozr1cAi5WqUJ5-306" value="" style="endArrow=none;html=1;rounded=0;strokeColor=#0000FF;" parent="I7vyF0tozr1cAi5WqUJ5-303" edge="1">
          <mxGeometry width="50" height="50" relative="1" as="geometry">
            <mxPoint x="10" y="15" as="sourcePoint" />
            <mxPoint x="10" y="20" as="targetPoint" />
          </mxGeometry>
        </mxCell>
        <mxCell id="I7vyF0tozr1cAi5WqUJ5-393" value="" style="ellipse;whiteSpace=wrap;html=1;aspect=fixed;fillColor=none;strokeColor=#0000FF;container=0;" parent="1" vertex="1">
          <mxGeometry x="325" y="335" width="10" height="10" as="geometry" />
        </mxCell>
        <mxCell id="I7vyF0tozr1cAi5WqUJ5-409" value="" style="group" parent="1" vertex="1" connectable="0">
          <mxGeometry x="360" y="370" width="20" height="20" as="geometry" />
        </mxCell>
        <mxCell id="I7vyF0tozr1cAi5WqUJ5-316" value="" style="endArrow=none;html=1;rounded=0;strokeColor=#0000FF;" parent="I7vyF0tozr1cAi5WqUJ5-409" edge="1">
          <mxGeometry width="50" height="50" relative="1" as="geometry">
            <mxPoint x="10" as="sourcePoint" />
            <mxPoint x="10" y="20" as="targetPoint" />
          </mxGeometry>
        </mxCell>
        <mxCell id="I7vyF0tozr1cAi5WqUJ5-317" value="" style="endArrow=none;html=1;rounded=0;strokeColor=#0000FF;" parent="I7vyF0tozr1cAi5WqUJ5-409" edge="1">
          <mxGeometry width="50" height="50" relative="1" as="geometry">
            <mxPoint x="20" y="10" as="sourcePoint" />
            <mxPoint x="15" y="10" as="targetPoint" />
          </mxGeometry>
        </mxCell>
        <mxCell id="I7vyF0tozr1cAi5WqUJ5-318" value="" style="endArrow=none;html=1;rounded=0;strokeColor=#0000FF;" parent="I7vyF0tozr1cAi5WqUJ5-409" edge="1">
          <mxGeometry width="50" height="50" relative="1" as="geometry">
            <mxPoint x="5" y="10" as="sourcePoint" />
            <mxPoint y="10" as="targetPoint" />
          </mxGeometry>
        </mxCell>
        <mxCell id="o5yhycOnRF4df_0xs7PU-576" value="" style="endArrow=none;html=1;rounded=0;edgeStyle=orthogonalEdgeStyle;strokeColor=#99CCFF;endFill=0;curved=1;" edge="1" parent="1">
          <mxGeometry width="50" height="50" relative="1" as="geometry">
            <mxPoint x="480" y="390.02" as="sourcePoint" />
            <mxPoint x="490" y="400.02" as="targetPoint" />
          </mxGeometry>
        </mxCell>
        <mxCell id="o5yhycOnRF4df_0xs7PU-579" value="" style="endArrow=none;html=1;rounded=0;edgeStyle=orthogonalEdgeStyle;strokeColor=#99CCFF;endFill=0;curved=1;" edge="1" parent="1">
          <mxGeometry width="50" height="50" relative="1" as="geometry">
            <mxPoint x="480" y="390.02" as="sourcePoint" />
            <mxPoint x="490" y="380.02" as="targetPoint" />
          </mxGeometry>
        </mxCell>
        <mxCell id="o5yhycOnRF4df_0xs7PU-580" value="" style="endArrow=none;html=1;rounded=0;strokeColor=#99CCFF;" edge="1" parent="1">
          <mxGeometry width="50" height="50" relative="1" as="geometry">
            <mxPoint x="480" y="389.99999999999994" as="sourcePoint" />
            <mxPoint x="500" y="389.99999999999994" as="targetPoint" />
          </mxGeometry>
        </mxCell>
        <mxCell id="o5yhycOnRF4df_0xs7PU-581" value="" style="endArrow=none;html=1;rounded=0;strokeColor=#99CCFF;" edge="1" parent="1">
          <mxGeometry width="50" height="50" relative="1" as="geometry">
            <mxPoint x="490" y="380.02" as="sourcePoint" />
            <mxPoint x="490" y="400.02" as="targetPoint" />
          </mxGeometry>
        </mxCell>
        <mxCell id="o5yhycOnRF4df_0xs7PU-906" value="" style="endArrow=none;html=1;rounded=0;strokeColor=#99CCFF;" edge="1" parent="1">
          <mxGeometry width="50" height="50" relative="1" as="geometry">
            <mxPoint x="440" y="389.99999999999994" as="sourcePoint" />
            <mxPoint x="460" y="389.99999999999994" as="targetPoint" />
          </mxGeometry>
        </mxCell>
        <mxCell id="o5yhycOnRF4df_0xs7PU-907" value="" style="endArrow=none;html=1;rounded=0;strokeColor=#99CCFF;" edge="1" parent="1">
          <mxGeometry width="50" height="50" relative="1" as="geometry">
            <mxPoint x="450" y="380.02" as="sourcePoint" />
            <mxPoint x="450" y="400.02" as="targetPoint" />
          </mxGeometry>
        </mxCell>
        <mxCell id="o5yhycOnRF4df_0xs7PU-908" value="" style="endArrow=none;html=1;rounded=0;strokeColor=#99CCFF;" edge="1" parent="1">
          <mxGeometry width="50" height="50" relative="1" as="geometry">
            <mxPoint x="460" y="369.97999999999996" as="sourcePoint" />
            <mxPoint x="480" y="369.97999999999996" as="targetPoint" />
          </mxGeometry>
        </mxCell>
        <mxCell id="o5yhycOnRF4df_0xs7PU-909" value="" style="endArrow=none;html=1;rounded=0;strokeColor=#99CCFF;" edge="1" parent="1">
          <mxGeometry width="50" height="50" relative="1" as="geometry">
            <mxPoint x="470" y="360" as="sourcePoint" />
            <mxPoint x="470" y="380" as="targetPoint" />
          </mxGeometry>
        </mxCell>
        <mxCell id="o5yhycOnRF4df_0xs7PU-910" value="" style="endArrow=none;html=1;rounded=0;strokeColor=#99CCFF;" edge="1" parent="1">
          <mxGeometry width="50" height="50" relative="1" as="geometry">
            <mxPoint x="460" y="409.97999999999996" as="sourcePoint" />
            <mxPoint x="480" y="409.97999999999996" as="targetPoint" />
          </mxGeometry>
        </mxCell>
        <mxCell id="o5yhycOnRF4df_0xs7PU-911" value="" style="endArrow=none;html=1;rounded=0;strokeColor=#99CCFF;" edge="1" parent="1">
          <mxGeometry width="50" height="50" relative="1" as="geometry">
            <mxPoint x="470" y="400" as="sourcePoint" />
            <mxPoint x="470" y="420" as="targetPoint" />
          </mxGeometry>
        </mxCell>
        <mxCell id="o5yhycOnRF4df_0xs7PU-912" value="" style="endArrow=none;html=1;rounded=0;edgeStyle=orthogonalEdgeStyle;strokeColor=#99CCFF;endFill=0;curved=1;" edge="1" parent="1">
          <mxGeometry width="50" height="50" relative="1" as="geometry">
            <mxPoint x="460" y="410.02" as="sourcePoint" />
            <mxPoint x="470" y="400.02" as="targetPoint" />
          </mxGeometry>
        </mxCell>
        <mxCell id="o5yhycOnRF4df_0xs7PU-913" value="" style="endArrow=none;html=1;rounded=0;edgeStyle=orthogonalEdgeStyle;strokeColor=#99CCFF;endFill=0;curved=1;" edge="1" parent="1">
          <mxGeometry width="50" height="50" relative="1" as="geometry">
            <mxPoint x="480" y="410" as="sourcePoint" />
            <mxPoint x="470" y="400" as="targetPoint" />
          </mxGeometry>
        </mxCell>
        <mxCell id="o5yhycOnRF4df_0xs7PU-914" value="" style="endArrow=none;html=1;rounded=0;edgeStyle=orthogonalEdgeStyle;strokeColor=#99CCFF;endFill=0;curved=1;" edge="1" parent="1">
          <mxGeometry width="50" height="50" relative="1" as="geometry">
            <mxPoint x="460" y="390" as="sourcePoint" />
            <mxPoint x="450" y="380" as="targetPoint" />
          </mxGeometry>
        </mxCell>
        <mxCell id="o5yhycOnRF4df_0xs7PU-915" value="" style="endArrow=none;html=1;rounded=0;strokeColor=#99CCFF;" edge="1" parent="1">
          <mxGeometry width="50" height="50" relative="1" as="geometry">
            <mxPoint x="450" y="380" as="sourcePoint" />
            <mxPoint x="450" y="400" as="targetPoint" />
          </mxGeometry>
        </mxCell>
        <mxCell id="o5yhycOnRF4df_0xs7PU-916" value="" style="endArrow=none;html=1;rounded=0;edgeStyle=orthogonalEdgeStyle;strokeColor=#99CCFF;endFill=0;curved=1;" edge="1" parent="1">
          <mxGeometry width="50" height="50" relative="1" as="geometry">
            <mxPoint x="460" y="370.02" as="sourcePoint" />
            <mxPoint x="470" y="380.02" as="targetPoint" />
          </mxGeometry>
        </mxCell>
        <mxCell id="o5yhycOnRF4df_0xs7PU-917" value="" style="endArrow=none;html=1;rounded=0;edgeStyle=orthogonalEdgeStyle;strokeColor=#99CCFF;endFill=0;curved=1;" edge="1" parent="1">
          <mxGeometry width="50" height="50" relative="1" as="geometry">
            <mxPoint x="480" y="370.01" as="sourcePoint" />
            <mxPoint x="470" y="380.01" as="targetPoint" />
          </mxGeometry>
        </mxCell>
        <mxCell id="o5yhycOnRF4df_0xs7PU-918" value="" style="endArrow=none;html=1;rounded=0;edgeStyle=orthogonalEdgeStyle;strokeColor=#99CCFF;endFill=0;curved=1;" edge="1" parent="1">
          <mxGeometry width="50" height="50" relative="1" as="geometry">
            <mxPoint x="460" y="390.02" as="sourcePoint" />
            <mxPoint x="450" y="400.02" as="targetPoint" />
          </mxGeometry>
        </mxCell>
        <mxCell id="o5yhycOnRF4df_0xs7PU-2" value="" style="ellipse;whiteSpace=wrap;html=1;aspect=fixed;fillColor=none;strokeColor=#99CCFF;container=0;" vertex="1" parent="1">
          <mxGeometry x="425" y="325.01" width="10" height="10" as="geometry" />
        </mxCell>
        <mxCell id="o5yhycOnRF4df_0xs7PU-3" value="" style="endArrow=none;html=1;rounded=0;edgeStyle=orthogonalEdgeStyle;strokeColor=#99CCFF;endFill=0;curved=1;" edge="1" parent="1">
          <mxGeometry width="50" height="50" relative="1" as="geometry">
            <mxPoint x="420" y="330.01" as="sourcePoint" />
            <mxPoint x="430" y="340.01" as="targetPoint" />
          </mxGeometry>
        </mxCell>
        <mxCell id="o5yhycOnRF4df_0xs7PU-5" value="" style="endArrow=none;html=1;rounded=0;edgeStyle=orthogonalEdgeStyle;strokeColor=#99CCFF;endFill=0;curved=1;" edge="1" parent="1">
          <mxGeometry width="50" height="50" relative="1" as="geometry">
            <mxPoint x="440" y="330" as="sourcePoint" />
            <mxPoint x="430" y="320" as="targetPoint" />
          </mxGeometry>
        </mxCell>
        <mxCell id="o5yhycOnRF4df_0xs7PU-6" value="" style="endArrow=none;html=1;rounded=0;edgeStyle=orthogonalEdgeStyle;strokeColor=#99CCFF;endFill=0;curved=1;" edge="1" parent="1">
          <mxGeometry width="50" height="50" relative="1" as="geometry">
            <mxPoint x="440" y="330.01" as="sourcePoint" />
            <mxPoint x="430" y="340.01" as="targetPoint" />
          </mxGeometry>
        </mxCell>
        <mxCell id="o5yhycOnRF4df_0xs7PU-7" value="" style="endArrow=none;html=1;rounded=0;edgeStyle=orthogonalEdgeStyle;strokeColor=#99CCFF;endFill=0;curved=1;" edge="1" parent="1">
          <mxGeometry width="50" height="50" relative="1" as="geometry">
            <mxPoint x="420" y="330.01" as="sourcePoint" />
            <mxPoint x="430" y="320.01" as="targetPoint" />
          </mxGeometry>
        </mxCell>
        <mxCell id="o5yhycOnRF4df_0xs7PU-8" value="" style="endArrow=none;html=1;rounded=0;strokeColor=#99CCFF;" edge="1" parent="1">
          <mxGeometry width="50" height="50" relative="1" as="geometry">
            <mxPoint x="420" y="329.84" as="sourcePoint" />
            <mxPoint x="440" y="329.84" as="targetPoint" />
          </mxGeometry>
        </mxCell>
        <mxCell id="o5yhycOnRF4df_0xs7PU-9" value="" style="endArrow=none;html=1;rounded=0;strokeColor=#99CCFF;" edge="1" parent="1">
          <mxGeometry width="50" height="50" relative="1" as="geometry">
            <mxPoint x="429.83" y="320.01" as="sourcePoint" />
            <mxPoint x="429.83" y="340.01" as="targetPoint" />
          </mxGeometry>
        </mxCell>
        <mxCell id="o5yhycOnRF4df_0xs7PU-12" value="" style="ellipse;whiteSpace=wrap;html=1;aspect=fixed;fillColor=none;strokeColor=#99CCFF;container=0;" vertex="1" parent="1">
          <mxGeometry x="425" y="345.02" width="10" height="10" as="geometry" />
        </mxCell>
        <mxCell id="o5yhycOnRF4df_0xs7PU-13" value="" style="endArrow=none;html=1;rounded=0;edgeStyle=orthogonalEdgeStyle;strokeColor=#99CCFF;endFill=0;curved=1;" edge="1" parent="1">
          <mxGeometry width="50" height="50" relative="1" as="geometry">
            <mxPoint x="420" y="350.02" as="sourcePoint" />
            <mxPoint x="430" y="360.02" as="targetPoint" />
          </mxGeometry>
        </mxCell>
        <mxCell id="o5yhycOnRF4df_0xs7PU-14" value="" style="endArrow=none;html=1;rounded=0;edgeStyle=orthogonalEdgeStyle;strokeColor=#99CCFF;endFill=0;curved=1;" edge="1" parent="1">
          <mxGeometry width="50" height="50" relative="1" as="geometry">
            <mxPoint x="440" y="350.01" as="sourcePoint" />
            <mxPoint x="430" y="340.01" as="targetPoint" />
          </mxGeometry>
        </mxCell>
        <mxCell id="o5yhycOnRF4df_0xs7PU-15" value="" style="endArrow=none;html=1;rounded=0;edgeStyle=orthogonalEdgeStyle;strokeColor=#99CCFF;endFill=0;curved=1;" edge="1" parent="1">
          <mxGeometry width="50" height="50" relative="1" as="geometry">
            <mxPoint x="440" y="350.02" as="sourcePoint" />
            <mxPoint x="430" y="360.02" as="targetPoint" />
          </mxGeometry>
        </mxCell>
        <mxCell id="o5yhycOnRF4df_0xs7PU-16" value="" style="endArrow=none;html=1;rounded=0;edgeStyle=orthogonalEdgeStyle;strokeColor=#99CCFF;endFill=0;curved=1;" edge="1" parent="1">
          <mxGeometry width="50" height="50" relative="1" as="geometry">
            <mxPoint x="420" y="350.02" as="sourcePoint" />
            <mxPoint x="430" y="340.02" as="targetPoint" />
          </mxGeometry>
        </mxCell>
        <mxCell id="o5yhycOnRF4df_0xs7PU-17" value="" style="endArrow=none;html=1;rounded=0;strokeColor=#99CCFF;" edge="1" parent="1">
          <mxGeometry width="50" height="50" relative="1" as="geometry">
            <mxPoint x="420" y="349.84999999999997" as="sourcePoint" />
            <mxPoint x="440" y="349.84999999999997" as="targetPoint" />
          </mxGeometry>
        </mxCell>
        <mxCell id="o5yhycOnRF4df_0xs7PU-18" value="" style="endArrow=none;html=1;rounded=0;strokeColor=#99CCFF;" edge="1" parent="1">
          <mxGeometry width="50" height="50" relative="1" as="geometry">
            <mxPoint x="429.83" y="340.02" as="sourcePoint" />
            <mxPoint x="429.83" y="360.02" as="targetPoint" />
          </mxGeometry>
        </mxCell>
        <mxCell id="o5yhycOnRF4df_0xs7PU-20" value="" style="ellipse;whiteSpace=wrap;html=1;aspect=fixed;fillColor=none;strokeColor=#99CCFF;container=0;" vertex="1" parent="1">
          <mxGeometry x="445" y="325.01" width="10" height="10" as="geometry" />
        </mxCell>
        <mxCell id="o5yhycOnRF4df_0xs7PU-21" value="" style="endArrow=none;html=1;rounded=0;edgeStyle=orthogonalEdgeStyle;strokeColor=#99CCFF;endFill=0;curved=1;" edge="1" parent="1">
          <mxGeometry width="50" height="50" relative="1" as="geometry">
            <mxPoint x="440" y="330.01" as="sourcePoint" />
            <mxPoint x="450" y="340.01" as="targetPoint" />
          </mxGeometry>
        </mxCell>
        <mxCell id="o5yhycOnRF4df_0xs7PU-22" value="" style="endArrow=none;html=1;rounded=0;edgeStyle=orthogonalEdgeStyle;strokeColor=#99CCFF;endFill=0;curved=1;" edge="1" parent="1">
          <mxGeometry width="50" height="50" relative="1" as="geometry">
            <mxPoint x="460" y="330" as="sourcePoint" />
            <mxPoint x="450" y="320" as="targetPoint" />
          </mxGeometry>
        </mxCell>
        <mxCell id="o5yhycOnRF4df_0xs7PU-23" value="" style="endArrow=none;html=1;rounded=0;edgeStyle=orthogonalEdgeStyle;strokeColor=#99CCFF;endFill=0;curved=1;" edge="1" parent="1">
          <mxGeometry width="50" height="50" relative="1" as="geometry">
            <mxPoint x="460" y="330.01" as="sourcePoint" />
            <mxPoint x="450" y="340.01" as="targetPoint" />
          </mxGeometry>
        </mxCell>
        <mxCell id="o5yhycOnRF4df_0xs7PU-24" value="" style="endArrow=none;html=1;rounded=0;edgeStyle=orthogonalEdgeStyle;strokeColor=#99CCFF;endFill=0;curved=1;" edge="1" parent="1">
          <mxGeometry width="50" height="50" relative="1" as="geometry">
            <mxPoint x="440" y="330.01" as="sourcePoint" />
            <mxPoint x="450" y="320.01" as="targetPoint" />
          </mxGeometry>
        </mxCell>
        <mxCell id="o5yhycOnRF4df_0xs7PU-25" value="" style="endArrow=none;html=1;rounded=0;strokeColor=#99CCFF;" edge="1" parent="1">
          <mxGeometry width="50" height="50" relative="1" as="geometry">
            <mxPoint x="440" y="329.84" as="sourcePoint" />
            <mxPoint x="460" y="329.84" as="targetPoint" />
          </mxGeometry>
        </mxCell>
        <mxCell id="o5yhycOnRF4df_0xs7PU-26" value="" style="endArrow=none;html=1;rounded=0;strokeColor=#99CCFF;" edge="1" parent="1">
          <mxGeometry width="50" height="50" relative="1" as="geometry">
            <mxPoint x="449.83" y="320.01" as="sourcePoint" />
            <mxPoint x="449.83" y="340.01" as="targetPoint" />
          </mxGeometry>
        </mxCell>
        <mxCell id="o5yhycOnRF4df_0xs7PU-28" value="" style="ellipse;whiteSpace=wrap;html=1;aspect=fixed;fillColor=none;strokeColor=#99CCFF;container=0;" vertex="1" parent="1">
          <mxGeometry x="445" y="345.02" width="10" height="10" as="geometry" />
        </mxCell>
        <mxCell id="o5yhycOnRF4df_0xs7PU-29" value="" style="endArrow=none;html=1;rounded=0;edgeStyle=orthogonalEdgeStyle;strokeColor=#99CCFF;endFill=0;curved=1;" edge="1" parent="1">
          <mxGeometry width="50" height="50" relative="1" as="geometry">
            <mxPoint x="440" y="350.02" as="sourcePoint" />
            <mxPoint x="450" y="360.02" as="targetPoint" />
          </mxGeometry>
        </mxCell>
        <mxCell id="o5yhycOnRF4df_0xs7PU-30" value="" style="endArrow=none;html=1;rounded=0;edgeStyle=orthogonalEdgeStyle;strokeColor=#99CCFF;endFill=0;curved=1;" edge="1" parent="1">
          <mxGeometry width="50" height="50" relative="1" as="geometry">
            <mxPoint x="460" y="350.01" as="sourcePoint" />
            <mxPoint x="450" y="340.01" as="targetPoint" />
          </mxGeometry>
        </mxCell>
        <mxCell id="o5yhycOnRF4df_0xs7PU-31" value="" style="endArrow=none;html=1;rounded=0;edgeStyle=orthogonalEdgeStyle;strokeColor=#99CCFF;endFill=0;curved=1;" edge="1" parent="1">
          <mxGeometry width="50" height="50" relative="1" as="geometry">
            <mxPoint x="460" y="350.02" as="sourcePoint" />
            <mxPoint x="450" y="360.02" as="targetPoint" />
          </mxGeometry>
        </mxCell>
        <mxCell id="o5yhycOnRF4df_0xs7PU-32" value="" style="endArrow=none;html=1;rounded=0;edgeStyle=orthogonalEdgeStyle;strokeColor=#99CCFF;endFill=0;curved=1;" edge="1" parent="1">
          <mxGeometry width="50" height="50" relative="1" as="geometry">
            <mxPoint x="440" y="350.02" as="sourcePoint" />
            <mxPoint x="450" y="340.02" as="targetPoint" />
          </mxGeometry>
        </mxCell>
        <mxCell id="o5yhycOnRF4df_0xs7PU-33" value="" style="endArrow=none;html=1;rounded=0;strokeColor=#99CCFF;" edge="1" parent="1">
          <mxGeometry width="50" height="50" relative="1" as="geometry">
            <mxPoint x="440" y="349.84999999999997" as="sourcePoint" />
            <mxPoint x="460" y="349.84999999999997" as="targetPoint" />
          </mxGeometry>
        </mxCell>
        <mxCell id="o5yhycOnRF4df_0xs7PU-34" value="" style="endArrow=none;html=1;rounded=0;strokeColor=#99CCFF;" edge="1" parent="1">
          <mxGeometry width="50" height="50" relative="1" as="geometry">
            <mxPoint x="449.83" y="340.02" as="sourcePoint" />
            <mxPoint x="449.83" y="360.02" as="targetPoint" />
          </mxGeometry>
        </mxCell>
        <mxCell id="o5yhycOnRF4df_0xs7PU-36" value="" style="ellipse;whiteSpace=wrap;html=1;aspect=fixed;fillColor=none;strokeColor=#99CCFF;container=0;" vertex="1" parent="1">
          <mxGeometry x="465" y="325.01" width="10" height="10" as="geometry" />
        </mxCell>
        <mxCell id="o5yhycOnRF4df_0xs7PU-37" value="" style="endArrow=none;html=1;rounded=0;edgeStyle=orthogonalEdgeStyle;strokeColor=#99CCFF;endFill=0;curved=1;" edge="1" parent="1">
          <mxGeometry width="50" height="50" relative="1" as="geometry">
            <mxPoint x="460" y="330.01" as="sourcePoint" />
            <mxPoint x="470" y="340.01" as="targetPoint" />
          </mxGeometry>
        </mxCell>
        <mxCell id="o5yhycOnRF4df_0xs7PU-38" value="" style="endArrow=none;html=1;rounded=0;edgeStyle=orthogonalEdgeStyle;strokeColor=#99CCFF;endFill=0;curved=1;" edge="1" parent="1">
          <mxGeometry width="50" height="50" relative="1" as="geometry">
            <mxPoint x="480" y="330" as="sourcePoint" />
            <mxPoint x="470" y="320" as="targetPoint" />
          </mxGeometry>
        </mxCell>
        <mxCell id="o5yhycOnRF4df_0xs7PU-39" value="" style="endArrow=none;html=1;rounded=0;edgeStyle=orthogonalEdgeStyle;strokeColor=#99CCFF;endFill=0;curved=1;" edge="1" parent="1">
          <mxGeometry width="50" height="50" relative="1" as="geometry">
            <mxPoint x="480" y="330.01" as="sourcePoint" />
            <mxPoint x="470" y="340.01" as="targetPoint" />
          </mxGeometry>
        </mxCell>
        <mxCell id="o5yhycOnRF4df_0xs7PU-40" value="" style="endArrow=none;html=1;rounded=0;edgeStyle=orthogonalEdgeStyle;strokeColor=#99CCFF;endFill=0;curved=1;" edge="1" parent="1">
          <mxGeometry width="50" height="50" relative="1" as="geometry">
            <mxPoint x="460" y="330.01" as="sourcePoint" />
            <mxPoint x="470" y="320.01" as="targetPoint" />
          </mxGeometry>
        </mxCell>
        <mxCell id="o5yhycOnRF4df_0xs7PU-41" value="" style="endArrow=none;html=1;rounded=0;strokeColor=#99CCFF;" edge="1" parent="1">
          <mxGeometry width="50" height="50" relative="1" as="geometry">
            <mxPoint x="460" y="329.84" as="sourcePoint" />
            <mxPoint x="480" y="329.84" as="targetPoint" />
          </mxGeometry>
        </mxCell>
        <mxCell id="o5yhycOnRF4df_0xs7PU-42" value="" style="endArrow=none;html=1;rounded=0;strokeColor=#99CCFF;" edge="1" parent="1">
          <mxGeometry width="50" height="50" relative="1" as="geometry">
            <mxPoint x="469.83" y="320.01" as="sourcePoint" />
            <mxPoint x="469.83" y="340.01" as="targetPoint" />
          </mxGeometry>
        </mxCell>
        <mxCell id="o5yhycOnRF4df_0xs7PU-44" value="" style="ellipse;whiteSpace=wrap;html=1;aspect=fixed;fillColor=none;strokeColor=#99CCFF;container=0;" vertex="1" parent="1">
          <mxGeometry x="465" y="345.02" width="10" height="10" as="geometry" />
        </mxCell>
        <mxCell id="o5yhycOnRF4df_0xs7PU-45" value="" style="endArrow=none;html=1;rounded=0;edgeStyle=orthogonalEdgeStyle;strokeColor=#99CCFF;endFill=0;curved=1;" edge="1" parent="1">
          <mxGeometry width="50" height="50" relative="1" as="geometry">
            <mxPoint x="460" y="350.02" as="sourcePoint" />
            <mxPoint x="470" y="360.02" as="targetPoint" />
          </mxGeometry>
        </mxCell>
        <mxCell id="o5yhycOnRF4df_0xs7PU-46" value="" style="endArrow=none;html=1;rounded=0;edgeStyle=orthogonalEdgeStyle;strokeColor=#99CCFF;endFill=0;curved=1;" edge="1" parent="1">
          <mxGeometry width="50" height="50" relative="1" as="geometry">
            <mxPoint x="480" y="350.01" as="sourcePoint" />
            <mxPoint x="470" y="340.01" as="targetPoint" />
          </mxGeometry>
        </mxCell>
        <mxCell id="o5yhycOnRF4df_0xs7PU-47" value="" style="endArrow=none;html=1;rounded=0;edgeStyle=orthogonalEdgeStyle;strokeColor=#99CCFF;endFill=0;curved=1;" edge="1" parent="1">
          <mxGeometry width="50" height="50" relative="1" as="geometry">
            <mxPoint x="480" y="350.02" as="sourcePoint" />
            <mxPoint x="470" y="360.02" as="targetPoint" />
          </mxGeometry>
        </mxCell>
        <mxCell id="o5yhycOnRF4df_0xs7PU-48" value="" style="endArrow=none;html=1;rounded=0;edgeStyle=orthogonalEdgeStyle;strokeColor=#99CCFF;endFill=0;curved=1;" edge="1" parent="1">
          <mxGeometry width="50" height="50" relative="1" as="geometry">
            <mxPoint x="460" y="350.02" as="sourcePoint" />
            <mxPoint x="470" y="340.02" as="targetPoint" />
          </mxGeometry>
        </mxCell>
        <mxCell id="o5yhycOnRF4df_0xs7PU-49" value="" style="endArrow=none;html=1;rounded=0;strokeColor=#99CCFF;" edge="1" parent="1">
          <mxGeometry width="50" height="50" relative="1" as="geometry">
            <mxPoint x="460" y="349.84999999999997" as="sourcePoint" />
            <mxPoint x="480" y="349.84999999999997" as="targetPoint" />
          </mxGeometry>
        </mxCell>
        <mxCell id="o5yhycOnRF4df_0xs7PU-50" value="" style="endArrow=none;html=1;rounded=0;strokeColor=#99CCFF;" edge="1" parent="1">
          <mxGeometry width="50" height="50" relative="1" as="geometry">
            <mxPoint x="469.83" y="340.02" as="sourcePoint" />
            <mxPoint x="469.83" y="360.02" as="targetPoint" />
          </mxGeometry>
        </mxCell>
        <mxCell id="o5yhycOnRF4df_0xs7PU-52" value="" style="ellipse;whiteSpace=wrap;html=1;aspect=fixed;fillColor=none;strokeColor=#99CCFF;container=0;" vertex="1" parent="1">
          <mxGeometry x="485" y="325.01" width="10" height="10" as="geometry" />
        </mxCell>
        <mxCell id="o5yhycOnRF4df_0xs7PU-53" value="" style="endArrow=none;html=1;rounded=0;edgeStyle=orthogonalEdgeStyle;strokeColor=#99CCFF;endFill=0;curved=1;" edge="1" parent="1">
          <mxGeometry width="50" height="50" relative="1" as="geometry">
            <mxPoint x="480" y="330.01" as="sourcePoint" />
            <mxPoint x="490" y="340.01" as="targetPoint" />
          </mxGeometry>
        </mxCell>
        <mxCell id="o5yhycOnRF4df_0xs7PU-54" value="" style="endArrow=none;html=1;rounded=0;edgeStyle=orthogonalEdgeStyle;strokeColor=#99CCFF;endFill=0;curved=1;" edge="1" parent="1">
          <mxGeometry width="50" height="50" relative="1" as="geometry">
            <mxPoint x="500" y="330" as="sourcePoint" />
            <mxPoint x="490" y="320" as="targetPoint" />
          </mxGeometry>
        </mxCell>
        <mxCell id="o5yhycOnRF4df_0xs7PU-55" value="" style="endArrow=none;html=1;rounded=0;edgeStyle=orthogonalEdgeStyle;strokeColor=#99CCFF;endFill=0;curved=1;" edge="1" parent="1">
          <mxGeometry width="50" height="50" relative="1" as="geometry">
            <mxPoint x="500" y="330.01" as="sourcePoint" />
            <mxPoint x="490" y="340.01" as="targetPoint" />
          </mxGeometry>
        </mxCell>
        <mxCell id="o5yhycOnRF4df_0xs7PU-56" value="" style="endArrow=none;html=1;rounded=0;edgeStyle=orthogonalEdgeStyle;strokeColor=#99CCFF;endFill=0;curved=1;" edge="1" parent="1">
          <mxGeometry width="50" height="50" relative="1" as="geometry">
            <mxPoint x="480" y="330.01" as="sourcePoint" />
            <mxPoint x="490" y="320.01" as="targetPoint" />
          </mxGeometry>
        </mxCell>
        <mxCell id="o5yhycOnRF4df_0xs7PU-57" value="" style="endArrow=none;html=1;rounded=0;strokeColor=#99CCFF;" edge="1" parent="1">
          <mxGeometry width="50" height="50" relative="1" as="geometry">
            <mxPoint x="480" y="329.84" as="sourcePoint" />
            <mxPoint x="500" y="329.84" as="targetPoint" />
          </mxGeometry>
        </mxCell>
        <mxCell id="o5yhycOnRF4df_0xs7PU-58" value="" style="endArrow=none;html=1;rounded=0;strokeColor=#99CCFF;" edge="1" parent="1">
          <mxGeometry width="50" height="50" relative="1" as="geometry">
            <mxPoint x="489.83" y="320.01" as="sourcePoint" />
            <mxPoint x="489.83" y="340.01" as="targetPoint" />
          </mxGeometry>
        </mxCell>
        <mxCell id="o5yhycOnRF4df_0xs7PU-60" value="" style="ellipse;whiteSpace=wrap;html=1;aspect=fixed;fillColor=none;strokeColor=#99CCFF;container=0;" vertex="1" parent="1">
          <mxGeometry x="485" y="345.02" width="10" height="10" as="geometry" />
        </mxCell>
        <mxCell id="o5yhycOnRF4df_0xs7PU-61" value="" style="endArrow=none;html=1;rounded=0;edgeStyle=orthogonalEdgeStyle;strokeColor=#99CCFF;endFill=0;curved=1;" edge="1" parent="1">
          <mxGeometry width="50" height="50" relative="1" as="geometry">
            <mxPoint x="480" y="350.02" as="sourcePoint" />
            <mxPoint x="490" y="360.02" as="targetPoint" />
          </mxGeometry>
        </mxCell>
        <mxCell id="o5yhycOnRF4df_0xs7PU-62" value="" style="endArrow=none;html=1;rounded=0;edgeStyle=orthogonalEdgeStyle;strokeColor=#99CCFF;endFill=0;curved=1;" edge="1" parent="1">
          <mxGeometry width="50" height="50" relative="1" as="geometry">
            <mxPoint x="500" y="350.01" as="sourcePoint" />
            <mxPoint x="490" y="340.01" as="targetPoint" />
          </mxGeometry>
        </mxCell>
        <mxCell id="o5yhycOnRF4df_0xs7PU-63" value="" style="endArrow=none;html=1;rounded=0;edgeStyle=orthogonalEdgeStyle;strokeColor=#99CCFF;endFill=0;curved=1;" edge="1" parent="1">
          <mxGeometry width="50" height="50" relative="1" as="geometry">
            <mxPoint x="500" y="350.02" as="sourcePoint" />
            <mxPoint x="490" y="360.02" as="targetPoint" />
          </mxGeometry>
        </mxCell>
        <mxCell id="o5yhycOnRF4df_0xs7PU-64" value="" style="endArrow=none;html=1;rounded=0;edgeStyle=orthogonalEdgeStyle;strokeColor=#99CCFF;endFill=0;curved=1;" edge="1" parent="1">
          <mxGeometry width="50" height="50" relative="1" as="geometry">
            <mxPoint x="480" y="350.02" as="sourcePoint" />
            <mxPoint x="490" y="340.02" as="targetPoint" />
          </mxGeometry>
        </mxCell>
        <mxCell id="o5yhycOnRF4df_0xs7PU-65" value="" style="endArrow=none;html=1;rounded=0;strokeColor=#99CCFF;" edge="1" parent="1">
          <mxGeometry width="50" height="50" relative="1" as="geometry">
            <mxPoint x="480" y="349.84999999999997" as="sourcePoint" />
            <mxPoint x="500" y="349.84999999999997" as="targetPoint" />
          </mxGeometry>
        </mxCell>
        <mxCell id="o5yhycOnRF4df_0xs7PU-66" value="" style="endArrow=none;html=1;rounded=0;strokeColor=#99CCFF;" edge="1" parent="1">
          <mxGeometry width="50" height="50" relative="1" as="geometry">
            <mxPoint x="489.83" y="340.02" as="sourcePoint" />
            <mxPoint x="489.83" y="360.02" as="targetPoint" />
          </mxGeometry>
        </mxCell>
        <mxCell id="o5yhycOnRF4df_0xs7PU-68" value="" style="ellipse;whiteSpace=wrap;html=1;aspect=fixed;fillColor=none;strokeColor=#99CCFF;container=0;" vertex="1" parent="1">
          <mxGeometry x="505" y="325.01" width="10" height="10" as="geometry" />
        </mxCell>
        <mxCell id="o5yhycOnRF4df_0xs7PU-69" value="" style="endArrow=none;html=1;rounded=0;edgeStyle=orthogonalEdgeStyle;strokeColor=#99CCFF;endFill=0;curved=1;" edge="1" parent="1">
          <mxGeometry width="50" height="50" relative="1" as="geometry">
            <mxPoint x="500" y="330.01" as="sourcePoint" />
            <mxPoint x="510" y="340.01" as="targetPoint" />
          </mxGeometry>
        </mxCell>
        <mxCell id="o5yhycOnRF4df_0xs7PU-70" value="" style="endArrow=none;html=1;rounded=0;edgeStyle=orthogonalEdgeStyle;strokeColor=#99CCFF;endFill=0;curved=1;" edge="1" parent="1">
          <mxGeometry width="50" height="50" relative="1" as="geometry">
            <mxPoint x="520" y="330" as="sourcePoint" />
            <mxPoint x="510" y="320" as="targetPoint" />
          </mxGeometry>
        </mxCell>
        <mxCell id="o5yhycOnRF4df_0xs7PU-71" value="" style="endArrow=none;html=1;rounded=0;edgeStyle=orthogonalEdgeStyle;strokeColor=#99CCFF;endFill=0;curved=1;" edge="1" parent="1">
          <mxGeometry width="50" height="50" relative="1" as="geometry">
            <mxPoint x="520" y="330.01" as="sourcePoint" />
            <mxPoint x="510" y="340.01" as="targetPoint" />
          </mxGeometry>
        </mxCell>
        <mxCell id="o5yhycOnRF4df_0xs7PU-72" value="" style="endArrow=none;html=1;rounded=0;edgeStyle=orthogonalEdgeStyle;strokeColor=#99CCFF;endFill=0;curved=1;" edge="1" parent="1">
          <mxGeometry width="50" height="50" relative="1" as="geometry">
            <mxPoint x="500" y="330.01" as="sourcePoint" />
            <mxPoint x="510" y="320.01" as="targetPoint" />
          </mxGeometry>
        </mxCell>
        <mxCell id="o5yhycOnRF4df_0xs7PU-73" value="" style="endArrow=none;html=1;rounded=0;strokeColor=#99CCFF;" edge="1" parent="1">
          <mxGeometry width="50" height="50" relative="1" as="geometry">
            <mxPoint x="500" y="329.84" as="sourcePoint" />
            <mxPoint x="520" y="329.84" as="targetPoint" />
          </mxGeometry>
        </mxCell>
        <mxCell id="o5yhycOnRF4df_0xs7PU-74" value="" style="endArrow=none;html=1;rounded=0;strokeColor=#99CCFF;" edge="1" parent="1">
          <mxGeometry width="50" height="50" relative="1" as="geometry">
            <mxPoint x="509.83" y="320.01" as="sourcePoint" />
            <mxPoint x="509.83" y="340.01" as="targetPoint" />
          </mxGeometry>
        </mxCell>
        <mxCell id="o5yhycOnRF4df_0xs7PU-76" value="" style="ellipse;whiteSpace=wrap;html=1;aspect=fixed;fillColor=none;strokeColor=#99CCFF;container=0;" vertex="1" parent="1">
          <mxGeometry x="505" y="345.02" width="10" height="10" as="geometry" />
        </mxCell>
        <mxCell id="o5yhycOnRF4df_0xs7PU-77" value="" style="endArrow=none;html=1;rounded=0;edgeStyle=orthogonalEdgeStyle;strokeColor=#99CCFF;endFill=0;curved=1;" edge="1" parent="1">
          <mxGeometry width="50" height="50" relative="1" as="geometry">
            <mxPoint x="500" y="350.02" as="sourcePoint" />
            <mxPoint x="510" y="360.02" as="targetPoint" />
          </mxGeometry>
        </mxCell>
        <mxCell id="o5yhycOnRF4df_0xs7PU-78" value="" style="endArrow=none;html=1;rounded=0;edgeStyle=orthogonalEdgeStyle;strokeColor=#99CCFF;endFill=0;curved=1;" edge="1" parent="1">
          <mxGeometry width="50" height="50" relative="1" as="geometry">
            <mxPoint x="520" y="350.01" as="sourcePoint" />
            <mxPoint x="510" y="340.01" as="targetPoint" />
          </mxGeometry>
        </mxCell>
        <mxCell id="o5yhycOnRF4df_0xs7PU-79" value="" style="endArrow=none;html=1;rounded=0;edgeStyle=orthogonalEdgeStyle;strokeColor=#99CCFF;endFill=0;curved=1;" edge="1" parent="1">
          <mxGeometry width="50" height="50" relative="1" as="geometry">
            <mxPoint x="520" y="350.02" as="sourcePoint" />
            <mxPoint x="510" y="360.02" as="targetPoint" />
          </mxGeometry>
        </mxCell>
        <mxCell id="o5yhycOnRF4df_0xs7PU-80" value="" style="endArrow=none;html=1;rounded=0;edgeStyle=orthogonalEdgeStyle;strokeColor=#99CCFF;endFill=0;curved=1;" edge="1" parent="1">
          <mxGeometry width="50" height="50" relative="1" as="geometry">
            <mxPoint x="500" y="350.02" as="sourcePoint" />
            <mxPoint x="510" y="340.02" as="targetPoint" />
          </mxGeometry>
        </mxCell>
        <mxCell id="o5yhycOnRF4df_0xs7PU-81" value="" style="endArrow=none;html=1;rounded=0;strokeColor=#99CCFF;" edge="1" parent="1">
          <mxGeometry width="50" height="50" relative="1" as="geometry">
            <mxPoint x="500" y="349.84999999999997" as="sourcePoint" />
            <mxPoint x="520" y="349.84999999999997" as="targetPoint" />
          </mxGeometry>
        </mxCell>
        <mxCell id="o5yhycOnRF4df_0xs7PU-82" value="" style="endArrow=none;html=1;rounded=0;strokeColor=#99CCFF;" edge="1" parent="1">
          <mxGeometry width="50" height="50" relative="1" as="geometry">
            <mxPoint x="509.83" y="340.02" as="sourcePoint" />
            <mxPoint x="509.83" y="360.02" as="targetPoint" />
          </mxGeometry>
        </mxCell>
        <mxCell id="o5yhycOnRF4df_0xs7PU-84" value="" style="ellipse;whiteSpace=wrap;html=1;aspect=fixed;fillColor=none;strokeColor=#99CCFF;container=0;" vertex="1" parent="1">
          <mxGeometry x="525" y="325.01" width="10" height="10" as="geometry" />
        </mxCell>
        <mxCell id="o5yhycOnRF4df_0xs7PU-85" value="" style="endArrow=none;html=1;rounded=0;edgeStyle=orthogonalEdgeStyle;strokeColor=#99CCFF;endFill=0;curved=1;" edge="1" parent="1">
          <mxGeometry width="50" height="50" relative="1" as="geometry">
            <mxPoint x="520" y="330.01" as="sourcePoint" />
            <mxPoint x="530" y="340.01" as="targetPoint" />
          </mxGeometry>
        </mxCell>
        <mxCell id="o5yhycOnRF4df_0xs7PU-86" value="" style="endArrow=none;html=1;rounded=0;edgeStyle=orthogonalEdgeStyle;strokeColor=#99CCFF;endFill=0;curved=1;" edge="1" parent="1">
          <mxGeometry width="50" height="50" relative="1" as="geometry">
            <mxPoint x="540" y="330" as="sourcePoint" />
            <mxPoint x="530" y="320" as="targetPoint" />
          </mxGeometry>
        </mxCell>
        <mxCell id="o5yhycOnRF4df_0xs7PU-87" value="" style="endArrow=none;html=1;rounded=0;edgeStyle=orthogonalEdgeStyle;strokeColor=#99CCFF;endFill=0;curved=1;" edge="1" parent="1">
          <mxGeometry width="50" height="50" relative="1" as="geometry">
            <mxPoint x="540" y="330.01" as="sourcePoint" />
            <mxPoint x="530" y="340.01" as="targetPoint" />
          </mxGeometry>
        </mxCell>
        <mxCell id="o5yhycOnRF4df_0xs7PU-88" value="" style="endArrow=none;html=1;rounded=0;edgeStyle=orthogonalEdgeStyle;strokeColor=#99CCFF;endFill=0;curved=1;" edge="1" parent="1">
          <mxGeometry width="50" height="50" relative="1" as="geometry">
            <mxPoint x="520" y="330.01" as="sourcePoint" />
            <mxPoint x="530" y="320.01" as="targetPoint" />
          </mxGeometry>
        </mxCell>
        <mxCell id="o5yhycOnRF4df_0xs7PU-89" value="" style="endArrow=none;html=1;rounded=0;strokeColor=#99CCFF;" edge="1" parent="1">
          <mxGeometry width="50" height="50" relative="1" as="geometry">
            <mxPoint x="520" y="329.84" as="sourcePoint" />
            <mxPoint x="540" y="329.84" as="targetPoint" />
          </mxGeometry>
        </mxCell>
        <mxCell id="o5yhycOnRF4df_0xs7PU-90" value="" style="endArrow=none;html=1;rounded=0;strokeColor=#99CCFF;" edge="1" parent="1">
          <mxGeometry width="50" height="50" relative="1" as="geometry">
            <mxPoint x="529.8299999999999" y="320.01" as="sourcePoint" />
            <mxPoint x="529.8299999999999" y="340.01" as="targetPoint" />
          </mxGeometry>
        </mxCell>
        <mxCell id="o5yhycOnRF4df_0xs7PU-92" value="" style="ellipse;whiteSpace=wrap;html=1;aspect=fixed;fillColor=none;strokeColor=#99CCFF;container=0;" vertex="1" parent="1">
          <mxGeometry x="525" y="345.02" width="10" height="10" as="geometry" />
        </mxCell>
        <mxCell id="o5yhycOnRF4df_0xs7PU-93" value="" style="endArrow=none;html=1;rounded=0;edgeStyle=orthogonalEdgeStyle;strokeColor=#99CCFF;endFill=0;curved=1;" edge="1" parent="1">
          <mxGeometry width="50" height="50" relative="1" as="geometry">
            <mxPoint x="520" y="350.02" as="sourcePoint" />
            <mxPoint x="530" y="360.02" as="targetPoint" />
          </mxGeometry>
        </mxCell>
        <mxCell id="o5yhycOnRF4df_0xs7PU-94" value="" style="endArrow=none;html=1;rounded=0;edgeStyle=orthogonalEdgeStyle;strokeColor=#99CCFF;endFill=0;curved=1;" edge="1" parent="1">
          <mxGeometry width="50" height="50" relative="1" as="geometry">
            <mxPoint x="540" y="350.01" as="sourcePoint" />
            <mxPoint x="530" y="340.01" as="targetPoint" />
          </mxGeometry>
        </mxCell>
        <mxCell id="o5yhycOnRF4df_0xs7PU-95" value="" style="endArrow=none;html=1;rounded=0;edgeStyle=orthogonalEdgeStyle;strokeColor=#99CCFF;endFill=0;curved=1;" edge="1" parent="1">
          <mxGeometry width="50" height="50" relative="1" as="geometry">
            <mxPoint x="540" y="350.02" as="sourcePoint" />
            <mxPoint x="530" y="360.02" as="targetPoint" />
          </mxGeometry>
        </mxCell>
        <mxCell id="o5yhycOnRF4df_0xs7PU-96" value="" style="endArrow=none;html=1;rounded=0;edgeStyle=orthogonalEdgeStyle;strokeColor=#99CCFF;endFill=0;curved=1;" edge="1" parent="1">
          <mxGeometry width="50" height="50" relative="1" as="geometry">
            <mxPoint x="520" y="350.02" as="sourcePoint" />
            <mxPoint x="530" y="340.02" as="targetPoint" />
          </mxGeometry>
        </mxCell>
        <mxCell id="o5yhycOnRF4df_0xs7PU-97" value="" style="endArrow=none;html=1;rounded=0;strokeColor=#99CCFF;" edge="1" parent="1">
          <mxGeometry width="50" height="50" relative="1" as="geometry">
            <mxPoint x="520" y="349.84999999999997" as="sourcePoint" />
            <mxPoint x="540" y="349.84999999999997" as="targetPoint" />
          </mxGeometry>
        </mxCell>
        <mxCell id="o5yhycOnRF4df_0xs7PU-98" value="" style="endArrow=none;html=1;rounded=0;strokeColor=#99CCFF;" edge="1" parent="1">
          <mxGeometry width="50" height="50" relative="1" as="geometry">
            <mxPoint x="529.8299999999999" y="340.02" as="sourcePoint" />
            <mxPoint x="529.8299999999999" y="360.02" as="targetPoint" />
          </mxGeometry>
        </mxCell>
        <mxCell id="o5yhycOnRF4df_0xs7PU-100" value="" style="ellipse;whiteSpace=wrap;html=1;aspect=fixed;fillColor=none;strokeColor=#99CCFF;container=0;" vertex="1" parent="1">
          <mxGeometry x="545" y="325.01" width="10" height="10" as="geometry" />
        </mxCell>
        <mxCell id="o5yhycOnRF4df_0xs7PU-101" value="" style="endArrow=none;html=1;rounded=0;edgeStyle=orthogonalEdgeStyle;strokeColor=#99CCFF;endFill=0;curved=1;" edge="1" parent="1">
          <mxGeometry width="50" height="50" relative="1" as="geometry">
            <mxPoint x="540" y="330.01" as="sourcePoint" />
            <mxPoint x="550" y="340.01" as="targetPoint" />
          </mxGeometry>
        </mxCell>
        <mxCell id="o5yhycOnRF4df_0xs7PU-102" value="" style="endArrow=none;html=1;rounded=0;edgeStyle=orthogonalEdgeStyle;strokeColor=#99CCFF;endFill=0;curved=1;" edge="1" parent="1">
          <mxGeometry width="50" height="50" relative="1" as="geometry">
            <mxPoint x="560" y="330" as="sourcePoint" />
            <mxPoint x="550" y="320" as="targetPoint" />
          </mxGeometry>
        </mxCell>
        <mxCell id="o5yhycOnRF4df_0xs7PU-103" value="" style="endArrow=none;html=1;rounded=0;edgeStyle=orthogonalEdgeStyle;strokeColor=#99CCFF;endFill=0;curved=1;" edge="1" parent="1">
          <mxGeometry width="50" height="50" relative="1" as="geometry">
            <mxPoint x="560" y="330.01" as="sourcePoint" />
            <mxPoint x="550" y="340.01" as="targetPoint" />
          </mxGeometry>
        </mxCell>
        <mxCell id="o5yhycOnRF4df_0xs7PU-104" value="" style="endArrow=none;html=1;rounded=0;edgeStyle=orthogonalEdgeStyle;strokeColor=#99CCFF;endFill=0;curved=1;" edge="1" parent="1">
          <mxGeometry width="50" height="50" relative="1" as="geometry">
            <mxPoint x="540" y="330.01" as="sourcePoint" />
            <mxPoint x="550" y="320.01" as="targetPoint" />
          </mxGeometry>
        </mxCell>
        <mxCell id="o5yhycOnRF4df_0xs7PU-105" value="" style="endArrow=none;html=1;rounded=0;strokeColor=#99CCFF;" edge="1" parent="1">
          <mxGeometry width="50" height="50" relative="1" as="geometry">
            <mxPoint x="540" y="329.84" as="sourcePoint" />
            <mxPoint x="560" y="329.84" as="targetPoint" />
          </mxGeometry>
        </mxCell>
        <mxCell id="o5yhycOnRF4df_0xs7PU-106" value="" style="endArrow=none;html=1;rounded=0;strokeColor=#99CCFF;" edge="1" parent="1">
          <mxGeometry width="50" height="50" relative="1" as="geometry">
            <mxPoint x="549.8299999999999" y="320.01" as="sourcePoint" />
            <mxPoint x="549.8299999999999" y="340.01" as="targetPoint" />
          </mxGeometry>
        </mxCell>
        <mxCell id="o5yhycOnRF4df_0xs7PU-108" value="" style="ellipse;whiteSpace=wrap;html=1;aspect=fixed;fillColor=none;strokeColor=#99CCFF;container=0;" vertex="1" parent="1">
          <mxGeometry x="545" y="345.02" width="10" height="10" as="geometry" />
        </mxCell>
        <mxCell id="o5yhycOnRF4df_0xs7PU-109" value="" style="endArrow=none;html=1;rounded=0;edgeStyle=orthogonalEdgeStyle;strokeColor=#99CCFF;endFill=0;curved=1;" edge="1" parent="1">
          <mxGeometry width="50" height="50" relative="1" as="geometry">
            <mxPoint x="540" y="350.02" as="sourcePoint" />
            <mxPoint x="550" y="360.02" as="targetPoint" />
          </mxGeometry>
        </mxCell>
        <mxCell id="o5yhycOnRF4df_0xs7PU-110" value="" style="endArrow=none;html=1;rounded=0;edgeStyle=orthogonalEdgeStyle;strokeColor=#99CCFF;endFill=0;curved=1;" edge="1" parent="1">
          <mxGeometry width="50" height="50" relative="1" as="geometry">
            <mxPoint x="560" y="350.01" as="sourcePoint" />
            <mxPoint x="550" y="340.01" as="targetPoint" />
          </mxGeometry>
        </mxCell>
        <mxCell id="o5yhycOnRF4df_0xs7PU-111" value="" style="endArrow=none;html=1;rounded=0;edgeStyle=orthogonalEdgeStyle;strokeColor=#99CCFF;endFill=0;curved=1;" edge="1" parent="1">
          <mxGeometry width="50" height="50" relative="1" as="geometry">
            <mxPoint x="560" y="350.02" as="sourcePoint" />
            <mxPoint x="550" y="360.02" as="targetPoint" />
          </mxGeometry>
        </mxCell>
        <mxCell id="o5yhycOnRF4df_0xs7PU-112" value="" style="endArrow=none;html=1;rounded=0;edgeStyle=orthogonalEdgeStyle;strokeColor=#99CCFF;endFill=0;curved=1;" edge="1" parent="1">
          <mxGeometry width="50" height="50" relative="1" as="geometry">
            <mxPoint x="540" y="350.02" as="sourcePoint" />
            <mxPoint x="550" y="340.02" as="targetPoint" />
          </mxGeometry>
        </mxCell>
        <mxCell id="o5yhycOnRF4df_0xs7PU-113" value="" style="endArrow=none;html=1;rounded=0;strokeColor=#99CCFF;" edge="1" parent="1">
          <mxGeometry width="50" height="50" relative="1" as="geometry">
            <mxPoint x="540" y="349.84999999999997" as="sourcePoint" />
            <mxPoint x="560" y="349.84999999999997" as="targetPoint" />
          </mxGeometry>
        </mxCell>
        <mxCell id="o5yhycOnRF4df_0xs7PU-114" value="" style="endArrow=none;html=1;rounded=0;strokeColor=#99CCFF;" edge="1" parent="1">
          <mxGeometry width="50" height="50" relative="1" as="geometry">
            <mxPoint x="549.8299999999999" y="340.02" as="sourcePoint" />
            <mxPoint x="549.8299999999999" y="360.02" as="targetPoint" />
          </mxGeometry>
        </mxCell>
        <mxCell id="o5yhycOnRF4df_0xs7PU-116" value="" style="ellipse;whiteSpace=wrap;html=1;aspect=fixed;fillColor=none;strokeColor=#99CCFF;container=0;" vertex="1" parent="1">
          <mxGeometry x="565" y="325.01" width="10" height="10" as="geometry" />
        </mxCell>
        <mxCell id="o5yhycOnRF4df_0xs7PU-117" value="" style="endArrow=none;html=1;rounded=0;edgeStyle=orthogonalEdgeStyle;strokeColor=#99CCFF;endFill=0;curved=1;" edge="1" parent="1">
          <mxGeometry width="50" height="50" relative="1" as="geometry">
            <mxPoint x="560" y="330.01" as="sourcePoint" />
            <mxPoint x="570" y="340.01" as="targetPoint" />
          </mxGeometry>
        </mxCell>
        <mxCell id="o5yhycOnRF4df_0xs7PU-118" value="" style="endArrow=none;html=1;rounded=0;edgeStyle=orthogonalEdgeStyle;strokeColor=#99CCFF;endFill=0;curved=1;" edge="1" parent="1">
          <mxGeometry width="50" height="50" relative="1" as="geometry">
            <mxPoint x="580" y="330" as="sourcePoint" />
            <mxPoint x="570" y="320" as="targetPoint" />
          </mxGeometry>
        </mxCell>
        <mxCell id="o5yhycOnRF4df_0xs7PU-119" value="" style="endArrow=none;html=1;rounded=0;edgeStyle=orthogonalEdgeStyle;strokeColor=#99CCFF;endFill=0;curved=1;" edge="1" parent="1">
          <mxGeometry width="50" height="50" relative="1" as="geometry">
            <mxPoint x="580" y="330.01" as="sourcePoint" />
            <mxPoint x="570" y="340.01" as="targetPoint" />
          </mxGeometry>
        </mxCell>
        <mxCell id="o5yhycOnRF4df_0xs7PU-120" value="" style="endArrow=none;html=1;rounded=0;edgeStyle=orthogonalEdgeStyle;strokeColor=#99CCFF;endFill=0;curved=1;" edge="1" parent="1">
          <mxGeometry width="50" height="50" relative="1" as="geometry">
            <mxPoint x="560" y="330.01" as="sourcePoint" />
            <mxPoint x="570" y="320.01" as="targetPoint" />
          </mxGeometry>
        </mxCell>
        <mxCell id="o5yhycOnRF4df_0xs7PU-121" value="" style="endArrow=none;html=1;rounded=0;strokeColor=#99CCFF;" edge="1" parent="1">
          <mxGeometry width="50" height="50" relative="1" as="geometry">
            <mxPoint x="560" y="329.84" as="sourcePoint" />
            <mxPoint x="580" y="329.84" as="targetPoint" />
          </mxGeometry>
        </mxCell>
        <mxCell id="o5yhycOnRF4df_0xs7PU-122" value="" style="endArrow=none;html=1;rounded=0;strokeColor=#99CCFF;" edge="1" parent="1">
          <mxGeometry width="50" height="50" relative="1" as="geometry">
            <mxPoint x="569.8299999999999" y="320.01" as="sourcePoint" />
            <mxPoint x="569.8299999999999" y="340.01" as="targetPoint" />
          </mxGeometry>
        </mxCell>
        <mxCell id="o5yhycOnRF4df_0xs7PU-124" value="" style="ellipse;whiteSpace=wrap;html=1;aspect=fixed;fillColor=none;strokeColor=#99CCFF;container=0;" vertex="1" parent="1">
          <mxGeometry x="565" y="345.02" width="10" height="10" as="geometry" />
        </mxCell>
        <mxCell id="o5yhycOnRF4df_0xs7PU-125" value="" style="endArrow=none;html=1;rounded=0;edgeStyle=orthogonalEdgeStyle;strokeColor=#99CCFF;endFill=0;curved=1;" edge="1" parent="1">
          <mxGeometry width="50" height="50" relative="1" as="geometry">
            <mxPoint x="560" y="350.02" as="sourcePoint" />
            <mxPoint x="570" y="360.02" as="targetPoint" />
          </mxGeometry>
        </mxCell>
        <mxCell id="o5yhycOnRF4df_0xs7PU-126" value="" style="endArrow=none;html=1;rounded=0;edgeStyle=orthogonalEdgeStyle;strokeColor=#99CCFF;endFill=0;curved=1;" edge="1" parent="1">
          <mxGeometry width="50" height="50" relative="1" as="geometry">
            <mxPoint x="580" y="350.01" as="sourcePoint" />
            <mxPoint x="570" y="340.01" as="targetPoint" />
          </mxGeometry>
        </mxCell>
        <mxCell id="o5yhycOnRF4df_0xs7PU-127" value="" style="endArrow=none;html=1;rounded=0;edgeStyle=orthogonalEdgeStyle;strokeColor=#99CCFF;endFill=0;curved=1;" edge="1" parent="1">
          <mxGeometry width="50" height="50" relative="1" as="geometry">
            <mxPoint x="580" y="350.02" as="sourcePoint" />
            <mxPoint x="570" y="360.02" as="targetPoint" />
          </mxGeometry>
        </mxCell>
        <mxCell id="o5yhycOnRF4df_0xs7PU-128" value="" style="endArrow=none;html=1;rounded=0;edgeStyle=orthogonalEdgeStyle;strokeColor=#99CCFF;endFill=0;curved=1;" edge="1" parent="1">
          <mxGeometry width="50" height="50" relative="1" as="geometry">
            <mxPoint x="560" y="350.02" as="sourcePoint" />
            <mxPoint x="570" y="340.02" as="targetPoint" />
          </mxGeometry>
        </mxCell>
        <mxCell id="o5yhycOnRF4df_0xs7PU-129" value="" style="endArrow=none;html=1;rounded=0;strokeColor=#99CCFF;" edge="1" parent="1">
          <mxGeometry width="50" height="50" relative="1" as="geometry">
            <mxPoint x="560" y="349.84999999999997" as="sourcePoint" />
            <mxPoint x="580" y="349.84999999999997" as="targetPoint" />
          </mxGeometry>
        </mxCell>
        <mxCell id="o5yhycOnRF4df_0xs7PU-130" value="" style="endArrow=none;html=1;rounded=0;strokeColor=#99CCFF;" edge="1" parent="1">
          <mxGeometry width="50" height="50" relative="1" as="geometry">
            <mxPoint x="569.8299999999999" y="340.02" as="sourcePoint" />
            <mxPoint x="569.8299999999999" y="360.02" as="targetPoint" />
          </mxGeometry>
        </mxCell>
        <mxCell id="o5yhycOnRF4df_0xs7PU-519" value="" style="ellipse;whiteSpace=wrap;html=1;aspect=fixed;fillColor=none;strokeColor=#99CCFF;container=0;" vertex="1" parent="1">
          <mxGeometry x="425" y="365.01" width="10" height="10" as="geometry" />
        </mxCell>
        <mxCell id="o5yhycOnRF4df_0xs7PU-520" value="" style="endArrow=none;html=1;rounded=0;edgeStyle=orthogonalEdgeStyle;strokeColor=#99CCFF;endFill=0;curved=1;" edge="1" parent="1">
          <mxGeometry width="50" height="50" relative="1" as="geometry">
            <mxPoint x="420" y="370.01" as="sourcePoint" />
            <mxPoint x="430" y="380.01" as="targetPoint" />
          </mxGeometry>
        </mxCell>
        <mxCell id="o5yhycOnRF4df_0xs7PU-521" value="" style="endArrow=none;html=1;rounded=0;edgeStyle=orthogonalEdgeStyle;strokeColor=#99CCFF;endFill=0;curved=1;" edge="1" parent="1">
          <mxGeometry width="50" height="50" relative="1" as="geometry">
            <mxPoint x="440" y="370" as="sourcePoint" />
            <mxPoint x="430" y="360" as="targetPoint" />
          </mxGeometry>
        </mxCell>
        <mxCell id="o5yhycOnRF4df_0xs7PU-522" value="" style="endArrow=none;html=1;rounded=0;edgeStyle=orthogonalEdgeStyle;strokeColor=#99CCFF;endFill=0;curved=1;" edge="1" parent="1">
          <mxGeometry width="50" height="50" relative="1" as="geometry">
            <mxPoint x="440" y="370.01" as="sourcePoint" />
            <mxPoint x="430" y="380.01" as="targetPoint" />
          </mxGeometry>
        </mxCell>
        <mxCell id="o5yhycOnRF4df_0xs7PU-523" value="" style="endArrow=none;html=1;rounded=0;edgeStyle=orthogonalEdgeStyle;strokeColor=#99CCFF;endFill=0;curved=1;" edge="1" parent="1">
          <mxGeometry width="50" height="50" relative="1" as="geometry">
            <mxPoint x="420" y="370.01" as="sourcePoint" />
            <mxPoint x="430" y="360.01" as="targetPoint" />
          </mxGeometry>
        </mxCell>
        <mxCell id="o5yhycOnRF4df_0xs7PU-524" value="" style="endArrow=none;html=1;rounded=0;strokeColor=#99CCFF;" edge="1" parent="1">
          <mxGeometry width="50" height="50" relative="1" as="geometry">
            <mxPoint x="420" y="369.84" as="sourcePoint" />
            <mxPoint x="440" y="369.84" as="targetPoint" />
          </mxGeometry>
        </mxCell>
        <mxCell id="o5yhycOnRF4df_0xs7PU-525" value="" style="endArrow=none;html=1;rounded=0;strokeColor=#99CCFF;" edge="1" parent="1">
          <mxGeometry width="50" height="50" relative="1" as="geometry">
            <mxPoint x="429.83" y="360.01" as="sourcePoint" />
            <mxPoint x="429.83" y="380.01" as="targetPoint" />
          </mxGeometry>
        </mxCell>
        <mxCell id="o5yhycOnRF4df_0xs7PU-527" value="" style="ellipse;whiteSpace=wrap;html=1;aspect=fixed;fillColor=none;strokeColor=#99CCFF;container=0;" vertex="1" parent="1">
          <mxGeometry x="425" y="385.02" width="10" height="10" as="geometry" />
        </mxCell>
        <mxCell id="o5yhycOnRF4df_0xs7PU-528" value="" style="endArrow=none;html=1;rounded=0;edgeStyle=orthogonalEdgeStyle;strokeColor=#99CCFF;endFill=0;curved=1;" edge="1" parent="1">
          <mxGeometry width="50" height="50" relative="1" as="geometry">
            <mxPoint x="420" y="390.02" as="sourcePoint" />
            <mxPoint x="430" y="400.02" as="targetPoint" />
          </mxGeometry>
        </mxCell>
        <mxCell id="o5yhycOnRF4df_0xs7PU-529" value="" style="endArrow=none;html=1;rounded=0;edgeStyle=orthogonalEdgeStyle;strokeColor=#99CCFF;endFill=0;curved=1;" edge="1" parent="1">
          <mxGeometry width="50" height="50" relative="1" as="geometry">
            <mxPoint x="440" y="390.01" as="sourcePoint" />
            <mxPoint x="430" y="380.01" as="targetPoint" />
          </mxGeometry>
        </mxCell>
        <mxCell id="o5yhycOnRF4df_0xs7PU-530" value="" style="endArrow=none;html=1;rounded=0;edgeStyle=orthogonalEdgeStyle;strokeColor=#99CCFF;endFill=0;curved=1;" edge="1" parent="1">
          <mxGeometry width="50" height="50" relative="1" as="geometry">
            <mxPoint x="440" y="390.02" as="sourcePoint" />
            <mxPoint x="430" y="400.02" as="targetPoint" />
          </mxGeometry>
        </mxCell>
        <mxCell id="o5yhycOnRF4df_0xs7PU-531" value="" style="endArrow=none;html=1;rounded=0;edgeStyle=orthogonalEdgeStyle;strokeColor=#99CCFF;endFill=0;curved=1;" edge="1" parent="1">
          <mxGeometry width="50" height="50" relative="1" as="geometry">
            <mxPoint x="420" y="390.02" as="sourcePoint" />
            <mxPoint x="430" y="380.02" as="targetPoint" />
          </mxGeometry>
        </mxCell>
        <mxCell id="o5yhycOnRF4df_0xs7PU-532" value="" style="endArrow=none;html=1;rounded=0;strokeColor=#99CCFF;" edge="1" parent="1">
          <mxGeometry width="50" height="50" relative="1" as="geometry">
            <mxPoint x="420" y="389.84999999999997" as="sourcePoint" />
            <mxPoint x="440" y="389.84999999999997" as="targetPoint" />
          </mxGeometry>
        </mxCell>
        <mxCell id="o5yhycOnRF4df_0xs7PU-533" value="" style="endArrow=none;html=1;rounded=0;strokeColor=#99CCFF;" edge="1" parent="1">
          <mxGeometry width="50" height="50" relative="1" as="geometry">
            <mxPoint x="429.83" y="380.02" as="sourcePoint" />
            <mxPoint x="429.83" y="400.02" as="targetPoint" />
          </mxGeometry>
        </mxCell>
        <mxCell id="o5yhycOnRF4df_0xs7PU-535" value="" style="ellipse;whiteSpace=wrap;html=1;aspect=fixed;fillColor=none;strokeColor=#99CCFF;container=0;" vertex="1" parent="1">
          <mxGeometry x="445" y="365.01" width="10" height="10" as="geometry" />
        </mxCell>
        <mxCell id="o5yhycOnRF4df_0xs7PU-536" value="" style="endArrow=none;html=1;rounded=0;edgeStyle=orthogonalEdgeStyle;strokeColor=#99CCFF;endFill=0;curved=1;" edge="1" parent="1">
          <mxGeometry width="50" height="50" relative="1" as="geometry">
            <mxPoint x="440" y="370.01" as="sourcePoint" />
            <mxPoint x="450" y="380.01" as="targetPoint" />
          </mxGeometry>
        </mxCell>
        <mxCell id="o5yhycOnRF4df_0xs7PU-537" value="" style="endArrow=none;html=1;rounded=0;edgeStyle=orthogonalEdgeStyle;strokeColor=#99CCFF;endFill=0;curved=1;" edge="1" parent="1">
          <mxGeometry width="50" height="50" relative="1" as="geometry">
            <mxPoint x="460" y="370" as="sourcePoint" />
            <mxPoint x="450" y="360" as="targetPoint" />
          </mxGeometry>
        </mxCell>
        <mxCell id="o5yhycOnRF4df_0xs7PU-538" value="" style="endArrow=none;html=1;rounded=0;edgeStyle=orthogonalEdgeStyle;strokeColor=#99CCFF;endFill=0;curved=1;" edge="1" parent="1">
          <mxGeometry width="50" height="50" relative="1" as="geometry">
            <mxPoint x="460" y="370.01" as="sourcePoint" />
            <mxPoint x="450" y="380.01" as="targetPoint" />
          </mxGeometry>
        </mxCell>
        <mxCell id="o5yhycOnRF4df_0xs7PU-539" value="" style="endArrow=none;html=1;rounded=0;edgeStyle=orthogonalEdgeStyle;strokeColor=#99CCFF;endFill=0;curved=1;" edge="1" parent="1">
          <mxGeometry width="50" height="50" relative="1" as="geometry">
            <mxPoint x="440" y="370.01" as="sourcePoint" />
            <mxPoint x="450" y="360.01" as="targetPoint" />
          </mxGeometry>
        </mxCell>
        <mxCell id="o5yhycOnRF4df_0xs7PU-540" value="" style="endArrow=none;html=1;rounded=0;strokeColor=#99CCFF;" edge="1" parent="1">
          <mxGeometry width="50" height="50" relative="1" as="geometry">
            <mxPoint x="440" y="369.84" as="sourcePoint" />
            <mxPoint x="460" y="369.84" as="targetPoint" />
          </mxGeometry>
        </mxCell>
        <mxCell id="o5yhycOnRF4df_0xs7PU-541" value="" style="endArrow=none;html=1;rounded=0;strokeColor=#99CCFF;" edge="1" parent="1">
          <mxGeometry width="50" height="50" relative="1" as="geometry">
            <mxPoint x="449.83" y="360.01" as="sourcePoint" />
            <mxPoint x="449.83" y="380.01" as="targetPoint" />
          </mxGeometry>
        </mxCell>
        <mxCell id="o5yhycOnRF4df_0xs7PU-567" value="" style="ellipse;whiteSpace=wrap;html=1;aspect=fixed;fillColor=none;strokeColor=#99CCFF;container=0;" vertex="1" parent="1">
          <mxGeometry x="485" y="365.01" width="10" height="10" as="geometry" />
        </mxCell>
        <mxCell id="o5yhycOnRF4df_0xs7PU-568" value="" style="endArrow=none;html=1;rounded=0;edgeStyle=orthogonalEdgeStyle;strokeColor=#99CCFF;endFill=0;curved=1;" edge="1" parent="1">
          <mxGeometry width="50" height="50" relative="1" as="geometry">
            <mxPoint x="480" y="370.01" as="sourcePoint" />
            <mxPoint x="490" y="380.01" as="targetPoint" />
          </mxGeometry>
        </mxCell>
        <mxCell id="o5yhycOnRF4df_0xs7PU-569" value="" style="endArrow=none;html=1;rounded=0;edgeStyle=orthogonalEdgeStyle;strokeColor=#99CCFF;endFill=0;curved=1;" edge="1" parent="1">
          <mxGeometry width="50" height="50" relative="1" as="geometry">
            <mxPoint x="500" y="370" as="sourcePoint" />
            <mxPoint x="490" y="360" as="targetPoint" />
          </mxGeometry>
        </mxCell>
        <mxCell id="o5yhycOnRF4df_0xs7PU-570" value="" style="endArrow=none;html=1;rounded=0;edgeStyle=orthogonalEdgeStyle;strokeColor=#99CCFF;endFill=0;curved=1;" edge="1" parent="1">
          <mxGeometry width="50" height="50" relative="1" as="geometry">
            <mxPoint x="500" y="370.01" as="sourcePoint" />
            <mxPoint x="490" y="380.01" as="targetPoint" />
          </mxGeometry>
        </mxCell>
        <mxCell id="o5yhycOnRF4df_0xs7PU-571" value="" style="endArrow=none;html=1;rounded=0;edgeStyle=orthogonalEdgeStyle;strokeColor=#99CCFF;endFill=0;curved=1;" edge="1" parent="1">
          <mxGeometry width="50" height="50" relative="1" as="geometry">
            <mxPoint x="480" y="370.01" as="sourcePoint" />
            <mxPoint x="490" y="360.01" as="targetPoint" />
          </mxGeometry>
        </mxCell>
        <mxCell id="o5yhycOnRF4df_0xs7PU-572" value="" style="endArrow=none;html=1;rounded=0;strokeColor=#99CCFF;" edge="1" parent="1">
          <mxGeometry width="50" height="50" relative="1" as="geometry">
            <mxPoint x="480" y="369.84" as="sourcePoint" />
            <mxPoint x="500" y="369.84" as="targetPoint" />
          </mxGeometry>
        </mxCell>
        <mxCell id="o5yhycOnRF4df_0xs7PU-573" value="" style="endArrow=none;html=1;rounded=0;strokeColor=#99CCFF;" edge="1" parent="1">
          <mxGeometry width="50" height="50" relative="1" as="geometry">
            <mxPoint x="489.83" y="360.01" as="sourcePoint" />
            <mxPoint x="489.83" y="380.01" as="targetPoint" />
          </mxGeometry>
        </mxCell>
        <mxCell id="o5yhycOnRF4df_0xs7PU-583" value="" style="ellipse;whiteSpace=wrap;html=1;aspect=fixed;fillColor=none;strokeColor=#99CCFF;container=0;" vertex="1" parent="1">
          <mxGeometry x="505" y="365.01" width="10" height="10" as="geometry" />
        </mxCell>
        <mxCell id="o5yhycOnRF4df_0xs7PU-584" value="" style="endArrow=none;html=1;rounded=0;edgeStyle=orthogonalEdgeStyle;strokeColor=#99CCFF;endFill=0;curved=1;" edge="1" parent="1">
          <mxGeometry width="50" height="50" relative="1" as="geometry">
            <mxPoint x="500" y="370.01" as="sourcePoint" />
            <mxPoint x="510" y="380.01" as="targetPoint" />
          </mxGeometry>
        </mxCell>
        <mxCell id="o5yhycOnRF4df_0xs7PU-585" value="" style="endArrow=none;html=1;rounded=0;edgeStyle=orthogonalEdgeStyle;strokeColor=#99CCFF;endFill=0;curved=1;" edge="1" parent="1">
          <mxGeometry width="50" height="50" relative="1" as="geometry">
            <mxPoint x="520" y="370" as="sourcePoint" />
            <mxPoint x="510" y="360" as="targetPoint" />
          </mxGeometry>
        </mxCell>
        <mxCell id="o5yhycOnRF4df_0xs7PU-586" value="" style="endArrow=none;html=1;rounded=0;edgeStyle=orthogonalEdgeStyle;strokeColor=#99CCFF;endFill=0;curved=1;" edge="1" parent="1">
          <mxGeometry width="50" height="50" relative="1" as="geometry">
            <mxPoint x="520" y="370.01" as="sourcePoint" />
            <mxPoint x="510" y="380.01" as="targetPoint" />
          </mxGeometry>
        </mxCell>
        <mxCell id="o5yhycOnRF4df_0xs7PU-587" value="" style="endArrow=none;html=1;rounded=0;edgeStyle=orthogonalEdgeStyle;strokeColor=#99CCFF;endFill=0;curved=1;" edge="1" parent="1">
          <mxGeometry width="50" height="50" relative="1" as="geometry">
            <mxPoint x="500" y="370.01" as="sourcePoint" />
            <mxPoint x="510" y="360.01" as="targetPoint" />
          </mxGeometry>
        </mxCell>
        <mxCell id="o5yhycOnRF4df_0xs7PU-588" value="" style="endArrow=none;html=1;rounded=0;strokeColor=#99CCFF;" edge="1" parent="1">
          <mxGeometry width="50" height="50" relative="1" as="geometry">
            <mxPoint x="500" y="369.84" as="sourcePoint" />
            <mxPoint x="520" y="369.84" as="targetPoint" />
          </mxGeometry>
        </mxCell>
        <mxCell id="o5yhycOnRF4df_0xs7PU-589" value="" style="endArrow=none;html=1;rounded=0;strokeColor=#99CCFF;" edge="1" parent="1">
          <mxGeometry width="50" height="50" relative="1" as="geometry">
            <mxPoint x="509.83" y="360.01" as="sourcePoint" />
            <mxPoint x="509.83" y="380.01" as="targetPoint" />
          </mxGeometry>
        </mxCell>
        <mxCell id="o5yhycOnRF4df_0xs7PU-591" value="" style="ellipse;whiteSpace=wrap;html=1;aspect=fixed;fillColor=none;strokeColor=#99CCFF;container=0;" vertex="1" parent="1">
          <mxGeometry x="505" y="385.02" width="10" height="10" as="geometry" />
        </mxCell>
        <mxCell id="o5yhycOnRF4df_0xs7PU-592" value="" style="endArrow=none;html=1;rounded=0;edgeStyle=orthogonalEdgeStyle;strokeColor=#99CCFF;endFill=0;curved=1;" edge="1" parent="1">
          <mxGeometry width="50" height="50" relative="1" as="geometry">
            <mxPoint x="500" y="390.02" as="sourcePoint" />
            <mxPoint x="510" y="400.02" as="targetPoint" />
          </mxGeometry>
        </mxCell>
        <mxCell id="o5yhycOnRF4df_0xs7PU-593" value="" style="endArrow=none;html=1;rounded=0;edgeStyle=orthogonalEdgeStyle;strokeColor=#99CCFF;endFill=0;curved=1;" edge="1" parent="1">
          <mxGeometry width="50" height="50" relative="1" as="geometry">
            <mxPoint x="520" y="390.01" as="sourcePoint" />
            <mxPoint x="510" y="380.01" as="targetPoint" />
          </mxGeometry>
        </mxCell>
        <mxCell id="o5yhycOnRF4df_0xs7PU-594" value="" style="endArrow=none;html=1;rounded=0;edgeStyle=orthogonalEdgeStyle;strokeColor=#99CCFF;endFill=0;curved=1;" edge="1" parent="1">
          <mxGeometry width="50" height="50" relative="1" as="geometry">
            <mxPoint x="520" y="390.02" as="sourcePoint" />
            <mxPoint x="510" y="400.02" as="targetPoint" />
          </mxGeometry>
        </mxCell>
        <mxCell id="o5yhycOnRF4df_0xs7PU-595" value="" style="endArrow=none;html=1;rounded=0;edgeStyle=orthogonalEdgeStyle;strokeColor=#99CCFF;endFill=0;curved=1;" edge="1" parent="1">
          <mxGeometry width="50" height="50" relative="1" as="geometry">
            <mxPoint x="500" y="390.02" as="sourcePoint" />
            <mxPoint x="510" y="380.02" as="targetPoint" />
          </mxGeometry>
        </mxCell>
        <mxCell id="o5yhycOnRF4df_0xs7PU-596" value="" style="endArrow=none;html=1;rounded=0;strokeColor=#99CCFF;" edge="1" parent="1">
          <mxGeometry width="50" height="50" relative="1" as="geometry">
            <mxPoint x="500" y="389.84999999999997" as="sourcePoint" />
            <mxPoint x="520" y="389.84999999999997" as="targetPoint" />
          </mxGeometry>
        </mxCell>
        <mxCell id="o5yhycOnRF4df_0xs7PU-597" value="" style="endArrow=none;html=1;rounded=0;strokeColor=#99CCFF;" edge="1" parent="1">
          <mxGeometry width="50" height="50" relative="1" as="geometry">
            <mxPoint x="509.83" y="380.02" as="sourcePoint" />
            <mxPoint x="509.83" y="400.02" as="targetPoint" />
          </mxGeometry>
        </mxCell>
        <mxCell id="o5yhycOnRF4df_0xs7PU-599" value="" style="ellipse;whiteSpace=wrap;html=1;aspect=fixed;fillColor=none;strokeColor=#99CCFF;container=0;" vertex="1" parent="1">
          <mxGeometry x="525" y="385.02" width="10" height="10" as="geometry" />
        </mxCell>
        <mxCell id="o5yhycOnRF4df_0xs7PU-600" value="" style="endArrow=none;html=1;rounded=0;edgeStyle=orthogonalEdgeStyle;strokeColor=#99CCFF;endFill=0;curved=1;" edge="1" parent="1">
          <mxGeometry width="50" height="50" relative="1" as="geometry">
            <mxPoint x="520" y="390.02" as="sourcePoint" />
            <mxPoint x="530" y="400.02" as="targetPoint" />
          </mxGeometry>
        </mxCell>
        <mxCell id="o5yhycOnRF4df_0xs7PU-601" value="" style="endArrow=none;html=1;rounded=0;edgeStyle=orthogonalEdgeStyle;strokeColor=#99CCFF;endFill=0;curved=1;" edge="1" parent="1">
          <mxGeometry width="50" height="50" relative="1" as="geometry">
            <mxPoint x="540" y="390.01" as="sourcePoint" />
            <mxPoint x="530" y="380.01" as="targetPoint" />
          </mxGeometry>
        </mxCell>
        <mxCell id="o5yhycOnRF4df_0xs7PU-602" value="" style="endArrow=none;html=1;rounded=0;edgeStyle=orthogonalEdgeStyle;strokeColor=#99CCFF;endFill=0;curved=1;" edge="1" parent="1">
          <mxGeometry width="50" height="50" relative="1" as="geometry">
            <mxPoint x="540" y="390.02" as="sourcePoint" />
            <mxPoint x="530" y="400.02" as="targetPoint" />
          </mxGeometry>
        </mxCell>
        <mxCell id="o5yhycOnRF4df_0xs7PU-603" value="" style="endArrow=none;html=1;rounded=0;edgeStyle=orthogonalEdgeStyle;strokeColor=#99CCFF;endFill=0;curved=1;" edge="1" parent="1">
          <mxGeometry width="50" height="50" relative="1" as="geometry">
            <mxPoint x="520" y="390.02" as="sourcePoint" />
            <mxPoint x="530" y="380.02" as="targetPoint" />
          </mxGeometry>
        </mxCell>
        <mxCell id="o5yhycOnRF4df_0xs7PU-604" value="" style="endArrow=none;html=1;rounded=0;strokeColor=#99CCFF;" edge="1" parent="1">
          <mxGeometry width="50" height="50" relative="1" as="geometry">
            <mxPoint x="520" y="389.84999999999997" as="sourcePoint" />
            <mxPoint x="540" y="389.84999999999997" as="targetPoint" />
          </mxGeometry>
        </mxCell>
        <mxCell id="o5yhycOnRF4df_0xs7PU-605" value="" style="endArrow=none;html=1;rounded=0;strokeColor=#99CCFF;" edge="1" parent="1">
          <mxGeometry width="50" height="50" relative="1" as="geometry">
            <mxPoint x="529.8299999999999" y="380.02" as="sourcePoint" />
            <mxPoint x="529.8299999999999" y="400.02" as="targetPoint" />
          </mxGeometry>
        </mxCell>
        <mxCell id="o5yhycOnRF4df_0xs7PU-607" value="" style="ellipse;whiteSpace=wrap;html=1;aspect=fixed;fillColor=none;strokeColor=#99CCFF;container=0;" vertex="1" parent="1">
          <mxGeometry x="545" y="365.01" width="10" height="10" as="geometry" />
        </mxCell>
        <mxCell id="o5yhycOnRF4df_0xs7PU-608" value="" style="endArrow=none;html=1;rounded=0;edgeStyle=orthogonalEdgeStyle;strokeColor=#99CCFF;endFill=0;curved=1;" edge="1" parent="1">
          <mxGeometry width="50" height="50" relative="1" as="geometry">
            <mxPoint x="540" y="370.01" as="sourcePoint" />
            <mxPoint x="550" y="380.01" as="targetPoint" />
          </mxGeometry>
        </mxCell>
        <mxCell id="o5yhycOnRF4df_0xs7PU-609" value="" style="endArrow=none;html=1;rounded=0;edgeStyle=orthogonalEdgeStyle;strokeColor=#99CCFF;endFill=0;curved=1;" edge="1" parent="1">
          <mxGeometry width="50" height="50" relative="1" as="geometry">
            <mxPoint x="560" y="370" as="sourcePoint" />
            <mxPoint x="550" y="360" as="targetPoint" />
          </mxGeometry>
        </mxCell>
        <mxCell id="o5yhycOnRF4df_0xs7PU-610" value="" style="endArrow=none;html=1;rounded=0;edgeStyle=orthogonalEdgeStyle;strokeColor=#99CCFF;endFill=0;curved=1;" edge="1" parent="1">
          <mxGeometry width="50" height="50" relative="1" as="geometry">
            <mxPoint x="560" y="370.01" as="sourcePoint" />
            <mxPoint x="550" y="380.01" as="targetPoint" />
          </mxGeometry>
        </mxCell>
        <mxCell id="o5yhycOnRF4df_0xs7PU-611" value="" style="endArrow=none;html=1;rounded=0;edgeStyle=orthogonalEdgeStyle;strokeColor=#99CCFF;endFill=0;curved=1;" edge="1" parent="1">
          <mxGeometry width="50" height="50" relative="1" as="geometry">
            <mxPoint x="540" y="370.01" as="sourcePoint" />
            <mxPoint x="550" y="360.01" as="targetPoint" />
          </mxGeometry>
        </mxCell>
        <mxCell id="o5yhycOnRF4df_0xs7PU-612" value="" style="endArrow=none;html=1;rounded=0;strokeColor=#99CCFF;" edge="1" parent="1">
          <mxGeometry width="50" height="50" relative="1" as="geometry">
            <mxPoint x="540" y="369.84" as="sourcePoint" />
            <mxPoint x="560" y="369.84" as="targetPoint" />
          </mxGeometry>
        </mxCell>
        <mxCell id="o5yhycOnRF4df_0xs7PU-613" value="" style="endArrow=none;html=1;rounded=0;strokeColor=#99CCFF;" edge="1" parent="1">
          <mxGeometry width="50" height="50" relative="1" as="geometry">
            <mxPoint x="549.8299999999999" y="360.01" as="sourcePoint" />
            <mxPoint x="549.8299999999999" y="380.01" as="targetPoint" />
          </mxGeometry>
        </mxCell>
        <mxCell id="o5yhycOnRF4df_0xs7PU-615" value="" style="ellipse;whiteSpace=wrap;html=1;aspect=fixed;fillColor=none;strokeColor=#99CCFF;container=0;" vertex="1" parent="1">
          <mxGeometry x="545" y="385.02" width="10" height="10" as="geometry" />
        </mxCell>
        <mxCell id="o5yhycOnRF4df_0xs7PU-616" value="" style="endArrow=none;html=1;rounded=0;edgeStyle=orthogonalEdgeStyle;strokeColor=#99CCFF;endFill=0;curved=1;" edge="1" parent="1">
          <mxGeometry width="50" height="50" relative="1" as="geometry">
            <mxPoint x="540" y="390.02" as="sourcePoint" />
            <mxPoint x="550" y="400.02" as="targetPoint" />
          </mxGeometry>
        </mxCell>
        <mxCell id="o5yhycOnRF4df_0xs7PU-617" value="" style="endArrow=none;html=1;rounded=0;edgeStyle=orthogonalEdgeStyle;strokeColor=#99CCFF;endFill=0;curved=1;" edge="1" parent="1">
          <mxGeometry width="50" height="50" relative="1" as="geometry">
            <mxPoint x="560" y="390.01" as="sourcePoint" />
            <mxPoint x="550" y="380.01" as="targetPoint" />
          </mxGeometry>
        </mxCell>
        <mxCell id="o5yhycOnRF4df_0xs7PU-618" value="" style="endArrow=none;html=1;rounded=0;edgeStyle=orthogonalEdgeStyle;strokeColor=#99CCFF;endFill=0;curved=1;" edge="1" parent="1">
          <mxGeometry width="50" height="50" relative="1" as="geometry">
            <mxPoint x="560" y="390.02" as="sourcePoint" />
            <mxPoint x="550" y="400.02" as="targetPoint" />
          </mxGeometry>
        </mxCell>
        <mxCell id="o5yhycOnRF4df_0xs7PU-619" value="" style="endArrow=none;html=1;rounded=0;edgeStyle=orthogonalEdgeStyle;strokeColor=#99CCFF;endFill=0;curved=1;" edge="1" parent="1">
          <mxGeometry width="50" height="50" relative="1" as="geometry">
            <mxPoint x="540" y="390.02" as="sourcePoint" />
            <mxPoint x="550" y="380.02" as="targetPoint" />
          </mxGeometry>
        </mxCell>
        <mxCell id="o5yhycOnRF4df_0xs7PU-620" value="" style="endArrow=none;html=1;rounded=0;strokeColor=#99CCFF;" edge="1" parent="1">
          <mxGeometry width="50" height="50" relative="1" as="geometry">
            <mxPoint x="540" y="389.84999999999997" as="sourcePoint" />
            <mxPoint x="560" y="389.84999999999997" as="targetPoint" />
          </mxGeometry>
        </mxCell>
        <mxCell id="o5yhycOnRF4df_0xs7PU-621" value="" style="endArrow=none;html=1;rounded=0;strokeColor=#99CCFF;" edge="1" parent="1">
          <mxGeometry width="50" height="50" relative="1" as="geometry">
            <mxPoint x="549.8299999999999" y="380.02" as="sourcePoint" />
            <mxPoint x="549.8299999999999" y="400.02" as="targetPoint" />
          </mxGeometry>
        </mxCell>
        <mxCell id="o5yhycOnRF4df_0xs7PU-623" value="" style="ellipse;whiteSpace=wrap;html=1;aspect=fixed;fillColor=none;strokeColor=#99CCFF;container=0;" vertex="1" parent="1">
          <mxGeometry x="565" y="365.01" width="10" height="10" as="geometry" />
        </mxCell>
        <mxCell id="o5yhycOnRF4df_0xs7PU-624" value="" style="endArrow=none;html=1;rounded=0;edgeStyle=orthogonalEdgeStyle;strokeColor=#99CCFF;endFill=0;curved=1;" edge="1" parent="1">
          <mxGeometry width="50" height="50" relative="1" as="geometry">
            <mxPoint x="560" y="370.01" as="sourcePoint" />
            <mxPoint x="570" y="380.01" as="targetPoint" />
          </mxGeometry>
        </mxCell>
        <mxCell id="o5yhycOnRF4df_0xs7PU-625" value="" style="endArrow=none;html=1;rounded=0;edgeStyle=orthogonalEdgeStyle;strokeColor=#99CCFF;endFill=0;curved=1;" edge="1" parent="1">
          <mxGeometry width="50" height="50" relative="1" as="geometry">
            <mxPoint x="580" y="370" as="sourcePoint" />
            <mxPoint x="570" y="360" as="targetPoint" />
          </mxGeometry>
        </mxCell>
        <mxCell id="o5yhycOnRF4df_0xs7PU-626" value="" style="endArrow=none;html=1;rounded=0;edgeStyle=orthogonalEdgeStyle;strokeColor=#99CCFF;endFill=0;curved=1;" edge="1" parent="1">
          <mxGeometry width="50" height="50" relative="1" as="geometry">
            <mxPoint x="580" y="370.01" as="sourcePoint" />
            <mxPoint x="570" y="380.01" as="targetPoint" />
          </mxGeometry>
        </mxCell>
        <mxCell id="o5yhycOnRF4df_0xs7PU-627" value="" style="endArrow=none;html=1;rounded=0;edgeStyle=orthogonalEdgeStyle;strokeColor=#99CCFF;endFill=0;curved=1;" edge="1" parent="1">
          <mxGeometry width="50" height="50" relative="1" as="geometry">
            <mxPoint x="560" y="370.01" as="sourcePoint" />
            <mxPoint x="570" y="360.01" as="targetPoint" />
          </mxGeometry>
        </mxCell>
        <mxCell id="o5yhycOnRF4df_0xs7PU-628" value="" style="endArrow=none;html=1;rounded=0;strokeColor=#99CCFF;" edge="1" parent="1">
          <mxGeometry width="50" height="50" relative="1" as="geometry">
            <mxPoint x="560" y="369.84" as="sourcePoint" />
            <mxPoint x="580" y="369.84" as="targetPoint" />
          </mxGeometry>
        </mxCell>
        <mxCell id="o5yhycOnRF4df_0xs7PU-629" value="" style="endArrow=none;html=1;rounded=0;strokeColor=#99CCFF;" edge="1" parent="1">
          <mxGeometry width="50" height="50" relative="1" as="geometry">
            <mxPoint x="569.8299999999999" y="360.01" as="sourcePoint" />
            <mxPoint x="569.8299999999999" y="380.01" as="targetPoint" />
          </mxGeometry>
        </mxCell>
        <mxCell id="o5yhycOnRF4df_0xs7PU-631" value="" style="ellipse;whiteSpace=wrap;html=1;aspect=fixed;fillColor=none;strokeColor=#99CCFF;container=0;" vertex="1" parent="1">
          <mxGeometry x="565" y="385.02" width="10" height="10" as="geometry" />
        </mxCell>
        <mxCell id="o5yhycOnRF4df_0xs7PU-632" value="" style="endArrow=none;html=1;rounded=0;edgeStyle=orthogonalEdgeStyle;strokeColor=#99CCFF;endFill=0;curved=1;" edge="1" parent="1">
          <mxGeometry width="50" height="50" relative="1" as="geometry">
            <mxPoint x="560" y="390.02" as="sourcePoint" />
            <mxPoint x="570" y="400.02" as="targetPoint" />
          </mxGeometry>
        </mxCell>
        <mxCell id="o5yhycOnRF4df_0xs7PU-633" value="" style="endArrow=none;html=1;rounded=0;edgeStyle=orthogonalEdgeStyle;strokeColor=#99CCFF;endFill=0;curved=1;" edge="1" parent="1">
          <mxGeometry width="50" height="50" relative="1" as="geometry">
            <mxPoint x="580" y="390.01" as="sourcePoint" />
            <mxPoint x="570" y="380.01" as="targetPoint" />
          </mxGeometry>
        </mxCell>
        <mxCell id="o5yhycOnRF4df_0xs7PU-634" value="" style="endArrow=none;html=1;rounded=0;edgeStyle=orthogonalEdgeStyle;strokeColor=#99CCFF;endFill=0;curved=1;" edge="1" parent="1">
          <mxGeometry width="50" height="50" relative="1" as="geometry">
            <mxPoint x="580" y="390.02" as="sourcePoint" />
            <mxPoint x="570" y="400.02" as="targetPoint" />
          </mxGeometry>
        </mxCell>
        <mxCell id="o5yhycOnRF4df_0xs7PU-635" value="" style="endArrow=none;html=1;rounded=0;edgeStyle=orthogonalEdgeStyle;strokeColor=#99CCFF;endFill=0;curved=1;" edge="1" parent="1">
          <mxGeometry width="50" height="50" relative="1" as="geometry">
            <mxPoint x="560" y="390.02" as="sourcePoint" />
            <mxPoint x="570" y="380.02" as="targetPoint" />
          </mxGeometry>
        </mxCell>
        <mxCell id="o5yhycOnRF4df_0xs7PU-636" value="" style="endArrow=none;html=1;rounded=0;strokeColor=#99CCFF;" edge="1" parent="1">
          <mxGeometry width="50" height="50" relative="1" as="geometry">
            <mxPoint x="560" y="389.84999999999997" as="sourcePoint" />
            <mxPoint x="580" y="389.84999999999997" as="targetPoint" />
          </mxGeometry>
        </mxCell>
        <mxCell id="o5yhycOnRF4df_0xs7PU-637" value="" style="endArrow=none;html=1;rounded=0;strokeColor=#99CCFF;" edge="1" parent="1">
          <mxGeometry width="50" height="50" relative="1" as="geometry">
            <mxPoint x="569.8299999999999" y="380.02" as="sourcePoint" />
            <mxPoint x="569.8299999999999" y="400.02" as="targetPoint" />
          </mxGeometry>
        </mxCell>
        <mxCell id="o5yhycOnRF4df_0xs7PU-639" value="" style="ellipse;whiteSpace=wrap;html=1;aspect=fixed;fillColor=none;strokeColor=#99CCFF;container=0;" vertex="1" parent="1">
          <mxGeometry x="525" y="365.01" width="10" height="10" as="geometry" />
        </mxCell>
        <mxCell id="o5yhycOnRF4df_0xs7PU-640" value="" style="endArrow=none;html=1;rounded=0;edgeStyle=orthogonalEdgeStyle;strokeColor=#99CCFF;endFill=0;curved=1;" edge="1" parent="1">
          <mxGeometry width="50" height="50" relative="1" as="geometry">
            <mxPoint x="520" y="370.01" as="sourcePoint" />
            <mxPoint x="530" y="380.01" as="targetPoint" />
          </mxGeometry>
        </mxCell>
        <mxCell id="o5yhycOnRF4df_0xs7PU-641" value="" style="endArrow=none;html=1;rounded=0;edgeStyle=orthogonalEdgeStyle;strokeColor=#99CCFF;endFill=0;curved=1;" edge="1" parent="1">
          <mxGeometry width="50" height="50" relative="1" as="geometry">
            <mxPoint x="540" y="370" as="sourcePoint" />
            <mxPoint x="530" y="360" as="targetPoint" />
          </mxGeometry>
        </mxCell>
        <mxCell id="o5yhycOnRF4df_0xs7PU-642" value="" style="endArrow=none;html=1;rounded=0;edgeStyle=orthogonalEdgeStyle;strokeColor=#99CCFF;endFill=0;curved=1;" edge="1" parent="1">
          <mxGeometry width="50" height="50" relative="1" as="geometry">
            <mxPoint x="540" y="370.01" as="sourcePoint" />
            <mxPoint x="530" y="380.01" as="targetPoint" />
          </mxGeometry>
        </mxCell>
        <mxCell id="o5yhycOnRF4df_0xs7PU-643" value="" style="endArrow=none;html=1;rounded=0;edgeStyle=orthogonalEdgeStyle;strokeColor=#99CCFF;endFill=0;curved=1;" edge="1" parent="1">
          <mxGeometry width="50" height="50" relative="1" as="geometry">
            <mxPoint x="520" y="370.01" as="sourcePoint" />
            <mxPoint x="530" y="360.01" as="targetPoint" />
          </mxGeometry>
        </mxCell>
        <mxCell id="o5yhycOnRF4df_0xs7PU-644" value="" style="endArrow=none;html=1;rounded=0;strokeColor=#99CCFF;" edge="1" parent="1">
          <mxGeometry width="50" height="50" relative="1" as="geometry">
            <mxPoint x="520" y="369.84" as="sourcePoint" />
            <mxPoint x="540" y="369.84" as="targetPoint" />
          </mxGeometry>
        </mxCell>
        <mxCell id="o5yhycOnRF4df_0xs7PU-645" value="" style="endArrow=none;html=1;rounded=0;strokeColor=#99CCFF;" edge="1" parent="1">
          <mxGeometry width="50" height="50" relative="1" as="geometry">
            <mxPoint x="529.8299999999999" y="360.01" as="sourcePoint" />
            <mxPoint x="529.8299999999999" y="380.01" as="targetPoint" />
          </mxGeometry>
        </mxCell>
        <mxCell id="o5yhycOnRF4df_0xs7PU-647" value="" style="ellipse;whiteSpace=wrap;html=1;aspect=fixed;fillColor=none;strokeColor=#99CCFF;container=0;" vertex="1" parent="1">
          <mxGeometry x="425" y="405.01" width="10" height="10" as="geometry" />
        </mxCell>
        <mxCell id="o5yhycOnRF4df_0xs7PU-648" value="" style="endArrow=none;html=1;rounded=0;edgeStyle=orthogonalEdgeStyle;strokeColor=#99CCFF;endFill=0;curved=1;" edge="1" parent="1">
          <mxGeometry width="50" height="50" relative="1" as="geometry">
            <mxPoint x="420" y="410.01" as="sourcePoint" />
            <mxPoint x="430" y="420.01" as="targetPoint" />
          </mxGeometry>
        </mxCell>
        <mxCell id="o5yhycOnRF4df_0xs7PU-649" value="" style="endArrow=none;html=1;rounded=0;edgeStyle=orthogonalEdgeStyle;strokeColor=#99CCFF;endFill=0;curved=1;" edge="1" parent="1">
          <mxGeometry width="50" height="50" relative="1" as="geometry">
            <mxPoint x="440" y="410" as="sourcePoint" />
            <mxPoint x="430" y="400" as="targetPoint" />
          </mxGeometry>
        </mxCell>
        <mxCell id="o5yhycOnRF4df_0xs7PU-650" value="" style="endArrow=none;html=1;rounded=0;edgeStyle=orthogonalEdgeStyle;strokeColor=#99CCFF;endFill=0;curved=1;" edge="1" parent="1">
          <mxGeometry width="50" height="50" relative="1" as="geometry">
            <mxPoint x="440" y="410.01" as="sourcePoint" />
            <mxPoint x="430" y="420.01" as="targetPoint" />
          </mxGeometry>
        </mxCell>
        <mxCell id="o5yhycOnRF4df_0xs7PU-651" value="" style="endArrow=none;html=1;rounded=0;edgeStyle=orthogonalEdgeStyle;strokeColor=#99CCFF;endFill=0;curved=1;" edge="1" parent="1">
          <mxGeometry width="50" height="50" relative="1" as="geometry">
            <mxPoint x="420" y="410.01" as="sourcePoint" />
            <mxPoint x="430" y="400.01" as="targetPoint" />
          </mxGeometry>
        </mxCell>
        <mxCell id="o5yhycOnRF4df_0xs7PU-652" value="" style="endArrow=none;html=1;rounded=0;strokeColor=#99CCFF;" edge="1" parent="1">
          <mxGeometry width="50" height="50" relative="1" as="geometry">
            <mxPoint x="420" y="409.84" as="sourcePoint" />
            <mxPoint x="440" y="409.84" as="targetPoint" />
          </mxGeometry>
        </mxCell>
        <mxCell id="o5yhycOnRF4df_0xs7PU-653" value="" style="endArrow=none;html=1;rounded=0;strokeColor=#99CCFF;" edge="1" parent="1">
          <mxGeometry width="50" height="50" relative="1" as="geometry">
            <mxPoint x="429.83" y="400.01" as="sourcePoint" />
            <mxPoint x="429.83" y="420.01" as="targetPoint" />
          </mxGeometry>
        </mxCell>
        <mxCell id="o5yhycOnRF4df_0xs7PU-655" value="" style="ellipse;whiteSpace=wrap;html=1;aspect=fixed;fillColor=none;strokeColor=#99CCFF;container=0;" vertex="1" parent="1">
          <mxGeometry x="425" y="425.02" width="10" height="10" as="geometry" />
        </mxCell>
        <mxCell id="o5yhycOnRF4df_0xs7PU-656" value="" style="endArrow=none;html=1;rounded=0;edgeStyle=orthogonalEdgeStyle;strokeColor=#99CCFF;endFill=0;curved=1;" edge="1" parent="1">
          <mxGeometry width="50" height="50" relative="1" as="geometry">
            <mxPoint x="420" y="430.02" as="sourcePoint" />
            <mxPoint x="430" y="440.02" as="targetPoint" />
          </mxGeometry>
        </mxCell>
        <mxCell id="o5yhycOnRF4df_0xs7PU-657" value="" style="endArrow=none;html=1;rounded=0;edgeStyle=orthogonalEdgeStyle;strokeColor=#99CCFF;endFill=0;curved=1;" edge="1" parent="1">
          <mxGeometry width="50" height="50" relative="1" as="geometry">
            <mxPoint x="440" y="430.01" as="sourcePoint" />
            <mxPoint x="430" y="420.01" as="targetPoint" />
          </mxGeometry>
        </mxCell>
        <mxCell id="o5yhycOnRF4df_0xs7PU-658" value="" style="endArrow=none;html=1;rounded=0;edgeStyle=orthogonalEdgeStyle;strokeColor=#99CCFF;endFill=0;curved=1;" edge="1" parent="1">
          <mxGeometry width="50" height="50" relative="1" as="geometry">
            <mxPoint x="440" y="430.02" as="sourcePoint" />
            <mxPoint x="430" y="440.02" as="targetPoint" />
          </mxGeometry>
        </mxCell>
        <mxCell id="o5yhycOnRF4df_0xs7PU-659" value="" style="endArrow=none;html=1;rounded=0;edgeStyle=orthogonalEdgeStyle;strokeColor=#99CCFF;endFill=0;curved=1;" edge="1" parent="1">
          <mxGeometry width="50" height="50" relative="1" as="geometry">
            <mxPoint x="420" y="430.02" as="sourcePoint" />
            <mxPoint x="430" y="420.02" as="targetPoint" />
          </mxGeometry>
        </mxCell>
        <mxCell id="o5yhycOnRF4df_0xs7PU-660" value="" style="endArrow=none;html=1;rounded=0;strokeColor=#99CCFF;" edge="1" parent="1">
          <mxGeometry width="50" height="50" relative="1" as="geometry">
            <mxPoint x="420" y="429.84999999999997" as="sourcePoint" />
            <mxPoint x="440" y="429.84999999999997" as="targetPoint" />
          </mxGeometry>
        </mxCell>
        <mxCell id="o5yhycOnRF4df_0xs7PU-661" value="" style="endArrow=none;html=1;rounded=0;strokeColor=#99CCFF;" edge="1" parent="1">
          <mxGeometry width="50" height="50" relative="1" as="geometry">
            <mxPoint x="429.83" y="420.02" as="sourcePoint" />
            <mxPoint x="429.83" y="440.02" as="targetPoint" />
          </mxGeometry>
        </mxCell>
        <mxCell id="o5yhycOnRF4df_0xs7PU-663" value="" style="ellipse;whiteSpace=wrap;html=1;aspect=fixed;fillColor=none;strokeColor=#99CCFF;container=0;" vertex="1" parent="1">
          <mxGeometry x="445" y="405.01" width="10" height="10" as="geometry" />
        </mxCell>
        <mxCell id="o5yhycOnRF4df_0xs7PU-664" value="" style="endArrow=none;html=1;rounded=0;edgeStyle=orthogonalEdgeStyle;strokeColor=#99CCFF;endFill=0;curved=1;" edge="1" parent="1">
          <mxGeometry width="50" height="50" relative="1" as="geometry">
            <mxPoint x="440" y="410.01" as="sourcePoint" />
            <mxPoint x="450" y="420.01" as="targetPoint" />
          </mxGeometry>
        </mxCell>
        <mxCell id="o5yhycOnRF4df_0xs7PU-665" value="" style="endArrow=none;html=1;rounded=0;edgeStyle=orthogonalEdgeStyle;strokeColor=#99CCFF;endFill=0;curved=1;" edge="1" parent="1">
          <mxGeometry width="50" height="50" relative="1" as="geometry">
            <mxPoint x="460" y="410" as="sourcePoint" />
            <mxPoint x="450" y="400" as="targetPoint" />
          </mxGeometry>
        </mxCell>
        <mxCell id="o5yhycOnRF4df_0xs7PU-666" value="" style="endArrow=none;html=1;rounded=0;edgeStyle=orthogonalEdgeStyle;strokeColor=#99CCFF;endFill=0;curved=1;" edge="1" parent="1">
          <mxGeometry width="50" height="50" relative="1" as="geometry">
            <mxPoint x="460" y="410.01" as="sourcePoint" />
            <mxPoint x="450" y="420.01" as="targetPoint" />
          </mxGeometry>
        </mxCell>
        <mxCell id="o5yhycOnRF4df_0xs7PU-667" value="" style="endArrow=none;html=1;rounded=0;edgeStyle=orthogonalEdgeStyle;strokeColor=#99CCFF;endFill=0;curved=1;" edge="1" parent="1">
          <mxGeometry width="50" height="50" relative="1" as="geometry">
            <mxPoint x="440" y="410.01" as="sourcePoint" />
            <mxPoint x="450" y="400.01" as="targetPoint" />
          </mxGeometry>
        </mxCell>
        <mxCell id="o5yhycOnRF4df_0xs7PU-668" value="" style="endArrow=none;html=1;rounded=0;strokeColor=#99CCFF;" edge="1" parent="1">
          <mxGeometry width="50" height="50" relative="1" as="geometry">
            <mxPoint x="440" y="409.84" as="sourcePoint" />
            <mxPoint x="460" y="409.84" as="targetPoint" />
          </mxGeometry>
        </mxCell>
        <mxCell id="o5yhycOnRF4df_0xs7PU-669" value="" style="endArrow=none;html=1;rounded=0;strokeColor=#99CCFF;" edge="1" parent="1">
          <mxGeometry width="50" height="50" relative="1" as="geometry">
            <mxPoint x="449.83" y="400.01" as="sourcePoint" />
            <mxPoint x="449.83" y="420.01" as="targetPoint" />
          </mxGeometry>
        </mxCell>
        <mxCell id="o5yhycOnRF4df_0xs7PU-671" value="" style="ellipse;whiteSpace=wrap;html=1;aspect=fixed;fillColor=none;strokeColor=#99CCFF;container=0;" vertex="1" parent="1">
          <mxGeometry x="445" y="425.02" width="10" height="10" as="geometry" />
        </mxCell>
        <mxCell id="o5yhycOnRF4df_0xs7PU-672" value="" style="endArrow=none;html=1;rounded=0;edgeStyle=orthogonalEdgeStyle;strokeColor=#99CCFF;endFill=0;curved=1;" edge="1" parent="1">
          <mxGeometry width="50" height="50" relative="1" as="geometry">
            <mxPoint x="440" y="430.02" as="sourcePoint" />
            <mxPoint x="450" y="440.02" as="targetPoint" />
          </mxGeometry>
        </mxCell>
        <mxCell id="o5yhycOnRF4df_0xs7PU-673" value="" style="endArrow=none;html=1;rounded=0;edgeStyle=orthogonalEdgeStyle;strokeColor=#99CCFF;endFill=0;curved=1;" edge="1" parent="1">
          <mxGeometry width="50" height="50" relative="1" as="geometry">
            <mxPoint x="460" y="430.01" as="sourcePoint" />
            <mxPoint x="450" y="420.01" as="targetPoint" />
          </mxGeometry>
        </mxCell>
        <mxCell id="o5yhycOnRF4df_0xs7PU-674" value="" style="endArrow=none;html=1;rounded=0;edgeStyle=orthogonalEdgeStyle;strokeColor=#99CCFF;endFill=0;curved=1;" edge="1" parent="1">
          <mxGeometry width="50" height="50" relative="1" as="geometry">
            <mxPoint x="460" y="430.02" as="sourcePoint" />
            <mxPoint x="450" y="440.02" as="targetPoint" />
          </mxGeometry>
        </mxCell>
        <mxCell id="o5yhycOnRF4df_0xs7PU-675" value="" style="endArrow=none;html=1;rounded=0;edgeStyle=orthogonalEdgeStyle;strokeColor=#99CCFF;endFill=0;curved=1;" edge="1" parent="1">
          <mxGeometry width="50" height="50" relative="1" as="geometry">
            <mxPoint x="440" y="430.02" as="sourcePoint" />
            <mxPoint x="450" y="420.02" as="targetPoint" />
          </mxGeometry>
        </mxCell>
        <mxCell id="o5yhycOnRF4df_0xs7PU-676" value="" style="endArrow=none;html=1;rounded=0;strokeColor=#99CCFF;" edge="1" parent="1">
          <mxGeometry width="50" height="50" relative="1" as="geometry">
            <mxPoint x="440" y="429.84999999999997" as="sourcePoint" />
            <mxPoint x="460" y="429.84999999999997" as="targetPoint" />
          </mxGeometry>
        </mxCell>
        <mxCell id="o5yhycOnRF4df_0xs7PU-677" value="" style="endArrow=none;html=1;rounded=0;strokeColor=#99CCFF;" edge="1" parent="1">
          <mxGeometry width="50" height="50" relative="1" as="geometry">
            <mxPoint x="449.83" y="420.02" as="sourcePoint" />
            <mxPoint x="449.83" y="440.02" as="targetPoint" />
          </mxGeometry>
        </mxCell>
        <mxCell id="o5yhycOnRF4df_0xs7PU-687" value="" style="ellipse;whiteSpace=wrap;html=1;aspect=fixed;fillColor=none;strokeColor=#99CCFF;container=0;" vertex="1" parent="1">
          <mxGeometry x="465" y="425.02" width="10" height="10" as="geometry" />
        </mxCell>
        <mxCell id="o5yhycOnRF4df_0xs7PU-688" value="" style="endArrow=none;html=1;rounded=0;edgeStyle=orthogonalEdgeStyle;strokeColor=#99CCFF;endFill=0;curved=1;" edge="1" parent="1">
          <mxGeometry width="50" height="50" relative="1" as="geometry">
            <mxPoint x="460" y="430.02" as="sourcePoint" />
            <mxPoint x="470" y="440.02" as="targetPoint" />
          </mxGeometry>
        </mxCell>
        <mxCell id="o5yhycOnRF4df_0xs7PU-689" value="" style="endArrow=none;html=1;rounded=0;edgeStyle=orthogonalEdgeStyle;strokeColor=#99CCFF;endFill=0;curved=1;" edge="1" parent="1">
          <mxGeometry width="50" height="50" relative="1" as="geometry">
            <mxPoint x="480" y="430.01" as="sourcePoint" />
            <mxPoint x="470" y="420.01" as="targetPoint" />
          </mxGeometry>
        </mxCell>
        <mxCell id="o5yhycOnRF4df_0xs7PU-690" value="" style="endArrow=none;html=1;rounded=0;edgeStyle=orthogonalEdgeStyle;strokeColor=#99CCFF;endFill=0;curved=1;" edge="1" parent="1">
          <mxGeometry width="50" height="50" relative="1" as="geometry">
            <mxPoint x="480" y="430.02" as="sourcePoint" />
            <mxPoint x="470" y="440.02" as="targetPoint" />
          </mxGeometry>
        </mxCell>
        <mxCell id="o5yhycOnRF4df_0xs7PU-691" value="" style="endArrow=none;html=1;rounded=0;edgeStyle=orthogonalEdgeStyle;strokeColor=#99CCFF;endFill=0;curved=1;" edge="1" parent="1">
          <mxGeometry width="50" height="50" relative="1" as="geometry">
            <mxPoint x="460" y="430.02" as="sourcePoint" />
            <mxPoint x="470" y="420.02" as="targetPoint" />
          </mxGeometry>
        </mxCell>
        <mxCell id="o5yhycOnRF4df_0xs7PU-692" value="" style="endArrow=none;html=1;rounded=0;strokeColor=#99CCFF;" edge="1" parent="1">
          <mxGeometry width="50" height="50" relative="1" as="geometry">
            <mxPoint x="460" y="429.84999999999997" as="sourcePoint" />
            <mxPoint x="480" y="429.84999999999997" as="targetPoint" />
          </mxGeometry>
        </mxCell>
        <mxCell id="o5yhycOnRF4df_0xs7PU-693" value="" style="endArrow=none;html=1;rounded=0;strokeColor=#99CCFF;" edge="1" parent="1">
          <mxGeometry width="50" height="50" relative="1" as="geometry">
            <mxPoint x="469.83" y="420.02" as="sourcePoint" />
            <mxPoint x="469.83" y="440.02" as="targetPoint" />
          </mxGeometry>
        </mxCell>
        <mxCell id="o5yhycOnRF4df_0xs7PU-695" value="" style="ellipse;whiteSpace=wrap;html=1;aspect=fixed;fillColor=none;strokeColor=#99CCFF;container=0;" vertex="1" parent="1">
          <mxGeometry x="485" y="405.01" width="10" height="10" as="geometry" />
        </mxCell>
        <mxCell id="o5yhycOnRF4df_0xs7PU-696" value="" style="endArrow=none;html=1;rounded=0;edgeStyle=orthogonalEdgeStyle;strokeColor=#99CCFF;endFill=0;curved=1;" edge="1" parent="1">
          <mxGeometry width="50" height="50" relative="1" as="geometry">
            <mxPoint x="480" y="410.01" as="sourcePoint" />
            <mxPoint x="490" y="420.01" as="targetPoint" />
          </mxGeometry>
        </mxCell>
        <mxCell id="o5yhycOnRF4df_0xs7PU-697" value="" style="endArrow=none;html=1;rounded=0;edgeStyle=orthogonalEdgeStyle;strokeColor=#99CCFF;endFill=0;curved=1;" edge="1" parent="1">
          <mxGeometry width="50" height="50" relative="1" as="geometry">
            <mxPoint x="500" y="410" as="sourcePoint" />
            <mxPoint x="490" y="400" as="targetPoint" />
          </mxGeometry>
        </mxCell>
        <mxCell id="o5yhycOnRF4df_0xs7PU-698" value="" style="endArrow=none;html=1;rounded=0;edgeStyle=orthogonalEdgeStyle;strokeColor=#99CCFF;endFill=0;curved=1;" edge="1" parent="1">
          <mxGeometry width="50" height="50" relative="1" as="geometry">
            <mxPoint x="500" y="410.01" as="sourcePoint" />
            <mxPoint x="490" y="420.01" as="targetPoint" />
          </mxGeometry>
        </mxCell>
        <mxCell id="o5yhycOnRF4df_0xs7PU-699" value="" style="endArrow=none;html=1;rounded=0;edgeStyle=orthogonalEdgeStyle;strokeColor=#99CCFF;endFill=0;curved=1;" edge="1" parent="1">
          <mxGeometry width="50" height="50" relative="1" as="geometry">
            <mxPoint x="480" y="410.01" as="sourcePoint" />
            <mxPoint x="490" y="400.01" as="targetPoint" />
          </mxGeometry>
        </mxCell>
        <mxCell id="o5yhycOnRF4df_0xs7PU-700" value="" style="endArrow=none;html=1;rounded=0;strokeColor=#99CCFF;" edge="1" parent="1">
          <mxGeometry width="50" height="50" relative="1" as="geometry">
            <mxPoint x="480" y="409.84" as="sourcePoint" />
            <mxPoint x="500" y="409.84" as="targetPoint" />
          </mxGeometry>
        </mxCell>
        <mxCell id="o5yhycOnRF4df_0xs7PU-701" value="" style="endArrow=none;html=1;rounded=0;strokeColor=#99CCFF;" edge="1" parent="1">
          <mxGeometry width="50" height="50" relative="1" as="geometry">
            <mxPoint x="489.83" y="400.01" as="sourcePoint" />
            <mxPoint x="489.83" y="420.01" as="targetPoint" />
          </mxGeometry>
        </mxCell>
        <mxCell id="o5yhycOnRF4df_0xs7PU-703" value="" style="ellipse;whiteSpace=wrap;html=1;aspect=fixed;fillColor=none;strokeColor=#99CCFF;container=0;" vertex="1" parent="1">
          <mxGeometry x="485" y="425.02" width="10" height="10" as="geometry" />
        </mxCell>
        <mxCell id="o5yhycOnRF4df_0xs7PU-704" value="" style="endArrow=none;html=1;rounded=0;edgeStyle=orthogonalEdgeStyle;strokeColor=#99CCFF;endFill=0;curved=1;" edge="1" parent="1">
          <mxGeometry width="50" height="50" relative="1" as="geometry">
            <mxPoint x="480" y="430.02" as="sourcePoint" />
            <mxPoint x="490" y="440.02" as="targetPoint" />
          </mxGeometry>
        </mxCell>
        <mxCell id="o5yhycOnRF4df_0xs7PU-705" value="" style="endArrow=none;html=1;rounded=0;edgeStyle=orthogonalEdgeStyle;strokeColor=#99CCFF;endFill=0;curved=1;" edge="1" parent="1">
          <mxGeometry width="50" height="50" relative="1" as="geometry">
            <mxPoint x="500" y="430.01" as="sourcePoint" />
            <mxPoint x="490" y="420.01" as="targetPoint" />
          </mxGeometry>
        </mxCell>
        <mxCell id="o5yhycOnRF4df_0xs7PU-706" value="" style="endArrow=none;html=1;rounded=0;edgeStyle=orthogonalEdgeStyle;strokeColor=#99CCFF;endFill=0;curved=1;" edge="1" parent="1">
          <mxGeometry width="50" height="50" relative="1" as="geometry">
            <mxPoint x="500" y="430.02" as="sourcePoint" />
            <mxPoint x="490" y="440.02" as="targetPoint" />
          </mxGeometry>
        </mxCell>
        <mxCell id="o5yhycOnRF4df_0xs7PU-707" value="" style="endArrow=none;html=1;rounded=0;edgeStyle=orthogonalEdgeStyle;strokeColor=#99CCFF;endFill=0;curved=1;" edge="1" parent="1">
          <mxGeometry width="50" height="50" relative="1" as="geometry">
            <mxPoint x="480" y="430.02" as="sourcePoint" />
            <mxPoint x="490" y="420.02" as="targetPoint" />
          </mxGeometry>
        </mxCell>
        <mxCell id="o5yhycOnRF4df_0xs7PU-708" value="" style="endArrow=none;html=1;rounded=0;strokeColor=#99CCFF;" edge="1" parent="1">
          <mxGeometry width="50" height="50" relative="1" as="geometry">
            <mxPoint x="480" y="429.84999999999997" as="sourcePoint" />
            <mxPoint x="500" y="429.84999999999997" as="targetPoint" />
          </mxGeometry>
        </mxCell>
        <mxCell id="o5yhycOnRF4df_0xs7PU-709" value="" style="endArrow=none;html=1;rounded=0;strokeColor=#99CCFF;" edge="1" parent="1">
          <mxGeometry width="50" height="50" relative="1" as="geometry">
            <mxPoint x="489.83" y="420.02" as="sourcePoint" />
            <mxPoint x="489.83" y="440.02" as="targetPoint" />
          </mxGeometry>
        </mxCell>
        <mxCell id="o5yhycOnRF4df_0xs7PU-711" value="" style="ellipse;whiteSpace=wrap;html=1;aspect=fixed;fillColor=none;strokeColor=#99CCFF;container=0;" vertex="1" parent="1">
          <mxGeometry x="505" y="405.01" width="10" height="10" as="geometry" />
        </mxCell>
        <mxCell id="o5yhycOnRF4df_0xs7PU-712" value="" style="endArrow=none;html=1;rounded=0;edgeStyle=orthogonalEdgeStyle;strokeColor=#99CCFF;endFill=0;curved=1;" edge="1" parent="1">
          <mxGeometry width="50" height="50" relative="1" as="geometry">
            <mxPoint x="500" y="410.01" as="sourcePoint" />
            <mxPoint x="510" y="420.01" as="targetPoint" />
          </mxGeometry>
        </mxCell>
        <mxCell id="o5yhycOnRF4df_0xs7PU-713" value="" style="endArrow=none;html=1;rounded=0;edgeStyle=orthogonalEdgeStyle;strokeColor=#99CCFF;endFill=0;curved=1;" edge="1" parent="1">
          <mxGeometry width="50" height="50" relative="1" as="geometry">
            <mxPoint x="520" y="410" as="sourcePoint" />
            <mxPoint x="510" y="400" as="targetPoint" />
          </mxGeometry>
        </mxCell>
        <mxCell id="o5yhycOnRF4df_0xs7PU-714" value="" style="endArrow=none;html=1;rounded=0;edgeStyle=orthogonalEdgeStyle;strokeColor=#99CCFF;endFill=0;curved=1;" edge="1" parent="1">
          <mxGeometry width="50" height="50" relative="1" as="geometry">
            <mxPoint x="520" y="410.01" as="sourcePoint" />
            <mxPoint x="510" y="420.01" as="targetPoint" />
          </mxGeometry>
        </mxCell>
        <mxCell id="o5yhycOnRF4df_0xs7PU-715" value="" style="endArrow=none;html=1;rounded=0;edgeStyle=orthogonalEdgeStyle;strokeColor=#99CCFF;endFill=0;curved=1;" edge="1" parent="1">
          <mxGeometry width="50" height="50" relative="1" as="geometry">
            <mxPoint x="500" y="410.01" as="sourcePoint" />
            <mxPoint x="510" y="400.01" as="targetPoint" />
          </mxGeometry>
        </mxCell>
        <mxCell id="o5yhycOnRF4df_0xs7PU-716" value="" style="endArrow=none;html=1;rounded=0;strokeColor=#99CCFF;" edge="1" parent="1">
          <mxGeometry width="50" height="50" relative="1" as="geometry">
            <mxPoint x="500" y="409.84" as="sourcePoint" />
            <mxPoint x="520" y="409.84" as="targetPoint" />
          </mxGeometry>
        </mxCell>
        <mxCell id="o5yhycOnRF4df_0xs7PU-717" value="" style="endArrow=none;html=1;rounded=0;strokeColor=#99CCFF;" edge="1" parent="1">
          <mxGeometry width="50" height="50" relative="1" as="geometry">
            <mxPoint x="509.83" y="400.01" as="sourcePoint" />
            <mxPoint x="509.83" y="420.01" as="targetPoint" />
          </mxGeometry>
        </mxCell>
        <mxCell id="o5yhycOnRF4df_0xs7PU-719" value="" style="ellipse;whiteSpace=wrap;html=1;aspect=fixed;fillColor=none;strokeColor=#99CCFF;container=0;" vertex="1" parent="1">
          <mxGeometry x="505" y="425.02" width="10" height="10" as="geometry" />
        </mxCell>
        <mxCell id="o5yhycOnRF4df_0xs7PU-720" value="" style="endArrow=none;html=1;rounded=0;edgeStyle=orthogonalEdgeStyle;strokeColor=#99CCFF;endFill=0;curved=1;" edge="1" parent="1">
          <mxGeometry width="50" height="50" relative="1" as="geometry">
            <mxPoint x="500" y="430.02" as="sourcePoint" />
            <mxPoint x="510" y="440.02" as="targetPoint" />
          </mxGeometry>
        </mxCell>
        <mxCell id="o5yhycOnRF4df_0xs7PU-721" value="" style="endArrow=none;html=1;rounded=0;edgeStyle=orthogonalEdgeStyle;strokeColor=#99CCFF;endFill=0;curved=1;" edge="1" parent="1">
          <mxGeometry width="50" height="50" relative="1" as="geometry">
            <mxPoint x="520" y="430.01" as="sourcePoint" />
            <mxPoint x="510" y="420.01" as="targetPoint" />
          </mxGeometry>
        </mxCell>
        <mxCell id="o5yhycOnRF4df_0xs7PU-722" value="" style="endArrow=none;html=1;rounded=0;edgeStyle=orthogonalEdgeStyle;strokeColor=#99CCFF;endFill=0;curved=1;" edge="1" parent="1">
          <mxGeometry width="50" height="50" relative="1" as="geometry">
            <mxPoint x="520" y="430.02" as="sourcePoint" />
            <mxPoint x="510" y="440.02" as="targetPoint" />
          </mxGeometry>
        </mxCell>
        <mxCell id="o5yhycOnRF4df_0xs7PU-723" value="" style="endArrow=none;html=1;rounded=0;edgeStyle=orthogonalEdgeStyle;strokeColor=#99CCFF;endFill=0;curved=1;" edge="1" parent="1">
          <mxGeometry width="50" height="50" relative="1" as="geometry">
            <mxPoint x="500" y="430.02" as="sourcePoint" />
            <mxPoint x="510" y="420.02" as="targetPoint" />
          </mxGeometry>
        </mxCell>
        <mxCell id="o5yhycOnRF4df_0xs7PU-724" value="" style="endArrow=none;html=1;rounded=0;strokeColor=#99CCFF;" edge="1" parent="1">
          <mxGeometry width="50" height="50" relative="1" as="geometry">
            <mxPoint x="500" y="429.84999999999997" as="sourcePoint" />
            <mxPoint x="520" y="429.84999999999997" as="targetPoint" />
          </mxGeometry>
        </mxCell>
        <mxCell id="o5yhycOnRF4df_0xs7PU-725" value="" style="endArrow=none;html=1;rounded=0;strokeColor=#99CCFF;" edge="1" parent="1">
          <mxGeometry width="50" height="50" relative="1" as="geometry">
            <mxPoint x="509.83" y="420.02" as="sourcePoint" />
            <mxPoint x="509.83" y="440.02" as="targetPoint" />
          </mxGeometry>
        </mxCell>
        <mxCell id="o5yhycOnRF4df_0xs7PU-727" value="" style="ellipse;whiteSpace=wrap;html=1;aspect=fixed;fillColor=none;strokeColor=#99CCFF;container=0;" vertex="1" parent="1">
          <mxGeometry x="525" y="425.02" width="10" height="10" as="geometry" />
        </mxCell>
        <mxCell id="o5yhycOnRF4df_0xs7PU-728" value="" style="endArrow=none;html=1;rounded=0;edgeStyle=orthogonalEdgeStyle;strokeColor=#99CCFF;endFill=0;curved=1;" edge="1" parent="1">
          <mxGeometry width="50" height="50" relative="1" as="geometry">
            <mxPoint x="520" y="430.02" as="sourcePoint" />
            <mxPoint x="530" y="440.02" as="targetPoint" />
          </mxGeometry>
        </mxCell>
        <mxCell id="o5yhycOnRF4df_0xs7PU-729" value="" style="endArrow=none;html=1;rounded=0;edgeStyle=orthogonalEdgeStyle;strokeColor=#99CCFF;endFill=0;curved=1;" edge="1" parent="1">
          <mxGeometry width="50" height="50" relative="1" as="geometry">
            <mxPoint x="540" y="430.01" as="sourcePoint" />
            <mxPoint x="530" y="420.01" as="targetPoint" />
          </mxGeometry>
        </mxCell>
        <mxCell id="o5yhycOnRF4df_0xs7PU-730" value="" style="endArrow=none;html=1;rounded=0;edgeStyle=orthogonalEdgeStyle;strokeColor=#99CCFF;endFill=0;curved=1;" edge="1" parent="1">
          <mxGeometry width="50" height="50" relative="1" as="geometry">
            <mxPoint x="540" y="430.02" as="sourcePoint" />
            <mxPoint x="530" y="440.02" as="targetPoint" />
          </mxGeometry>
        </mxCell>
        <mxCell id="o5yhycOnRF4df_0xs7PU-731" value="" style="endArrow=none;html=1;rounded=0;edgeStyle=orthogonalEdgeStyle;strokeColor=#99CCFF;endFill=0;curved=1;" edge="1" parent="1">
          <mxGeometry width="50" height="50" relative="1" as="geometry">
            <mxPoint x="520" y="430.02" as="sourcePoint" />
            <mxPoint x="530" y="420.02" as="targetPoint" />
          </mxGeometry>
        </mxCell>
        <mxCell id="o5yhycOnRF4df_0xs7PU-732" value="" style="endArrow=none;html=1;rounded=0;strokeColor=#99CCFF;" edge="1" parent="1">
          <mxGeometry width="50" height="50" relative="1" as="geometry">
            <mxPoint x="520" y="429.84999999999997" as="sourcePoint" />
            <mxPoint x="540" y="429.84999999999997" as="targetPoint" />
          </mxGeometry>
        </mxCell>
        <mxCell id="o5yhycOnRF4df_0xs7PU-733" value="" style="endArrow=none;html=1;rounded=0;strokeColor=#99CCFF;" edge="1" parent="1">
          <mxGeometry width="50" height="50" relative="1" as="geometry">
            <mxPoint x="529.8299999999999" y="420.02" as="sourcePoint" />
            <mxPoint x="529.8299999999999" y="440.02" as="targetPoint" />
          </mxGeometry>
        </mxCell>
        <mxCell id="o5yhycOnRF4df_0xs7PU-735" value="" style="ellipse;whiteSpace=wrap;html=1;aspect=fixed;fillColor=none;strokeColor=#99CCFF;container=0;" vertex="1" parent="1">
          <mxGeometry x="545" y="405.01" width="10" height="10" as="geometry" />
        </mxCell>
        <mxCell id="o5yhycOnRF4df_0xs7PU-736" value="" style="endArrow=none;html=1;rounded=0;edgeStyle=orthogonalEdgeStyle;strokeColor=#99CCFF;endFill=0;curved=1;" edge="1" parent="1">
          <mxGeometry width="50" height="50" relative="1" as="geometry">
            <mxPoint x="540" y="410.01" as="sourcePoint" />
            <mxPoint x="550" y="420.01" as="targetPoint" />
          </mxGeometry>
        </mxCell>
        <mxCell id="o5yhycOnRF4df_0xs7PU-737" value="" style="endArrow=none;html=1;rounded=0;edgeStyle=orthogonalEdgeStyle;strokeColor=#99CCFF;endFill=0;curved=1;" edge="1" parent="1">
          <mxGeometry width="50" height="50" relative="1" as="geometry">
            <mxPoint x="560" y="410" as="sourcePoint" />
            <mxPoint x="550" y="400" as="targetPoint" />
          </mxGeometry>
        </mxCell>
        <mxCell id="o5yhycOnRF4df_0xs7PU-738" value="" style="endArrow=none;html=1;rounded=0;edgeStyle=orthogonalEdgeStyle;strokeColor=#99CCFF;endFill=0;curved=1;" edge="1" parent="1">
          <mxGeometry width="50" height="50" relative="1" as="geometry">
            <mxPoint x="560" y="410.01" as="sourcePoint" />
            <mxPoint x="550" y="420.01" as="targetPoint" />
          </mxGeometry>
        </mxCell>
        <mxCell id="o5yhycOnRF4df_0xs7PU-739" value="" style="endArrow=none;html=1;rounded=0;edgeStyle=orthogonalEdgeStyle;strokeColor=#99CCFF;endFill=0;curved=1;" edge="1" parent="1">
          <mxGeometry width="50" height="50" relative="1" as="geometry">
            <mxPoint x="540" y="410.01" as="sourcePoint" />
            <mxPoint x="550" y="400.01" as="targetPoint" />
          </mxGeometry>
        </mxCell>
        <mxCell id="o5yhycOnRF4df_0xs7PU-740" value="" style="endArrow=none;html=1;rounded=0;strokeColor=#99CCFF;" edge="1" parent="1">
          <mxGeometry width="50" height="50" relative="1" as="geometry">
            <mxPoint x="540" y="409.84" as="sourcePoint" />
            <mxPoint x="560" y="409.84" as="targetPoint" />
          </mxGeometry>
        </mxCell>
        <mxCell id="o5yhycOnRF4df_0xs7PU-741" value="" style="endArrow=none;html=1;rounded=0;strokeColor=#99CCFF;" edge="1" parent="1">
          <mxGeometry width="50" height="50" relative="1" as="geometry">
            <mxPoint x="549.8299999999999" y="400.01" as="sourcePoint" />
            <mxPoint x="549.8299999999999" y="420.01" as="targetPoint" />
          </mxGeometry>
        </mxCell>
        <mxCell id="o5yhycOnRF4df_0xs7PU-743" value="" style="ellipse;whiteSpace=wrap;html=1;aspect=fixed;fillColor=none;strokeColor=#99CCFF;container=0;" vertex="1" parent="1">
          <mxGeometry x="545" y="425.02" width="10" height="10" as="geometry" />
        </mxCell>
        <mxCell id="o5yhycOnRF4df_0xs7PU-744" value="" style="endArrow=none;html=1;rounded=0;edgeStyle=orthogonalEdgeStyle;strokeColor=#99CCFF;endFill=0;curved=1;" edge="1" parent="1">
          <mxGeometry width="50" height="50" relative="1" as="geometry">
            <mxPoint x="540" y="430.02" as="sourcePoint" />
            <mxPoint x="550" y="440.02" as="targetPoint" />
          </mxGeometry>
        </mxCell>
        <mxCell id="o5yhycOnRF4df_0xs7PU-745" value="" style="endArrow=none;html=1;rounded=0;edgeStyle=orthogonalEdgeStyle;strokeColor=#99CCFF;endFill=0;curved=1;" edge="1" parent="1">
          <mxGeometry width="50" height="50" relative="1" as="geometry">
            <mxPoint x="560" y="430.01" as="sourcePoint" />
            <mxPoint x="550" y="420.01" as="targetPoint" />
          </mxGeometry>
        </mxCell>
        <mxCell id="o5yhycOnRF4df_0xs7PU-746" value="" style="endArrow=none;html=1;rounded=0;edgeStyle=orthogonalEdgeStyle;strokeColor=#99CCFF;endFill=0;curved=1;" edge="1" parent="1">
          <mxGeometry width="50" height="50" relative="1" as="geometry">
            <mxPoint x="560" y="430.02" as="sourcePoint" />
            <mxPoint x="550" y="440.02" as="targetPoint" />
          </mxGeometry>
        </mxCell>
        <mxCell id="o5yhycOnRF4df_0xs7PU-747" value="" style="endArrow=none;html=1;rounded=0;edgeStyle=orthogonalEdgeStyle;strokeColor=#99CCFF;endFill=0;curved=1;" edge="1" parent="1">
          <mxGeometry width="50" height="50" relative="1" as="geometry">
            <mxPoint x="540" y="430.02" as="sourcePoint" />
            <mxPoint x="550" y="420.02" as="targetPoint" />
          </mxGeometry>
        </mxCell>
        <mxCell id="o5yhycOnRF4df_0xs7PU-748" value="" style="endArrow=none;html=1;rounded=0;strokeColor=#99CCFF;" edge="1" parent="1">
          <mxGeometry width="50" height="50" relative="1" as="geometry">
            <mxPoint x="540" y="429.84999999999997" as="sourcePoint" />
            <mxPoint x="560" y="429.84999999999997" as="targetPoint" />
          </mxGeometry>
        </mxCell>
        <mxCell id="o5yhycOnRF4df_0xs7PU-749" value="" style="endArrow=none;html=1;rounded=0;strokeColor=#99CCFF;" edge="1" parent="1">
          <mxGeometry width="50" height="50" relative="1" as="geometry">
            <mxPoint x="549.8299999999999" y="420.02" as="sourcePoint" />
            <mxPoint x="549.8299999999999" y="440.02" as="targetPoint" />
          </mxGeometry>
        </mxCell>
        <mxCell id="o5yhycOnRF4df_0xs7PU-751" value="" style="ellipse;whiteSpace=wrap;html=1;aspect=fixed;fillColor=none;strokeColor=#99CCFF;container=0;" vertex="1" parent="1">
          <mxGeometry x="565" y="405.01" width="10" height="10" as="geometry" />
        </mxCell>
        <mxCell id="o5yhycOnRF4df_0xs7PU-752" value="" style="endArrow=none;html=1;rounded=0;edgeStyle=orthogonalEdgeStyle;strokeColor=#99CCFF;endFill=0;curved=1;" edge="1" parent="1">
          <mxGeometry width="50" height="50" relative="1" as="geometry">
            <mxPoint x="560" y="410.01" as="sourcePoint" />
            <mxPoint x="570" y="420.01" as="targetPoint" />
          </mxGeometry>
        </mxCell>
        <mxCell id="o5yhycOnRF4df_0xs7PU-753" value="" style="endArrow=none;html=1;rounded=0;edgeStyle=orthogonalEdgeStyle;strokeColor=#99CCFF;endFill=0;curved=1;" edge="1" parent="1">
          <mxGeometry width="50" height="50" relative="1" as="geometry">
            <mxPoint x="580" y="410" as="sourcePoint" />
            <mxPoint x="570" y="400" as="targetPoint" />
          </mxGeometry>
        </mxCell>
        <mxCell id="o5yhycOnRF4df_0xs7PU-754" value="" style="endArrow=none;html=1;rounded=0;edgeStyle=orthogonalEdgeStyle;strokeColor=#99CCFF;endFill=0;curved=1;" edge="1" parent="1">
          <mxGeometry width="50" height="50" relative="1" as="geometry">
            <mxPoint x="580" y="410.01" as="sourcePoint" />
            <mxPoint x="570" y="420.01" as="targetPoint" />
          </mxGeometry>
        </mxCell>
        <mxCell id="o5yhycOnRF4df_0xs7PU-755" value="" style="endArrow=none;html=1;rounded=0;edgeStyle=orthogonalEdgeStyle;strokeColor=#99CCFF;endFill=0;curved=1;" edge="1" parent="1">
          <mxGeometry width="50" height="50" relative="1" as="geometry">
            <mxPoint x="560" y="410.01" as="sourcePoint" />
            <mxPoint x="570" y="400.01" as="targetPoint" />
          </mxGeometry>
        </mxCell>
        <mxCell id="o5yhycOnRF4df_0xs7PU-756" value="" style="endArrow=none;html=1;rounded=0;strokeColor=#99CCFF;" edge="1" parent="1">
          <mxGeometry width="50" height="50" relative="1" as="geometry">
            <mxPoint x="560" y="409.84" as="sourcePoint" />
            <mxPoint x="580" y="409.84" as="targetPoint" />
          </mxGeometry>
        </mxCell>
        <mxCell id="o5yhycOnRF4df_0xs7PU-757" value="" style="endArrow=none;html=1;rounded=0;strokeColor=#99CCFF;" edge="1" parent="1">
          <mxGeometry width="50" height="50" relative="1" as="geometry">
            <mxPoint x="569.8299999999999" y="400.01" as="sourcePoint" />
            <mxPoint x="569.8299999999999" y="420.01" as="targetPoint" />
          </mxGeometry>
        </mxCell>
        <mxCell id="o5yhycOnRF4df_0xs7PU-759" value="" style="ellipse;whiteSpace=wrap;html=1;aspect=fixed;fillColor=none;strokeColor=#99CCFF;container=0;" vertex="1" parent="1">
          <mxGeometry x="565" y="425.02" width="10" height="10" as="geometry" />
        </mxCell>
        <mxCell id="o5yhycOnRF4df_0xs7PU-760" value="" style="endArrow=none;html=1;rounded=0;edgeStyle=orthogonalEdgeStyle;strokeColor=#99CCFF;endFill=0;curved=1;" edge="1" parent="1">
          <mxGeometry width="50" height="50" relative="1" as="geometry">
            <mxPoint x="560" y="430.02" as="sourcePoint" />
            <mxPoint x="570" y="440.02" as="targetPoint" />
          </mxGeometry>
        </mxCell>
        <mxCell id="o5yhycOnRF4df_0xs7PU-761" value="" style="endArrow=none;html=1;rounded=0;edgeStyle=orthogonalEdgeStyle;strokeColor=#99CCFF;endFill=0;curved=1;" edge="1" parent="1">
          <mxGeometry width="50" height="50" relative="1" as="geometry">
            <mxPoint x="580" y="430.01" as="sourcePoint" />
            <mxPoint x="570" y="420.01" as="targetPoint" />
          </mxGeometry>
        </mxCell>
        <mxCell id="o5yhycOnRF4df_0xs7PU-762" value="" style="endArrow=none;html=1;rounded=0;edgeStyle=orthogonalEdgeStyle;strokeColor=#99CCFF;endFill=0;curved=1;" edge="1" parent="1">
          <mxGeometry width="50" height="50" relative="1" as="geometry">
            <mxPoint x="580" y="430.02" as="sourcePoint" />
            <mxPoint x="570" y="440.02" as="targetPoint" />
          </mxGeometry>
        </mxCell>
        <mxCell id="o5yhycOnRF4df_0xs7PU-763" value="" style="endArrow=none;html=1;rounded=0;edgeStyle=orthogonalEdgeStyle;strokeColor=#99CCFF;endFill=0;curved=1;" edge="1" parent="1">
          <mxGeometry width="50" height="50" relative="1" as="geometry">
            <mxPoint x="560" y="430.02" as="sourcePoint" />
            <mxPoint x="570" y="420.02" as="targetPoint" />
          </mxGeometry>
        </mxCell>
        <mxCell id="o5yhycOnRF4df_0xs7PU-764" value="" style="endArrow=none;html=1;rounded=0;strokeColor=#99CCFF;" edge="1" parent="1">
          <mxGeometry width="50" height="50" relative="1" as="geometry">
            <mxPoint x="560" y="429.84999999999997" as="sourcePoint" />
            <mxPoint x="580" y="429.84999999999997" as="targetPoint" />
          </mxGeometry>
        </mxCell>
        <mxCell id="o5yhycOnRF4df_0xs7PU-765" value="" style="endArrow=none;html=1;rounded=0;strokeColor=#99CCFF;" edge="1" parent="1">
          <mxGeometry width="50" height="50" relative="1" as="geometry">
            <mxPoint x="569.8299999999999" y="420.02" as="sourcePoint" />
            <mxPoint x="569.8299999999999" y="440.02" as="targetPoint" />
          </mxGeometry>
        </mxCell>
        <mxCell id="o5yhycOnRF4df_0xs7PU-767" value="" style="ellipse;whiteSpace=wrap;html=1;aspect=fixed;fillColor=none;strokeColor=#99CCFF;container=0;" vertex="1" parent="1">
          <mxGeometry x="525" y="405.01" width="10" height="10" as="geometry" />
        </mxCell>
        <mxCell id="o5yhycOnRF4df_0xs7PU-768" value="" style="endArrow=none;html=1;rounded=0;edgeStyle=orthogonalEdgeStyle;strokeColor=#99CCFF;endFill=0;curved=1;" edge="1" parent="1">
          <mxGeometry width="50" height="50" relative="1" as="geometry">
            <mxPoint x="520" y="410.01" as="sourcePoint" />
            <mxPoint x="530" y="420.01" as="targetPoint" />
          </mxGeometry>
        </mxCell>
        <mxCell id="o5yhycOnRF4df_0xs7PU-769" value="" style="endArrow=none;html=1;rounded=0;edgeStyle=orthogonalEdgeStyle;strokeColor=#99CCFF;endFill=0;curved=1;" edge="1" parent="1">
          <mxGeometry width="50" height="50" relative="1" as="geometry">
            <mxPoint x="540" y="410" as="sourcePoint" />
            <mxPoint x="530" y="400" as="targetPoint" />
          </mxGeometry>
        </mxCell>
        <mxCell id="o5yhycOnRF4df_0xs7PU-770" value="" style="endArrow=none;html=1;rounded=0;edgeStyle=orthogonalEdgeStyle;strokeColor=#99CCFF;endFill=0;curved=1;" edge="1" parent="1">
          <mxGeometry width="50" height="50" relative="1" as="geometry">
            <mxPoint x="540" y="410.01" as="sourcePoint" />
            <mxPoint x="530" y="420.01" as="targetPoint" />
          </mxGeometry>
        </mxCell>
        <mxCell id="o5yhycOnRF4df_0xs7PU-771" value="" style="endArrow=none;html=1;rounded=0;edgeStyle=orthogonalEdgeStyle;strokeColor=#99CCFF;endFill=0;curved=1;" edge="1" parent="1">
          <mxGeometry width="50" height="50" relative="1" as="geometry">
            <mxPoint x="520" y="410.01" as="sourcePoint" />
            <mxPoint x="530" y="400.01" as="targetPoint" />
          </mxGeometry>
        </mxCell>
        <mxCell id="o5yhycOnRF4df_0xs7PU-772" value="" style="endArrow=none;html=1;rounded=0;strokeColor=#99CCFF;" edge="1" parent="1">
          <mxGeometry width="50" height="50" relative="1" as="geometry">
            <mxPoint x="520" y="409.84" as="sourcePoint" />
            <mxPoint x="540" y="409.84" as="targetPoint" />
          </mxGeometry>
        </mxCell>
        <mxCell id="o5yhycOnRF4df_0xs7PU-773" value="" style="endArrow=none;html=1;rounded=0;strokeColor=#99CCFF;" edge="1" parent="1">
          <mxGeometry width="50" height="50" relative="1" as="geometry">
            <mxPoint x="529.8299999999999" y="400.01" as="sourcePoint" />
            <mxPoint x="529.8299999999999" y="420.01" as="targetPoint" />
          </mxGeometry>
        </mxCell>
        <mxCell id="o5yhycOnRF4df_0xs7PU-775" value="" style="ellipse;whiteSpace=wrap;html=1;aspect=fixed;fillColor=none;strokeColor=#99CCFF;container=0;" vertex="1" parent="1">
          <mxGeometry x="425" y="445.03" width="10" height="10" as="geometry" />
        </mxCell>
        <mxCell id="o5yhycOnRF4df_0xs7PU-776" value="" style="endArrow=none;html=1;rounded=0;edgeStyle=orthogonalEdgeStyle;strokeColor=#99CCFF;endFill=0;curved=1;" edge="1" parent="1">
          <mxGeometry width="50" height="50" relative="1" as="geometry">
            <mxPoint x="420" y="450.03" as="sourcePoint" />
            <mxPoint x="430" y="460.03" as="targetPoint" />
          </mxGeometry>
        </mxCell>
        <mxCell id="o5yhycOnRF4df_0xs7PU-777" value="" style="endArrow=none;html=1;rounded=0;edgeStyle=orthogonalEdgeStyle;strokeColor=#99CCFF;endFill=0;curved=1;" edge="1" parent="1">
          <mxGeometry width="50" height="50" relative="1" as="geometry">
            <mxPoint x="440" y="450.02" as="sourcePoint" />
            <mxPoint x="430" y="440.02" as="targetPoint" />
          </mxGeometry>
        </mxCell>
        <mxCell id="o5yhycOnRF4df_0xs7PU-778" value="" style="endArrow=none;html=1;rounded=0;edgeStyle=orthogonalEdgeStyle;strokeColor=#99CCFF;endFill=0;curved=1;" edge="1" parent="1">
          <mxGeometry width="50" height="50" relative="1" as="geometry">
            <mxPoint x="440" y="450.03" as="sourcePoint" />
            <mxPoint x="430" y="460.03" as="targetPoint" />
          </mxGeometry>
        </mxCell>
        <mxCell id="o5yhycOnRF4df_0xs7PU-779" value="" style="endArrow=none;html=1;rounded=0;edgeStyle=orthogonalEdgeStyle;strokeColor=#99CCFF;endFill=0;curved=1;" edge="1" parent="1">
          <mxGeometry width="50" height="50" relative="1" as="geometry">
            <mxPoint x="420" y="450.03" as="sourcePoint" />
            <mxPoint x="430" y="440.03" as="targetPoint" />
          </mxGeometry>
        </mxCell>
        <mxCell id="o5yhycOnRF4df_0xs7PU-780" value="" style="endArrow=none;html=1;rounded=0;strokeColor=#99CCFF;" edge="1" parent="1">
          <mxGeometry width="50" height="50" relative="1" as="geometry">
            <mxPoint x="420" y="449.85999999999996" as="sourcePoint" />
            <mxPoint x="440" y="449.85999999999996" as="targetPoint" />
          </mxGeometry>
        </mxCell>
        <mxCell id="o5yhycOnRF4df_0xs7PU-781" value="" style="endArrow=none;html=1;rounded=0;strokeColor=#99CCFF;" edge="1" parent="1">
          <mxGeometry width="50" height="50" relative="1" as="geometry">
            <mxPoint x="429.83" y="440.03" as="sourcePoint" />
            <mxPoint x="429.83" y="460.03" as="targetPoint" />
          </mxGeometry>
        </mxCell>
        <mxCell id="o5yhycOnRF4df_0xs7PU-783" value="" style="ellipse;whiteSpace=wrap;html=1;aspect=fixed;fillColor=none;strokeColor=#99CCFF;container=0;" vertex="1" parent="1">
          <mxGeometry x="425" y="465.03999999999996" width="10" height="10" as="geometry" />
        </mxCell>
        <mxCell id="o5yhycOnRF4df_0xs7PU-784" value="" style="endArrow=none;html=1;rounded=0;edgeStyle=orthogonalEdgeStyle;strokeColor=#99CCFF;endFill=0;curved=1;" edge="1" parent="1">
          <mxGeometry width="50" height="50" relative="1" as="geometry">
            <mxPoint x="420" y="470.03999999999996" as="sourcePoint" />
            <mxPoint x="430" y="480.03999999999996" as="targetPoint" />
          </mxGeometry>
        </mxCell>
        <mxCell id="o5yhycOnRF4df_0xs7PU-785" value="" style="endArrow=none;html=1;rounded=0;edgeStyle=orthogonalEdgeStyle;strokeColor=#99CCFF;endFill=0;curved=1;" edge="1" parent="1">
          <mxGeometry width="50" height="50" relative="1" as="geometry">
            <mxPoint x="440" y="470.03" as="sourcePoint" />
            <mxPoint x="430" y="460.03" as="targetPoint" />
          </mxGeometry>
        </mxCell>
        <mxCell id="o5yhycOnRF4df_0xs7PU-786" value="" style="endArrow=none;html=1;rounded=0;edgeStyle=orthogonalEdgeStyle;strokeColor=#99CCFF;endFill=0;curved=1;" edge="1" parent="1">
          <mxGeometry width="50" height="50" relative="1" as="geometry">
            <mxPoint x="440" y="470.03999999999996" as="sourcePoint" />
            <mxPoint x="430" y="480.03999999999996" as="targetPoint" />
          </mxGeometry>
        </mxCell>
        <mxCell id="o5yhycOnRF4df_0xs7PU-787" value="" style="endArrow=none;html=1;rounded=0;edgeStyle=orthogonalEdgeStyle;strokeColor=#99CCFF;endFill=0;curved=1;" edge="1" parent="1">
          <mxGeometry width="50" height="50" relative="1" as="geometry">
            <mxPoint x="420" y="470.03999999999996" as="sourcePoint" />
            <mxPoint x="430" y="460.03999999999996" as="targetPoint" />
          </mxGeometry>
        </mxCell>
        <mxCell id="o5yhycOnRF4df_0xs7PU-788" value="" style="endArrow=none;html=1;rounded=0;strokeColor=#99CCFF;" edge="1" parent="1">
          <mxGeometry width="50" height="50" relative="1" as="geometry">
            <mxPoint x="420" y="469.86999999999995" as="sourcePoint" />
            <mxPoint x="440" y="469.86999999999995" as="targetPoint" />
          </mxGeometry>
        </mxCell>
        <mxCell id="o5yhycOnRF4df_0xs7PU-789" value="" style="endArrow=none;html=1;rounded=0;strokeColor=#99CCFF;" edge="1" parent="1">
          <mxGeometry width="50" height="50" relative="1" as="geometry">
            <mxPoint x="429.83" y="460.03999999999996" as="sourcePoint" />
            <mxPoint x="429.83" y="480.03999999999996" as="targetPoint" />
          </mxGeometry>
        </mxCell>
        <mxCell id="o5yhycOnRF4df_0xs7PU-791" value="" style="ellipse;whiteSpace=wrap;html=1;aspect=fixed;fillColor=none;strokeColor=#99CCFF;container=0;" vertex="1" parent="1">
          <mxGeometry x="445" y="445.03" width="10" height="10" as="geometry" />
        </mxCell>
        <mxCell id="o5yhycOnRF4df_0xs7PU-792" value="" style="endArrow=none;html=1;rounded=0;edgeStyle=orthogonalEdgeStyle;strokeColor=#99CCFF;endFill=0;curved=1;" edge="1" parent="1">
          <mxGeometry width="50" height="50" relative="1" as="geometry">
            <mxPoint x="440" y="450.03" as="sourcePoint" />
            <mxPoint x="450" y="460.03" as="targetPoint" />
          </mxGeometry>
        </mxCell>
        <mxCell id="o5yhycOnRF4df_0xs7PU-793" value="" style="endArrow=none;html=1;rounded=0;edgeStyle=orthogonalEdgeStyle;strokeColor=#99CCFF;endFill=0;curved=1;" edge="1" parent="1">
          <mxGeometry width="50" height="50" relative="1" as="geometry">
            <mxPoint x="460" y="450.02" as="sourcePoint" />
            <mxPoint x="450" y="440.02" as="targetPoint" />
          </mxGeometry>
        </mxCell>
        <mxCell id="o5yhycOnRF4df_0xs7PU-794" value="" style="endArrow=none;html=1;rounded=0;edgeStyle=orthogonalEdgeStyle;strokeColor=#99CCFF;endFill=0;curved=1;" edge="1" parent="1">
          <mxGeometry width="50" height="50" relative="1" as="geometry">
            <mxPoint x="460" y="450.03" as="sourcePoint" />
            <mxPoint x="450" y="460.03" as="targetPoint" />
          </mxGeometry>
        </mxCell>
        <mxCell id="o5yhycOnRF4df_0xs7PU-795" value="" style="endArrow=none;html=1;rounded=0;edgeStyle=orthogonalEdgeStyle;strokeColor=#99CCFF;endFill=0;curved=1;" edge="1" parent="1">
          <mxGeometry width="50" height="50" relative="1" as="geometry">
            <mxPoint x="440" y="450.03" as="sourcePoint" />
            <mxPoint x="450" y="440.03" as="targetPoint" />
          </mxGeometry>
        </mxCell>
        <mxCell id="o5yhycOnRF4df_0xs7PU-796" value="" style="endArrow=none;html=1;rounded=0;strokeColor=#99CCFF;" edge="1" parent="1">
          <mxGeometry width="50" height="50" relative="1" as="geometry">
            <mxPoint x="440" y="449.85999999999996" as="sourcePoint" />
            <mxPoint x="460" y="449.85999999999996" as="targetPoint" />
          </mxGeometry>
        </mxCell>
        <mxCell id="o5yhycOnRF4df_0xs7PU-797" value="" style="endArrow=none;html=1;rounded=0;strokeColor=#99CCFF;" edge="1" parent="1">
          <mxGeometry width="50" height="50" relative="1" as="geometry">
            <mxPoint x="449.83" y="440.03" as="sourcePoint" />
            <mxPoint x="449.83" y="460.03" as="targetPoint" />
          </mxGeometry>
        </mxCell>
        <mxCell id="o5yhycOnRF4df_0xs7PU-799" value="" style="ellipse;whiteSpace=wrap;html=1;aspect=fixed;fillColor=none;strokeColor=#99CCFF;container=0;" vertex="1" parent="1">
          <mxGeometry x="445" y="465.03999999999996" width="10" height="10" as="geometry" />
        </mxCell>
        <mxCell id="o5yhycOnRF4df_0xs7PU-800" value="" style="endArrow=none;html=1;rounded=0;edgeStyle=orthogonalEdgeStyle;strokeColor=#99CCFF;endFill=0;curved=1;" edge="1" parent="1">
          <mxGeometry width="50" height="50" relative="1" as="geometry">
            <mxPoint x="440" y="470.03999999999996" as="sourcePoint" />
            <mxPoint x="450" y="480.03999999999996" as="targetPoint" />
          </mxGeometry>
        </mxCell>
        <mxCell id="o5yhycOnRF4df_0xs7PU-801" value="" style="endArrow=none;html=1;rounded=0;edgeStyle=orthogonalEdgeStyle;strokeColor=#99CCFF;endFill=0;curved=1;" edge="1" parent="1">
          <mxGeometry width="50" height="50" relative="1" as="geometry">
            <mxPoint x="460" y="470.03" as="sourcePoint" />
            <mxPoint x="450" y="460.03" as="targetPoint" />
          </mxGeometry>
        </mxCell>
        <mxCell id="o5yhycOnRF4df_0xs7PU-802" value="" style="endArrow=none;html=1;rounded=0;edgeStyle=orthogonalEdgeStyle;strokeColor=#99CCFF;endFill=0;curved=1;" edge="1" parent="1">
          <mxGeometry width="50" height="50" relative="1" as="geometry">
            <mxPoint x="460" y="470.03999999999996" as="sourcePoint" />
            <mxPoint x="450" y="480.03999999999996" as="targetPoint" />
          </mxGeometry>
        </mxCell>
        <mxCell id="o5yhycOnRF4df_0xs7PU-803" value="" style="endArrow=none;html=1;rounded=0;edgeStyle=orthogonalEdgeStyle;strokeColor=#99CCFF;endFill=0;curved=1;" edge="1" parent="1">
          <mxGeometry width="50" height="50" relative="1" as="geometry">
            <mxPoint x="440" y="470.03999999999996" as="sourcePoint" />
            <mxPoint x="450" y="460.03999999999996" as="targetPoint" />
          </mxGeometry>
        </mxCell>
        <mxCell id="o5yhycOnRF4df_0xs7PU-804" value="" style="endArrow=none;html=1;rounded=0;strokeColor=#99CCFF;" edge="1" parent="1">
          <mxGeometry width="50" height="50" relative="1" as="geometry">
            <mxPoint x="440" y="469.86999999999995" as="sourcePoint" />
            <mxPoint x="460" y="469.86999999999995" as="targetPoint" />
          </mxGeometry>
        </mxCell>
        <mxCell id="o5yhycOnRF4df_0xs7PU-805" value="" style="endArrow=none;html=1;rounded=0;strokeColor=#99CCFF;" edge="1" parent="1">
          <mxGeometry width="50" height="50" relative="1" as="geometry">
            <mxPoint x="449.83" y="460.03999999999996" as="sourcePoint" />
            <mxPoint x="449.83" y="480.03999999999996" as="targetPoint" />
          </mxGeometry>
        </mxCell>
        <mxCell id="o5yhycOnRF4df_0xs7PU-807" value="" style="ellipse;whiteSpace=wrap;html=1;aspect=fixed;fillColor=none;strokeColor=#99CCFF;container=0;" vertex="1" parent="1">
          <mxGeometry x="465" y="445.03" width="10" height="10" as="geometry" />
        </mxCell>
        <mxCell id="o5yhycOnRF4df_0xs7PU-808" value="" style="endArrow=none;html=1;rounded=0;edgeStyle=orthogonalEdgeStyle;strokeColor=#99CCFF;endFill=0;curved=1;" edge="1" parent="1">
          <mxGeometry width="50" height="50" relative="1" as="geometry">
            <mxPoint x="460" y="450.03" as="sourcePoint" />
            <mxPoint x="470" y="460.03" as="targetPoint" />
          </mxGeometry>
        </mxCell>
        <mxCell id="o5yhycOnRF4df_0xs7PU-809" value="" style="endArrow=none;html=1;rounded=0;edgeStyle=orthogonalEdgeStyle;strokeColor=#99CCFF;endFill=0;curved=1;" edge="1" parent="1">
          <mxGeometry width="50" height="50" relative="1" as="geometry">
            <mxPoint x="480" y="450.02" as="sourcePoint" />
            <mxPoint x="470" y="440.02" as="targetPoint" />
          </mxGeometry>
        </mxCell>
        <mxCell id="o5yhycOnRF4df_0xs7PU-810" value="" style="endArrow=none;html=1;rounded=0;edgeStyle=orthogonalEdgeStyle;strokeColor=#99CCFF;endFill=0;curved=1;" edge="1" parent="1">
          <mxGeometry width="50" height="50" relative="1" as="geometry">
            <mxPoint x="480" y="450.03" as="sourcePoint" />
            <mxPoint x="470" y="460.03" as="targetPoint" />
          </mxGeometry>
        </mxCell>
        <mxCell id="o5yhycOnRF4df_0xs7PU-811" value="" style="endArrow=none;html=1;rounded=0;edgeStyle=orthogonalEdgeStyle;strokeColor=#99CCFF;endFill=0;curved=1;" edge="1" parent="1">
          <mxGeometry width="50" height="50" relative="1" as="geometry">
            <mxPoint x="460" y="450.03" as="sourcePoint" />
            <mxPoint x="470" y="440.03" as="targetPoint" />
          </mxGeometry>
        </mxCell>
        <mxCell id="o5yhycOnRF4df_0xs7PU-812" value="" style="endArrow=none;html=1;rounded=0;strokeColor=#99CCFF;" edge="1" parent="1">
          <mxGeometry width="50" height="50" relative="1" as="geometry">
            <mxPoint x="460" y="449.85999999999996" as="sourcePoint" />
            <mxPoint x="480" y="449.85999999999996" as="targetPoint" />
          </mxGeometry>
        </mxCell>
        <mxCell id="o5yhycOnRF4df_0xs7PU-813" value="" style="endArrow=none;html=1;rounded=0;strokeColor=#99CCFF;" edge="1" parent="1">
          <mxGeometry width="50" height="50" relative="1" as="geometry">
            <mxPoint x="469.83" y="440.03" as="sourcePoint" />
            <mxPoint x="469.83" y="460.03" as="targetPoint" />
          </mxGeometry>
        </mxCell>
        <mxCell id="o5yhycOnRF4df_0xs7PU-815" value="" style="ellipse;whiteSpace=wrap;html=1;aspect=fixed;fillColor=none;strokeColor=#99CCFF;container=0;" vertex="1" parent="1">
          <mxGeometry x="465" y="465.03999999999996" width="10" height="10" as="geometry" />
        </mxCell>
        <mxCell id="o5yhycOnRF4df_0xs7PU-816" value="" style="endArrow=none;html=1;rounded=0;edgeStyle=orthogonalEdgeStyle;strokeColor=#99CCFF;endFill=0;curved=1;" edge="1" parent="1">
          <mxGeometry width="50" height="50" relative="1" as="geometry">
            <mxPoint x="460" y="470.03999999999996" as="sourcePoint" />
            <mxPoint x="470" y="480.03999999999996" as="targetPoint" />
          </mxGeometry>
        </mxCell>
        <mxCell id="o5yhycOnRF4df_0xs7PU-817" value="" style="endArrow=none;html=1;rounded=0;edgeStyle=orthogonalEdgeStyle;strokeColor=#99CCFF;endFill=0;curved=1;" edge="1" parent="1">
          <mxGeometry width="50" height="50" relative="1" as="geometry">
            <mxPoint x="480" y="470.03" as="sourcePoint" />
            <mxPoint x="470" y="460.03" as="targetPoint" />
          </mxGeometry>
        </mxCell>
        <mxCell id="o5yhycOnRF4df_0xs7PU-818" value="" style="endArrow=none;html=1;rounded=0;edgeStyle=orthogonalEdgeStyle;strokeColor=#99CCFF;endFill=0;curved=1;" edge="1" parent="1">
          <mxGeometry width="50" height="50" relative="1" as="geometry">
            <mxPoint x="480" y="470.03999999999996" as="sourcePoint" />
            <mxPoint x="470" y="480.03999999999996" as="targetPoint" />
          </mxGeometry>
        </mxCell>
        <mxCell id="o5yhycOnRF4df_0xs7PU-819" value="" style="endArrow=none;html=1;rounded=0;edgeStyle=orthogonalEdgeStyle;strokeColor=#99CCFF;endFill=0;curved=1;" edge="1" parent="1">
          <mxGeometry width="50" height="50" relative="1" as="geometry">
            <mxPoint x="460" y="470.03999999999996" as="sourcePoint" />
            <mxPoint x="470" y="460.03999999999996" as="targetPoint" />
          </mxGeometry>
        </mxCell>
        <mxCell id="o5yhycOnRF4df_0xs7PU-820" value="" style="endArrow=none;html=1;rounded=0;strokeColor=#99CCFF;" edge="1" parent="1">
          <mxGeometry width="50" height="50" relative="1" as="geometry">
            <mxPoint x="460" y="469.86999999999995" as="sourcePoint" />
            <mxPoint x="480" y="469.86999999999995" as="targetPoint" />
          </mxGeometry>
        </mxCell>
        <mxCell id="o5yhycOnRF4df_0xs7PU-821" value="" style="endArrow=none;html=1;rounded=0;strokeColor=#99CCFF;" edge="1" parent="1">
          <mxGeometry width="50" height="50" relative="1" as="geometry">
            <mxPoint x="469.83" y="460.03999999999996" as="sourcePoint" />
            <mxPoint x="469.83" y="480.03999999999996" as="targetPoint" />
          </mxGeometry>
        </mxCell>
        <mxCell id="o5yhycOnRF4df_0xs7PU-823" value="" style="ellipse;whiteSpace=wrap;html=1;aspect=fixed;fillColor=none;strokeColor=#99CCFF;container=0;" vertex="1" parent="1">
          <mxGeometry x="485" y="445.03" width="10" height="10" as="geometry" />
        </mxCell>
        <mxCell id="o5yhycOnRF4df_0xs7PU-824" value="" style="endArrow=none;html=1;rounded=0;edgeStyle=orthogonalEdgeStyle;strokeColor=#99CCFF;endFill=0;curved=1;" edge="1" parent="1">
          <mxGeometry width="50" height="50" relative="1" as="geometry">
            <mxPoint x="480" y="450.03" as="sourcePoint" />
            <mxPoint x="490" y="460.03" as="targetPoint" />
          </mxGeometry>
        </mxCell>
        <mxCell id="o5yhycOnRF4df_0xs7PU-825" value="" style="endArrow=none;html=1;rounded=0;edgeStyle=orthogonalEdgeStyle;strokeColor=#99CCFF;endFill=0;curved=1;" edge="1" parent="1">
          <mxGeometry width="50" height="50" relative="1" as="geometry">
            <mxPoint x="500" y="450.02" as="sourcePoint" />
            <mxPoint x="490" y="440.02" as="targetPoint" />
          </mxGeometry>
        </mxCell>
        <mxCell id="o5yhycOnRF4df_0xs7PU-826" value="" style="endArrow=none;html=1;rounded=0;edgeStyle=orthogonalEdgeStyle;strokeColor=#99CCFF;endFill=0;curved=1;" edge="1" parent="1">
          <mxGeometry width="50" height="50" relative="1" as="geometry">
            <mxPoint x="500" y="450.03" as="sourcePoint" />
            <mxPoint x="490" y="460.03" as="targetPoint" />
          </mxGeometry>
        </mxCell>
        <mxCell id="o5yhycOnRF4df_0xs7PU-827" value="" style="endArrow=none;html=1;rounded=0;edgeStyle=orthogonalEdgeStyle;strokeColor=#99CCFF;endFill=0;curved=1;" edge="1" parent="1">
          <mxGeometry width="50" height="50" relative="1" as="geometry">
            <mxPoint x="480" y="450.03" as="sourcePoint" />
            <mxPoint x="490" y="440.03" as="targetPoint" />
          </mxGeometry>
        </mxCell>
        <mxCell id="o5yhycOnRF4df_0xs7PU-828" value="" style="endArrow=none;html=1;rounded=0;strokeColor=#99CCFF;" edge="1" parent="1">
          <mxGeometry width="50" height="50" relative="1" as="geometry">
            <mxPoint x="480" y="449.85999999999996" as="sourcePoint" />
            <mxPoint x="500" y="449.85999999999996" as="targetPoint" />
          </mxGeometry>
        </mxCell>
        <mxCell id="o5yhycOnRF4df_0xs7PU-829" value="" style="endArrow=none;html=1;rounded=0;strokeColor=#99CCFF;" edge="1" parent="1">
          <mxGeometry width="50" height="50" relative="1" as="geometry">
            <mxPoint x="489.83" y="440.03" as="sourcePoint" />
            <mxPoint x="489.83" y="460.03" as="targetPoint" />
          </mxGeometry>
        </mxCell>
        <mxCell id="o5yhycOnRF4df_0xs7PU-831" value="" style="ellipse;whiteSpace=wrap;html=1;aspect=fixed;fillColor=none;strokeColor=#99CCFF;container=0;" vertex="1" parent="1">
          <mxGeometry x="485" y="465.03999999999996" width="10" height="10" as="geometry" />
        </mxCell>
        <mxCell id="o5yhycOnRF4df_0xs7PU-832" value="" style="endArrow=none;html=1;rounded=0;edgeStyle=orthogonalEdgeStyle;strokeColor=#99CCFF;endFill=0;curved=1;" edge="1" parent="1">
          <mxGeometry width="50" height="50" relative="1" as="geometry">
            <mxPoint x="480" y="470.03999999999996" as="sourcePoint" />
            <mxPoint x="490" y="480.03999999999996" as="targetPoint" />
          </mxGeometry>
        </mxCell>
        <mxCell id="o5yhycOnRF4df_0xs7PU-833" value="" style="endArrow=none;html=1;rounded=0;edgeStyle=orthogonalEdgeStyle;strokeColor=#99CCFF;endFill=0;curved=1;" edge="1" parent="1">
          <mxGeometry width="50" height="50" relative="1" as="geometry">
            <mxPoint x="500" y="470.03" as="sourcePoint" />
            <mxPoint x="490" y="460.03" as="targetPoint" />
          </mxGeometry>
        </mxCell>
        <mxCell id="o5yhycOnRF4df_0xs7PU-834" value="" style="endArrow=none;html=1;rounded=0;edgeStyle=orthogonalEdgeStyle;strokeColor=#99CCFF;endFill=0;curved=1;" edge="1" parent="1">
          <mxGeometry width="50" height="50" relative="1" as="geometry">
            <mxPoint x="500" y="470.03999999999996" as="sourcePoint" />
            <mxPoint x="490" y="480.03999999999996" as="targetPoint" />
          </mxGeometry>
        </mxCell>
        <mxCell id="o5yhycOnRF4df_0xs7PU-835" value="" style="endArrow=none;html=1;rounded=0;edgeStyle=orthogonalEdgeStyle;strokeColor=#99CCFF;endFill=0;curved=1;" edge="1" parent="1">
          <mxGeometry width="50" height="50" relative="1" as="geometry">
            <mxPoint x="480" y="470.03999999999996" as="sourcePoint" />
            <mxPoint x="490" y="460.03999999999996" as="targetPoint" />
          </mxGeometry>
        </mxCell>
        <mxCell id="o5yhycOnRF4df_0xs7PU-836" value="" style="endArrow=none;html=1;rounded=0;strokeColor=#99CCFF;" edge="1" parent="1">
          <mxGeometry width="50" height="50" relative="1" as="geometry">
            <mxPoint x="480" y="469.86999999999995" as="sourcePoint" />
            <mxPoint x="500" y="469.86999999999995" as="targetPoint" />
          </mxGeometry>
        </mxCell>
        <mxCell id="o5yhycOnRF4df_0xs7PU-837" value="" style="endArrow=none;html=1;rounded=0;strokeColor=#99CCFF;" edge="1" parent="1">
          <mxGeometry width="50" height="50" relative="1" as="geometry">
            <mxPoint x="489.83" y="460.03999999999996" as="sourcePoint" />
            <mxPoint x="489.83" y="480.03999999999996" as="targetPoint" />
          </mxGeometry>
        </mxCell>
        <mxCell id="o5yhycOnRF4df_0xs7PU-839" value="" style="ellipse;whiteSpace=wrap;html=1;aspect=fixed;fillColor=none;strokeColor=#99CCFF;container=0;" vertex="1" parent="1">
          <mxGeometry x="505" y="445.03" width="10" height="10" as="geometry" />
        </mxCell>
        <mxCell id="o5yhycOnRF4df_0xs7PU-840" value="" style="endArrow=none;html=1;rounded=0;edgeStyle=orthogonalEdgeStyle;strokeColor=#99CCFF;endFill=0;curved=1;" edge="1" parent="1">
          <mxGeometry width="50" height="50" relative="1" as="geometry">
            <mxPoint x="500" y="450.03" as="sourcePoint" />
            <mxPoint x="510" y="460.03" as="targetPoint" />
          </mxGeometry>
        </mxCell>
        <mxCell id="o5yhycOnRF4df_0xs7PU-841" value="" style="endArrow=none;html=1;rounded=0;edgeStyle=orthogonalEdgeStyle;strokeColor=#99CCFF;endFill=0;curved=1;" edge="1" parent="1">
          <mxGeometry width="50" height="50" relative="1" as="geometry">
            <mxPoint x="520" y="450.02" as="sourcePoint" />
            <mxPoint x="510" y="440.02" as="targetPoint" />
          </mxGeometry>
        </mxCell>
        <mxCell id="o5yhycOnRF4df_0xs7PU-842" value="" style="endArrow=none;html=1;rounded=0;edgeStyle=orthogonalEdgeStyle;strokeColor=#99CCFF;endFill=0;curved=1;" edge="1" parent="1">
          <mxGeometry width="50" height="50" relative="1" as="geometry">
            <mxPoint x="520" y="450.03" as="sourcePoint" />
            <mxPoint x="510" y="460.03" as="targetPoint" />
          </mxGeometry>
        </mxCell>
        <mxCell id="o5yhycOnRF4df_0xs7PU-843" value="" style="endArrow=none;html=1;rounded=0;edgeStyle=orthogonalEdgeStyle;strokeColor=#99CCFF;endFill=0;curved=1;" edge="1" parent="1">
          <mxGeometry width="50" height="50" relative="1" as="geometry">
            <mxPoint x="500" y="450.03" as="sourcePoint" />
            <mxPoint x="510" y="440.03" as="targetPoint" />
          </mxGeometry>
        </mxCell>
        <mxCell id="o5yhycOnRF4df_0xs7PU-844" value="" style="endArrow=none;html=1;rounded=0;strokeColor=#99CCFF;" edge="1" parent="1">
          <mxGeometry width="50" height="50" relative="1" as="geometry">
            <mxPoint x="500" y="449.85999999999996" as="sourcePoint" />
            <mxPoint x="520" y="449.85999999999996" as="targetPoint" />
          </mxGeometry>
        </mxCell>
        <mxCell id="o5yhycOnRF4df_0xs7PU-845" value="" style="endArrow=none;html=1;rounded=0;strokeColor=#99CCFF;" edge="1" parent="1">
          <mxGeometry width="50" height="50" relative="1" as="geometry">
            <mxPoint x="509.83" y="440.03" as="sourcePoint" />
            <mxPoint x="509.83" y="460.03" as="targetPoint" />
          </mxGeometry>
        </mxCell>
        <mxCell id="o5yhycOnRF4df_0xs7PU-847" value="" style="ellipse;whiteSpace=wrap;html=1;aspect=fixed;fillColor=none;strokeColor=#99CCFF;container=0;" vertex="1" parent="1">
          <mxGeometry x="505" y="465.03999999999996" width="10" height="10" as="geometry" />
        </mxCell>
        <mxCell id="o5yhycOnRF4df_0xs7PU-848" value="" style="endArrow=none;html=1;rounded=0;edgeStyle=orthogonalEdgeStyle;strokeColor=#99CCFF;endFill=0;curved=1;" edge="1" parent="1">
          <mxGeometry width="50" height="50" relative="1" as="geometry">
            <mxPoint x="500" y="470.03999999999996" as="sourcePoint" />
            <mxPoint x="510" y="480.03999999999996" as="targetPoint" />
          </mxGeometry>
        </mxCell>
        <mxCell id="o5yhycOnRF4df_0xs7PU-849" value="" style="endArrow=none;html=1;rounded=0;edgeStyle=orthogonalEdgeStyle;strokeColor=#99CCFF;endFill=0;curved=1;" edge="1" parent="1">
          <mxGeometry width="50" height="50" relative="1" as="geometry">
            <mxPoint x="520" y="470.03" as="sourcePoint" />
            <mxPoint x="510" y="460.03" as="targetPoint" />
          </mxGeometry>
        </mxCell>
        <mxCell id="o5yhycOnRF4df_0xs7PU-850" value="" style="endArrow=none;html=1;rounded=0;edgeStyle=orthogonalEdgeStyle;strokeColor=#99CCFF;endFill=0;curved=1;" edge="1" parent="1">
          <mxGeometry width="50" height="50" relative="1" as="geometry">
            <mxPoint x="520" y="470.03999999999996" as="sourcePoint" />
            <mxPoint x="510" y="480.03999999999996" as="targetPoint" />
          </mxGeometry>
        </mxCell>
        <mxCell id="o5yhycOnRF4df_0xs7PU-851" value="" style="endArrow=none;html=1;rounded=0;edgeStyle=orthogonalEdgeStyle;strokeColor=#99CCFF;endFill=0;curved=1;" edge="1" parent="1">
          <mxGeometry width="50" height="50" relative="1" as="geometry">
            <mxPoint x="500" y="470.03999999999996" as="sourcePoint" />
            <mxPoint x="510" y="460.03999999999996" as="targetPoint" />
          </mxGeometry>
        </mxCell>
        <mxCell id="o5yhycOnRF4df_0xs7PU-852" value="" style="endArrow=none;html=1;rounded=0;strokeColor=#99CCFF;" edge="1" parent="1">
          <mxGeometry width="50" height="50" relative="1" as="geometry">
            <mxPoint x="500" y="469.86999999999995" as="sourcePoint" />
            <mxPoint x="520" y="469.86999999999995" as="targetPoint" />
          </mxGeometry>
        </mxCell>
        <mxCell id="o5yhycOnRF4df_0xs7PU-853" value="" style="endArrow=none;html=1;rounded=0;strokeColor=#99CCFF;" edge="1" parent="1">
          <mxGeometry width="50" height="50" relative="1" as="geometry">
            <mxPoint x="509.83" y="460.03999999999996" as="sourcePoint" />
            <mxPoint x="509.83" y="480.03999999999996" as="targetPoint" />
          </mxGeometry>
        </mxCell>
        <mxCell id="o5yhycOnRF4df_0xs7PU-855" value="" style="ellipse;whiteSpace=wrap;html=1;aspect=fixed;fillColor=none;strokeColor=#99CCFF;container=0;" vertex="1" parent="1">
          <mxGeometry x="525" y="465.03999999999996" width="10" height="10" as="geometry" />
        </mxCell>
        <mxCell id="o5yhycOnRF4df_0xs7PU-856" value="" style="endArrow=none;html=1;rounded=0;edgeStyle=orthogonalEdgeStyle;strokeColor=#99CCFF;endFill=0;curved=1;" edge="1" parent="1">
          <mxGeometry width="50" height="50" relative="1" as="geometry">
            <mxPoint x="520" y="470.03999999999996" as="sourcePoint" />
            <mxPoint x="530" y="480.03999999999996" as="targetPoint" />
          </mxGeometry>
        </mxCell>
        <mxCell id="o5yhycOnRF4df_0xs7PU-857" value="" style="endArrow=none;html=1;rounded=0;edgeStyle=orthogonalEdgeStyle;strokeColor=#99CCFF;endFill=0;curved=1;" edge="1" parent="1">
          <mxGeometry width="50" height="50" relative="1" as="geometry">
            <mxPoint x="540" y="470.03" as="sourcePoint" />
            <mxPoint x="530" y="460.03" as="targetPoint" />
          </mxGeometry>
        </mxCell>
        <mxCell id="o5yhycOnRF4df_0xs7PU-858" value="" style="endArrow=none;html=1;rounded=0;edgeStyle=orthogonalEdgeStyle;strokeColor=#99CCFF;endFill=0;curved=1;" edge="1" parent="1">
          <mxGeometry width="50" height="50" relative="1" as="geometry">
            <mxPoint x="540" y="470.03999999999996" as="sourcePoint" />
            <mxPoint x="530" y="480.03999999999996" as="targetPoint" />
          </mxGeometry>
        </mxCell>
        <mxCell id="o5yhycOnRF4df_0xs7PU-859" value="" style="endArrow=none;html=1;rounded=0;edgeStyle=orthogonalEdgeStyle;strokeColor=#99CCFF;endFill=0;curved=1;" edge="1" parent="1">
          <mxGeometry width="50" height="50" relative="1" as="geometry">
            <mxPoint x="520" y="470.03999999999996" as="sourcePoint" />
            <mxPoint x="530" y="460.03999999999996" as="targetPoint" />
          </mxGeometry>
        </mxCell>
        <mxCell id="o5yhycOnRF4df_0xs7PU-860" value="" style="endArrow=none;html=1;rounded=0;strokeColor=#99CCFF;" edge="1" parent="1">
          <mxGeometry width="50" height="50" relative="1" as="geometry">
            <mxPoint x="520" y="469.86999999999995" as="sourcePoint" />
            <mxPoint x="540" y="469.86999999999995" as="targetPoint" />
          </mxGeometry>
        </mxCell>
        <mxCell id="o5yhycOnRF4df_0xs7PU-861" value="" style="endArrow=none;html=1;rounded=0;strokeColor=#99CCFF;" edge="1" parent="1">
          <mxGeometry width="50" height="50" relative="1" as="geometry">
            <mxPoint x="529.8299999999999" y="460.03999999999996" as="sourcePoint" />
            <mxPoint x="529.8299999999999" y="480.03999999999996" as="targetPoint" />
          </mxGeometry>
        </mxCell>
        <mxCell id="o5yhycOnRF4df_0xs7PU-863" value="" style="ellipse;whiteSpace=wrap;html=1;aspect=fixed;fillColor=none;strokeColor=#99CCFF;container=0;" vertex="1" parent="1">
          <mxGeometry x="545" y="445.03" width="10" height="10" as="geometry" />
        </mxCell>
        <mxCell id="o5yhycOnRF4df_0xs7PU-864" value="" style="endArrow=none;html=1;rounded=0;edgeStyle=orthogonalEdgeStyle;strokeColor=#99CCFF;endFill=0;curved=1;" edge="1" parent="1">
          <mxGeometry width="50" height="50" relative="1" as="geometry">
            <mxPoint x="540" y="450.03" as="sourcePoint" />
            <mxPoint x="550" y="460.03" as="targetPoint" />
          </mxGeometry>
        </mxCell>
        <mxCell id="o5yhycOnRF4df_0xs7PU-865" value="" style="endArrow=none;html=1;rounded=0;edgeStyle=orthogonalEdgeStyle;strokeColor=#99CCFF;endFill=0;curved=1;" edge="1" parent="1">
          <mxGeometry width="50" height="50" relative="1" as="geometry">
            <mxPoint x="560" y="450.02" as="sourcePoint" />
            <mxPoint x="550" y="440.02" as="targetPoint" />
          </mxGeometry>
        </mxCell>
        <mxCell id="o5yhycOnRF4df_0xs7PU-866" value="" style="endArrow=none;html=1;rounded=0;edgeStyle=orthogonalEdgeStyle;strokeColor=#99CCFF;endFill=0;curved=1;" edge="1" parent="1">
          <mxGeometry width="50" height="50" relative="1" as="geometry">
            <mxPoint x="560" y="450.03" as="sourcePoint" />
            <mxPoint x="550" y="460.03" as="targetPoint" />
          </mxGeometry>
        </mxCell>
        <mxCell id="o5yhycOnRF4df_0xs7PU-867" value="" style="endArrow=none;html=1;rounded=0;edgeStyle=orthogonalEdgeStyle;strokeColor=#99CCFF;endFill=0;curved=1;" edge="1" parent="1">
          <mxGeometry width="50" height="50" relative="1" as="geometry">
            <mxPoint x="540" y="450.03" as="sourcePoint" />
            <mxPoint x="550" y="440.03" as="targetPoint" />
          </mxGeometry>
        </mxCell>
        <mxCell id="o5yhycOnRF4df_0xs7PU-868" value="" style="endArrow=none;html=1;rounded=0;strokeColor=#99CCFF;" edge="1" parent="1">
          <mxGeometry width="50" height="50" relative="1" as="geometry">
            <mxPoint x="540" y="449.85999999999996" as="sourcePoint" />
            <mxPoint x="560" y="449.85999999999996" as="targetPoint" />
          </mxGeometry>
        </mxCell>
        <mxCell id="o5yhycOnRF4df_0xs7PU-869" value="" style="endArrow=none;html=1;rounded=0;strokeColor=#99CCFF;" edge="1" parent="1">
          <mxGeometry width="50" height="50" relative="1" as="geometry">
            <mxPoint x="549.8299999999999" y="440.03" as="sourcePoint" />
            <mxPoint x="549.8299999999999" y="460.03" as="targetPoint" />
          </mxGeometry>
        </mxCell>
        <mxCell id="o5yhycOnRF4df_0xs7PU-871" value="" style="ellipse;whiteSpace=wrap;html=1;aspect=fixed;fillColor=none;strokeColor=#99CCFF;container=0;" vertex="1" parent="1">
          <mxGeometry x="545" y="465.03999999999996" width="10" height="10" as="geometry" />
        </mxCell>
        <mxCell id="o5yhycOnRF4df_0xs7PU-872" value="" style="endArrow=none;html=1;rounded=0;edgeStyle=orthogonalEdgeStyle;strokeColor=#99CCFF;endFill=0;curved=1;" edge="1" parent="1">
          <mxGeometry width="50" height="50" relative="1" as="geometry">
            <mxPoint x="540" y="470.03999999999996" as="sourcePoint" />
            <mxPoint x="550" y="480.03999999999996" as="targetPoint" />
          </mxGeometry>
        </mxCell>
        <mxCell id="o5yhycOnRF4df_0xs7PU-873" value="" style="endArrow=none;html=1;rounded=0;edgeStyle=orthogonalEdgeStyle;strokeColor=#99CCFF;endFill=0;curved=1;" edge="1" parent="1">
          <mxGeometry width="50" height="50" relative="1" as="geometry">
            <mxPoint x="560" y="470.03" as="sourcePoint" />
            <mxPoint x="550" y="460.03" as="targetPoint" />
          </mxGeometry>
        </mxCell>
        <mxCell id="o5yhycOnRF4df_0xs7PU-874" value="" style="endArrow=none;html=1;rounded=0;edgeStyle=orthogonalEdgeStyle;strokeColor=#99CCFF;endFill=0;curved=1;" edge="1" parent="1">
          <mxGeometry width="50" height="50" relative="1" as="geometry">
            <mxPoint x="560" y="470.03999999999996" as="sourcePoint" />
            <mxPoint x="550" y="480.03999999999996" as="targetPoint" />
          </mxGeometry>
        </mxCell>
        <mxCell id="o5yhycOnRF4df_0xs7PU-875" value="" style="endArrow=none;html=1;rounded=0;edgeStyle=orthogonalEdgeStyle;strokeColor=#99CCFF;endFill=0;curved=1;" edge="1" parent="1">
          <mxGeometry width="50" height="50" relative="1" as="geometry">
            <mxPoint x="540" y="470.03999999999996" as="sourcePoint" />
            <mxPoint x="550" y="460.03999999999996" as="targetPoint" />
          </mxGeometry>
        </mxCell>
        <mxCell id="o5yhycOnRF4df_0xs7PU-876" value="" style="endArrow=none;html=1;rounded=0;strokeColor=#99CCFF;" edge="1" parent="1">
          <mxGeometry width="50" height="50" relative="1" as="geometry">
            <mxPoint x="540" y="469.86999999999995" as="sourcePoint" />
            <mxPoint x="560" y="469.86999999999995" as="targetPoint" />
          </mxGeometry>
        </mxCell>
        <mxCell id="o5yhycOnRF4df_0xs7PU-877" value="" style="endArrow=none;html=1;rounded=0;strokeColor=#99CCFF;" edge="1" parent="1">
          <mxGeometry width="50" height="50" relative="1" as="geometry">
            <mxPoint x="549.8299999999999" y="460.03999999999996" as="sourcePoint" />
            <mxPoint x="549.8299999999999" y="480.03999999999996" as="targetPoint" />
          </mxGeometry>
        </mxCell>
        <mxCell id="o5yhycOnRF4df_0xs7PU-879" value="" style="ellipse;whiteSpace=wrap;html=1;aspect=fixed;fillColor=none;strokeColor=#99CCFF;container=0;" vertex="1" parent="1">
          <mxGeometry x="565" y="445.03" width="10" height="10" as="geometry" />
        </mxCell>
        <mxCell id="o5yhycOnRF4df_0xs7PU-880" value="" style="endArrow=none;html=1;rounded=0;edgeStyle=orthogonalEdgeStyle;strokeColor=#99CCFF;endFill=0;curved=1;" edge="1" parent="1">
          <mxGeometry width="50" height="50" relative="1" as="geometry">
            <mxPoint x="560" y="450.03" as="sourcePoint" />
            <mxPoint x="570" y="460.03" as="targetPoint" />
          </mxGeometry>
        </mxCell>
        <mxCell id="o5yhycOnRF4df_0xs7PU-881" value="" style="endArrow=none;html=1;rounded=0;edgeStyle=orthogonalEdgeStyle;strokeColor=#99CCFF;endFill=0;curved=1;" edge="1" parent="1">
          <mxGeometry width="50" height="50" relative="1" as="geometry">
            <mxPoint x="580" y="450.02" as="sourcePoint" />
            <mxPoint x="570" y="440.02" as="targetPoint" />
          </mxGeometry>
        </mxCell>
        <mxCell id="o5yhycOnRF4df_0xs7PU-882" value="" style="endArrow=none;html=1;rounded=0;edgeStyle=orthogonalEdgeStyle;strokeColor=#99CCFF;endFill=0;curved=1;" edge="1" parent="1">
          <mxGeometry width="50" height="50" relative="1" as="geometry">
            <mxPoint x="580" y="450.03" as="sourcePoint" />
            <mxPoint x="570" y="460.03" as="targetPoint" />
          </mxGeometry>
        </mxCell>
        <mxCell id="o5yhycOnRF4df_0xs7PU-883" value="" style="endArrow=none;html=1;rounded=0;edgeStyle=orthogonalEdgeStyle;strokeColor=#99CCFF;endFill=0;curved=1;" edge="1" parent="1">
          <mxGeometry width="50" height="50" relative="1" as="geometry">
            <mxPoint x="560" y="450.03" as="sourcePoint" />
            <mxPoint x="570" y="440.03" as="targetPoint" />
          </mxGeometry>
        </mxCell>
        <mxCell id="o5yhycOnRF4df_0xs7PU-884" value="" style="endArrow=none;html=1;rounded=0;strokeColor=#99CCFF;" edge="1" parent="1">
          <mxGeometry width="50" height="50" relative="1" as="geometry">
            <mxPoint x="560" y="449.85999999999996" as="sourcePoint" />
            <mxPoint x="580" y="449.85999999999996" as="targetPoint" />
          </mxGeometry>
        </mxCell>
        <mxCell id="o5yhycOnRF4df_0xs7PU-885" value="" style="endArrow=none;html=1;rounded=0;strokeColor=#99CCFF;" edge="1" parent="1">
          <mxGeometry width="50" height="50" relative="1" as="geometry">
            <mxPoint x="569.8299999999999" y="440.03" as="sourcePoint" />
            <mxPoint x="569.8299999999999" y="460.03" as="targetPoint" />
          </mxGeometry>
        </mxCell>
        <mxCell id="o5yhycOnRF4df_0xs7PU-887" value="" style="ellipse;whiteSpace=wrap;html=1;aspect=fixed;fillColor=none;strokeColor=#99CCFF;container=0;" vertex="1" parent="1">
          <mxGeometry x="565" y="465.03999999999996" width="10" height="10" as="geometry" />
        </mxCell>
        <mxCell id="o5yhycOnRF4df_0xs7PU-888" value="" style="endArrow=none;html=1;rounded=0;edgeStyle=orthogonalEdgeStyle;strokeColor=#99CCFF;endFill=0;curved=1;" edge="1" parent="1">
          <mxGeometry width="50" height="50" relative="1" as="geometry">
            <mxPoint x="560" y="470.03999999999996" as="sourcePoint" />
            <mxPoint x="570" y="480.03999999999996" as="targetPoint" />
          </mxGeometry>
        </mxCell>
        <mxCell id="o5yhycOnRF4df_0xs7PU-889" value="" style="endArrow=none;html=1;rounded=0;edgeStyle=orthogonalEdgeStyle;strokeColor=#99CCFF;endFill=0;curved=1;" edge="1" parent="1">
          <mxGeometry width="50" height="50" relative="1" as="geometry">
            <mxPoint x="580" y="470.03" as="sourcePoint" />
            <mxPoint x="570" y="460.03" as="targetPoint" />
          </mxGeometry>
        </mxCell>
        <mxCell id="o5yhycOnRF4df_0xs7PU-890" value="" style="endArrow=none;html=1;rounded=0;edgeStyle=orthogonalEdgeStyle;strokeColor=#99CCFF;endFill=0;curved=1;" edge="1" parent="1">
          <mxGeometry width="50" height="50" relative="1" as="geometry">
            <mxPoint x="580" y="470.03999999999996" as="sourcePoint" />
            <mxPoint x="570" y="480.03999999999996" as="targetPoint" />
          </mxGeometry>
        </mxCell>
        <mxCell id="o5yhycOnRF4df_0xs7PU-891" value="" style="endArrow=none;html=1;rounded=0;edgeStyle=orthogonalEdgeStyle;strokeColor=#99CCFF;endFill=0;curved=1;" edge="1" parent="1">
          <mxGeometry width="50" height="50" relative="1" as="geometry">
            <mxPoint x="560" y="470.03999999999996" as="sourcePoint" />
            <mxPoint x="570" y="460.03999999999996" as="targetPoint" />
          </mxGeometry>
        </mxCell>
        <mxCell id="o5yhycOnRF4df_0xs7PU-892" value="" style="endArrow=none;html=1;rounded=0;strokeColor=#99CCFF;" edge="1" parent="1">
          <mxGeometry width="50" height="50" relative="1" as="geometry">
            <mxPoint x="560" y="469.86999999999995" as="sourcePoint" />
            <mxPoint x="580" y="469.86999999999995" as="targetPoint" />
          </mxGeometry>
        </mxCell>
        <mxCell id="o5yhycOnRF4df_0xs7PU-893" value="" style="endArrow=none;html=1;rounded=0;strokeColor=#99CCFF;" edge="1" parent="1">
          <mxGeometry width="50" height="50" relative="1" as="geometry">
            <mxPoint x="569.8299999999999" y="460.03999999999996" as="sourcePoint" />
            <mxPoint x="569.8299999999999" y="480.03999999999996" as="targetPoint" />
          </mxGeometry>
        </mxCell>
        <mxCell id="o5yhycOnRF4df_0xs7PU-895" value="" style="ellipse;whiteSpace=wrap;html=1;aspect=fixed;fillColor=none;strokeColor=#99CCFF;container=0;" vertex="1" parent="1">
          <mxGeometry x="525" y="445.03" width="10" height="10" as="geometry" />
        </mxCell>
        <mxCell id="o5yhycOnRF4df_0xs7PU-896" value="" style="endArrow=none;html=1;rounded=0;edgeStyle=orthogonalEdgeStyle;strokeColor=#99CCFF;endFill=0;curved=1;" edge="1" parent="1">
          <mxGeometry width="50" height="50" relative="1" as="geometry">
            <mxPoint x="520" y="450.03" as="sourcePoint" />
            <mxPoint x="530" y="460.03" as="targetPoint" />
          </mxGeometry>
        </mxCell>
        <mxCell id="o5yhycOnRF4df_0xs7PU-897" value="" style="endArrow=none;html=1;rounded=0;edgeStyle=orthogonalEdgeStyle;strokeColor=#99CCFF;endFill=0;curved=1;" edge="1" parent="1">
          <mxGeometry width="50" height="50" relative="1" as="geometry">
            <mxPoint x="540" y="450.02" as="sourcePoint" />
            <mxPoint x="530" y="440.02" as="targetPoint" />
          </mxGeometry>
        </mxCell>
        <mxCell id="o5yhycOnRF4df_0xs7PU-898" value="" style="endArrow=none;html=1;rounded=0;edgeStyle=orthogonalEdgeStyle;strokeColor=#99CCFF;endFill=0;curved=1;" edge="1" parent="1">
          <mxGeometry width="50" height="50" relative="1" as="geometry">
            <mxPoint x="540" y="450.03" as="sourcePoint" />
            <mxPoint x="530" y="460.03" as="targetPoint" />
          </mxGeometry>
        </mxCell>
        <mxCell id="o5yhycOnRF4df_0xs7PU-899" value="" style="endArrow=none;html=1;rounded=0;edgeStyle=orthogonalEdgeStyle;strokeColor=#99CCFF;endFill=0;curved=1;" edge="1" parent="1">
          <mxGeometry width="50" height="50" relative="1" as="geometry">
            <mxPoint x="520" y="450.03" as="sourcePoint" />
            <mxPoint x="530" y="440.03" as="targetPoint" />
          </mxGeometry>
        </mxCell>
        <mxCell id="o5yhycOnRF4df_0xs7PU-900" value="" style="endArrow=none;html=1;rounded=0;strokeColor=#99CCFF;" edge="1" parent="1">
          <mxGeometry width="50" height="50" relative="1" as="geometry">
            <mxPoint x="520" y="449.85999999999996" as="sourcePoint" />
            <mxPoint x="540" y="449.85999999999996" as="targetPoint" />
          </mxGeometry>
        </mxCell>
        <mxCell id="o5yhycOnRF4df_0xs7PU-901" value="" style="endArrow=none;html=1;rounded=0;strokeColor=#99CCFF;" edge="1" parent="1">
          <mxGeometry width="50" height="50" relative="1" as="geometry">
            <mxPoint x="529.8299999999999" y="440.03" as="sourcePoint" />
            <mxPoint x="529.8299999999999" y="460.03" as="targetPoint" />
          </mxGeometry>
        </mxCell>
        <mxCell id="o5yhycOnRF4df_0xs7PU-903" value="" style="endArrow=none;html=1;rounded=0;strokeColor=#0000FF;" edge="1" parent="1">
          <mxGeometry width="50" height="50" relative="1" as="geometry">
            <mxPoint x="460" y="390" as="sourcePoint" />
            <mxPoint x="480" y="390" as="targetPoint" />
          </mxGeometry>
        </mxCell>
        <mxCell id="o5yhycOnRF4df_0xs7PU-904" value="" style="endArrow=none;html=1;rounded=0;strokeColor=#0000FF;" edge="1" parent="1">
          <mxGeometry width="50" height="50" relative="1" as="geometry">
            <mxPoint x="470" y="380" as="sourcePoint" />
            <mxPoint x="470" y="385" as="targetPoint" />
          </mxGeometry>
        </mxCell>
        <mxCell id="o5yhycOnRF4df_0xs7PU-905" value="" style="endArrow=none;html=1;rounded=0;strokeColor=#0000FF;" edge="1" parent="1">
          <mxGeometry width="50" height="50" relative="1" as="geometry">
            <mxPoint x="470" y="395" as="sourcePoint" />
            <mxPoint x="470" y="400" as="targetPoint" />
          </mxGeometry>
        </mxCell>
        <mxCell id="I7vyF0tozr1cAi5WqUJ5-179" value="" style="endArrow=none;html=1;rounded=0;strokeColor=#000000;" parent="1" edge="1">
          <mxGeometry width="50" height="50" relative="1" as="geometry">
            <mxPoint x="420" y="319.87" as="sourcePoint" />
            <mxPoint x="420" y="479.87" as="targetPoint" />
          </mxGeometry>
        </mxCell>
        <mxCell id="I7vyF0tozr1cAi5WqUJ5-181" value="" style="endArrow=none;html=1;rounded=0;strokeColor=#000000;" parent="1" edge="1">
          <mxGeometry width="50" height="50" relative="1" as="geometry">
            <mxPoint x="580" y="319.87" as="sourcePoint" />
            <mxPoint x="580" y="479.87" as="targetPoint" />
          </mxGeometry>
        </mxCell>
        <mxCell id="I7vyF0tozr1cAi5WqUJ5-182" value="" style="endArrow=none;html=1;rounded=0;strokeColor=#000000;" parent="1" edge="1">
          <mxGeometry width="50" height="50" relative="1" as="geometry">
            <mxPoint x="420" y="479.73" as="sourcePoint" />
            <mxPoint x="580" y="479.73" as="targetPoint" />
          </mxGeometry>
        </mxCell>
        <mxCell id="o5yhycOnRF4df_0xs7PU-1" value="" style="endArrow=none;html=1;rounded=0;strokeColor=#000000;" edge="1" parent="1">
          <mxGeometry width="50" height="50" relative="1" as="geometry">
            <mxPoint x="420" y="320" as="sourcePoint" />
            <mxPoint x="580" y="320" as="targetPoint" />
          </mxGeometry>
        </mxCell>
      </root>
    </mxGraphModel>
  </diagram>
</mxfile>
